<?xml version="1.0" encoding="UTF-8"?><svg id="Calque_2" xmlns="http://www.w3.org/2000/svg" viewBox="0 0 35.72 21.11"><defs><style>.cls-1{fill:#f6b26b;}</style></defs><g id="Calque_1-2"><g><path class="cls-1" d="M33.64,3.59c-.2-.09-.39-.17-.59-.26-1.73-.75-3.54-1.32-5.16-2.31-.04-.02-.09-.02-.14-.04-.47,.05-.94,.12-1.42,.16-1.21,.11-2.41,.33-3.64,.31-.51,0-.98,.13-1.35,.55-.28,.32-.69,.43-1.1,.45-.43,.02-.86,0-1.26-.2-.2-.09-.39-.17-.62-.14-.59,.07-1.19,.09-1.78,.21-2.37,.48-4.76,.8-7.18,.82-.32,0-.63,.04-.89,.22-.36,.24-.75,.32-1.16,.28-.73-.07-1.43,.06-2.14,.16-1.3,.2-2.55,.64-3.86,.77-.14,.01-.29,.05-.39,.23-.02,.2-.04,.43-.07,.67-.03,.26-.06,.52,.01,.78,.82,.95,.87,1.25,.34,2.38-.16,.35-.17,.69-.05,1.04,.26,.76,.31,1.54,.25,2.34-.02,.33-.05,.66,.06,.99,.29,.16,.56,.3,.83,.45,.34,.18,.64,.41,.89,.71,.88,1.04,.31,2.84-.87,3.14-.18,.04-.38,.06-.53,.31,.01,.46,.03,.98,.12,1.5,.64,.23,1.26,.36,1.91,.41,1.76,.14,3.53,.09,5.3,.14,.14,0,.29-.02,.43-.03,2.36-.16,4.73-.18,7.09,0,1,.08,2,.24,3,.2,2.32-.1,4.63,0,6.95,.05,2.08,.05,4.15,.17,6.23,.26,.19,0,.38,.02,.57,0,.76-.04,1.09-.32,1.18-1.07,.08-.66,.14-1.33,.12-2-.05-1.89-.07-3.77,0-5.66,.03-.69,0-1.39,0-2.08,0-1.6-.1-3.2,.12-4.8,.01-.09,0-.19-.02-.29-.35-.35-.74-.6-1.23-.65h.02ZM1.76,14.16c-.15-.07-.3-.14-.46-.19-.54-.17-.75-.57-.77-1.09-.02-.4,.01-.81,.03-1.22,.02-.58-.03-1.14-.22-1.7-.23-.66-.2-1.3,.16-1.93,.27-.48,.24-.54-.18-.99C.09,6.83-.02,6.57,0,6.28c.04-.59,.1-1.19,.17-1.78,.04-.31,.26-.5,.53-.63,.26-.13,.54-.19,.83-.23,.81-.1,1.59-.31,2.38-.5,1.07-.25,2.16-.42,3.27-.33,.39,.03,.76,0,1.1-.23,.36-.23,.77-.26,1.17-.27,2.34-.11,4.66-.39,6.96-.87,.67-.14,1.37-.17,2.06-.23,.27-.03,.52,.03,.76,.17,.26,.15,.54,.19,.83,.18,.3,0,.58-.07,.77-.31,.36-.44,.86-.58,1.39-.66,.12-.02,.24-.04,.36-.04,1.25,.02,2.47-.22,3.71-.33,.36-.03,.71-.08,1.06-.17,.35-.08,.66-.04,.96,.15,1.04,.66,2.17,1.09,3.31,1.54,.87,.34,1.74,.68,2.59,1.03,1.16,.48,1.61,.71,1.51,2.32-.1,1.62-.02,3.25,0,4.87,0,.48,0,.96-.01,1.43-.07,1.89-.06,3.77-.02,5.66,.02,.79-.06,1.57-.19,2.35-.13,.8-.58,1.35-1.35,1.61-.32,.1-.66,.11-.99,.1-1.26-.05-2.53-.07-3.79-.15-1.86-.12-3.72-.12-5.59-.16-1.39-.03-2.77-.01-4.16,0-.83,.01-1.67-.09-2.5-.17-1.45-.14-2.91-.19-4.37-.17-1.05,.01-2.1,.08-3.15,.1-2.01,.04-4.01,.02-6.01-.14-.6-.05-1.17-.22-1.73-.43-.48-.18-.76-.51-.82-.99-.07-.52-.09-1.05-.12-1.57-.02-.38,.18-.63,.5-.8,.13-.06,.27-.12,.4-.14,.56-.08,.82-.45,.9-.97,.08-.52-.2-.86-.6-1.13-.12-.08-.25-.14-.38-.21v-.02h0Z"/><path class="cls-1" d="M22.56,4.09c-.48,.33-.88,.71-1.27,1.09-.34,.33-.68,.67-.94,1.07-.03,.06-.03,.13-.04,.18,.08,.17,.21,.21,.45,.16,.69-.79,1.54-1.52,2.38-2.25,.02-.02,.01-.09,.02-.14-.06-.02-.12-.06-.19-.08-.12-.02-.24-.02-.4-.03h0Zm11.06-.5c.08,.05,.17,.09,.23,.15,.04,.04,.06,.12,.09,.22-.34,.33-.75,.37-1.18,.32-.28-.03-.57-.09-.85-.12-.38-.04-.76-.03-1.13,.08-.54,.17-1.09,.01-1.64,.02-.16,0-.33-.03-.47-.04-.15,.18-.04,.35-.02,.5,.06,.46-.04,.85-.44,1.13-.14,.1-.25,.22-.39,.32-.96,.7-2.45,.63-3.33-.17-.35-.32-.55-.71-.54-1.2,0-.18,.12-.38-.07-.58-.39,.17-.64,.53-.96,.79-.35,.29-.68,.6-1.01,.92-.31,.29-.63,.58-.86,.94,.1,.27,.3,.38,.52,.51,.65-.74,1.34-1.42,2.05-2.06,.16,.14,.08,.25,0,.34-.3,.34-.61,.67-.93,.99-.32,.33-.65,.64-.91,1.01-.02,.23,.12,.41,.19,.61,.29,.85,.12,1.65-.3,2.41-.12,.22-.28,.45-.6,.37-.16-.17-.09-.33-.01-.47,.2-.37,.23-.77,.24-1.18,.02-1.16-.8-2.06-1.96-2.15-.54-.04-1.04,.1-1.53,.3-.28,.12-.39,.34-.38,.63,.03,.85,.64,2.01,1.98,1.9,.24-.02,.47-.07,.71-.1,.11-.01,.24-.07,.32,.06-1.41,.96-2.85,.2-3.34-1.78-.66,.54-.85,1.27-.51,1.99,0,.02,.02,.04,.03,.06,.47,1.07,1.19,1.59,2.59,1.45,.21-.02,.42-.11,.63,.03,.11,.12,.13,.26,.01,.38-.08,.08-.19,.16-.29,.2-1.04,.37-2.48,.17-3.22-.9-.23-.33-.44-.69-.61-1.05-.29-.6-.22-1.2,.02-1.8,.61-1.52,1.78-2.17,3.35-2.25,.21-.01,.43,0,.68-.01,.61-.76,1.27-1.5,2.09-2.14-.13-.05-.18-.08-.22-.07-1.24,.29-2.47,.14-3.71-.02-.46-.06-.9-.06-1.33,.05-.13,.77-.26,.94-.98,1.18-.34,.11-.67,.25-1.04,.25-.75,0-1.09-.24-1.34-.94-.03-.09-.02-.19-.19-.3-1.01,.27-2.1,.02-3.19,.02-.69,0-1.38,.11-2.07,.17-.91,.08-1.81,0-2.72,.01-.12,0-.24-.02-.28-.17,.03-.18,.18-.21,.32-.22,.31-.02,.62-.05,.93-.04,1.1,.02,2.2-.04,3.29-.2,.48-.07,.95-.08,1.43-.04,.62,.05,1.24,.04,1.86-.07,.38-.07,.76-.06,1.06,.07,.23,.22,.08,.47,.19,.66,.26,.43,.93,.41,1.82-.08,.13-.25-.18-.44-.08-.74,.07-.19,.29-.2,.51-.22,.88-.07,1.76-.14,2.65-.06,.98,.09,1.96,.1,2.92-.14,.33-.08,.66-.06,1,0,.47,.08,.94,.14,1.42,.16,.5,.02,.64,.17,.54,.68-.09,.5,.02,.93,.42,1.21,.9,.64,1.92,.58,2.77-.14,.2-.17,.21-.41,.16-.66-.04-.23-.25-.42-.19-.73,.22-.28,.56-.35,.93-.33,.36,.02,.71,.06,1.07,.08,.21,.01,.45,.05,.64-.02,.69-.23,1.38-.07,2.06,.02,.38,.05,.76,.09,1.14,0h-.02Z"/><path class="cls-1" d="M31.14,10.06c.36-.69,.23-1.44-.32-1.71-.86-.41-1.56-.23-1.91,.47-.3,.61-.07,1.45,.54,1.74,.8,.38,1.31,.19,1.69-.5h0Zm.83,.4c-.77,1.38-1.99,1.43-3.04,.85-1.02-.57-1.31-1.96-.65-2.94,.16-.24,.34-.46,.52-.69,.28-.35,.7-.39,1.1-.44,.73-.08,1.85,.34,2.21,1.27,.17,.44,.18,.89,.07,1.34-.05,.23-.15,.45-.21,.61h0Z"/><path class="cls-1" d="M7,9.92c-.29,.65-.22,1.21,.2,1.56,.32,.27,.78,.29,1.13,.05,.4-.27,.63-.83,.5-1.25-.14-.46-.6-.71-1.26-.68-.44,.61-.4,.9,.19,1.27,.1,.07,.29,.05,.29,.25-.74-.01-1.02-.33-1.04-1.2h0Zm-.75-.32c.47-.87,1.14-1.14,2.1-.84,.97,.3,1.53,1.12,1.4,2.06-.1,.68-.46,1.2-1.04,1.55-.95,.56-2.21,.08-2.59-.96-.21-.58-.16-1.25,.14-1.8h0Z"/><path class="cls-1" d="M24.54,15.47c.34-.67,.11-1.14-.54-1.23-.23-.03-.47-.01-.7,.01-.11,.01-.23,.07-.31,.15-.3,.27-.31,.98-.03,1.31,.3,.35,.85,.43,1.22,.14,.17-.13,.29-.31,.37-.39h0Zm.72,.36c-.39,.61-.92,1.06-1.73,1.01-.86-.05-1.51-.79-1.5-1.69,0-.19,.05-.38,.08-.57,.14-.76,.47-1.07,1.23-1.14,.26-.02,.53-.02,.79,.02,1.21,.17,1.75,1.28,1.13,2.38h0Z"/><path class="cls-1" d="M16.18,17.01c-.29-.14-.24-.33-.26-.49-.06-.37-.25-.66-.49-.94-.15-.17-.33-.26-.56-.27-.68-.02-1.31,.3-.83,1.21,.05,.1,.11,.2,.2,.37-.53-.1-.49-.57-.7-.83-.29,.42-.29,.77,0,1.21,.53,.81,1.24,.61,1.91,.3,.25,.18,.23,.35,.09,.52-.27,.31-.64,.4-1.04,.39-1.01-.02-2.05-1.14-1.99-2.16,.04-.78,.55-1.25,1.19-1.57,.65-.33,1.33-.39,1.98,.02,.38,.24,.58,.63,.64,1.07,.06,.39,.13,.79-.15,1.17h0Z"/><path class="cls-1" d="M31.34,18.39c.46,.26,1.07,.1,1.3-.33,.28-.53,.17-1.19-.23-1.41-.42-.23-1.17,.01-1.44,.47-.28,.46-.12,1.01,.36,1.28h0Zm-.39,.7c-.76-.47-1.01-1.4-.54-2.18,.19-.31,.35-.72,.77-.8,.51-.1,1.05-.18,1.55,.04,.51,.23,.68,.72,.72,1.23,.03,.41-.07,.81-.25,1.18-.35,.74-1.49,1-2.25,.53h0Z"/><path class="cls-1" d="M3.11,6.15c.55-.06,.58-.12,.38-.6q-.41,.13-.38,.6h0Zm1.14,.24c-.23,.43-.68,.63-1.14,.52-.47-.12-.71-.48-.69-1.02,.02-.63,.29-.98,.82-1.1,.61-.13,1.09,.22,1.16,.84,.02,.22-.04,.58-.14,.76h0Z"/><path class="cls-1" d="M24.68,18.24c2.9-.58,5.28-2.16,7.7-3.67,.15,.12,.04,.22-.04,.3-.3,.31-.65,.56-1.02,.78-1.52,.9-3,1.86-4.68,2.45-.5,.18-1.02,.26-1.52,.38-.17,.04-.32,0-.44-.24h0Z"/><path class="cls-1" d="M26.56,11.55q-.4,.16-.32,.48c.28,0,.35-.15,.32-.48h0Zm.67,.63c-.27,.53-.86,.77-1.31,.54-.42-.21-.68-.99-.46-1.37,.26-.45,1-.67,1.45-.43,.41,.21,.55,.79,.31,1.25h0Z"/><path class="cls-1" d="M20.2,14.62c.12-.21,.08-.4-.1-.51-.14-.08-.28-.06-.37,.08-.13,.19-.06,.46,.13,.54,.16,.07,.27,0,.34-.11h0Zm-.93-.75c.26-.49,.65-.62,1.12-.36,.57,.3,.75,.9,.43,1.46-.25,.45-.83,.6-1.3,.35-.47-.25-.57-.84-.25-1.44h0Z"/><path class="cls-1" d="M6.92,18.47c.19,.19,.37,.17,.55,.07,.16-.09,.22-.24,.23-.42,0-.15-.05-.28-.2-.35-.14-.07-.28-.03-.39,.08-.15,.16-.24,.35-.19,.61h0Zm1.27,.15c-.25,.47-.95,.7-1.42,.47-.44-.22-.57-.78-.31-1.31,.27-.55,.91-.8,1.37-.54,.44,.24,.61,.91,.36,1.39h0Z"/><path class="cls-1" d="M3.43,11.84c.37,.25,.45,.26,.64,.16,.21-.12,.3-.42,.17-.6-.11-.16-.37-.18-.56-.02-.13,.1-.23,.24-.25,.46h0Zm-.03,.65c-.47-.23-.65-.77-.41-1.2,.23-.42,.95-.65,1.38-.44,.42,.21,.57,.76,.33,1.23-.23,.44-.84,.63-1.29,.41h0Z"/><path class="cls-1" d="M8.6,16.98c1.29-.98,2.44-1.85,3.6-2.72,.03-.02,.09,0,.13,.02-.16,.47-.36,.65-1.91,1.82-1.13,.85-1.14,.85-1.82,.89h0Z"/><path class="cls-1" d="M25.8,17.04c.55-.26,.96-.5,1.4-.66,1.01-.37,2.01-.73,2.89-1.37,.08-.05,.17-.09,.27-.06,.06,.14-.05,.2-.14,.28-.65,.59-1.46,.89-2.25,1.21-.46,.19-.94,.33-1.39,.56-.18,.09-.39,.19-.79,.03h0Z"/><path class="cls-1" d="M12.42,15.24c-.27,.55-1.26,1.45-2.14,1.97-.31,.18-.61,.37-1.07,.25,.22-.33,.58-.35,.82-.54,.27-.2,.55-.38,.81-.58,.25-.19,.48-.39,.73-.57,.26-.19,.46-.47,.85-.54h0Z"/><path class="cls-1" d="M26.58,15.77c.52-.21,1.03-.42,1.53-.62,.5-.2,.92-.56,1.44-.7,.07,.1,.06,.17,0,.21-.81,.6-1.74,.96-2.68,1.27-.08,.03-.19,.04-.29-.17h0Z"/><path class="cls-1" d="M6.62,5.08c-.43,.33-.85,.68-1.29,.99-.43,.3-.57,.85-1.05,1.2,.19-.97,1.24-1.98,2.34-2.18h0Z"/><path class="cls-1" d="M7.8,5.44c-.88,.67-1.79,1.13-2.46,1.89-.23-.15-.15-.28-.05-.38,.3-.27,.59-.55,.92-.78,.36-.26,.76-.49,1.14-.72,.1-.06,.21-.11,.45,0h0Z"/><path class="cls-1" d="M10.84,14.5c-.32,.62-.87,.94-1.33,1.32-.21,.17-.42,.39-.79,.35,.1-.36,.43-.46,.64-.66,.21-.19,.43-.37,.67-.54,.23-.17,.4-.47,.82-.48h0Z"/><path class="cls-1" d="M30.09,18.22c-.8,.59-1.89,.92-2.58,.81,.22-.25,.51-.25,.76-.33,.29-.09,.59-.17,.89-.26,.26-.09,.5-.25,.94-.22h0Z"/><path class="cls-1" d="M8.79,5.43c.02,.08,.05,.15,.04,.17-.55,.48-1.1,.95-1.64,1.41-.15-.11-.14-.22-.08-.29,.47-.53,.99-1.01,1.68-1.29h0Z"/><path class="cls-1" d="M8.25,15.43c.52-.57,1.12-1.03,1.53-1.18-.14,.53-.84,1.11-1.53,1.18h0Z"/><path class="cls-1" d="M28.87,14.01c-.28,.3-.89,.67-1.47,.88-.11,.04-.23,.07-.32-.04,.38-.38,1.33-.82,1.79-.84h0Z"/><path class="cls-1" d="M8.57,6.65c.03-.07,.03-.16,.07-.2,.46-.36,.93-.7,1.49-1.12-.28,.64-.91,1.14-1.57,1.32h0Z"/><path class="cls-1" d="M7.85,14.96c.21-.49,.59-.68,.96-.89,.16,.11,.12,.22,.02,.3-.28,.22-.52,.53-.98,.59h0Z"/><path class="cls-1" d="M26.75,14.01c.25-.32,.63-.41,.98-.53,.13,.13,.07,.21-.01,.25-.29,.15-.59,.29-.88,.43-.03-.05-.06-.1-.09-.15h0Z"/><path class="cls-1" d="M23.52,6.8c-.11,.46-.36,.64-.63,.87,.02-.43,.05-.48,.63-.87h0Z"/><path class="cls-1" d="M11.09,17.35c.18-.32,.45-.52,.85-.73-.15,.52-.48,.66-.85,.73h0Z"/></g></g></svg>