<?xml version="1.0" encoding="UTF-8"?><svg id="Calque_2" xmlns="http://www.w3.org/2000/svg" viewBox="0 0 21.62 28.78"><defs><style>.cls-1{fill:#f8b36a;fill-rule:evenodd;}</style></defs><g id="Calque_1-2"><path class="cls-1" d="M10.81,0c.51-.02,.91,.15,1.31,.41,.51,.33,1.09,.97,1.81,1.38,1,.57,2.86-.22,3.81,1.2,.55,.82,.58,1.47,.62,2.11,.04,.69,.17,1.32,.87,2.26,1.17,1.55,1.41,2.57,.81,3.64-.41,.73-1.27,1.14-1.47,1.6-.43,.98,.04,1.73-.54,2.87-.41,.8-1.03,1.32-1.86,1.59-.7,.22-1.4-.1-1.96,.14-.99,.41-1.71,1.38-2.5,1.62-.3,.09-.6,.14-.91,.14-.3,0-.6-.04-.91-.14-.78-.24-1.51-1.21-2.5-1.62-.56-.24-1.26,.09-1.96-.14-.83-.27-1.45-.79-1.86-1.59-.58-1.15-.11-1.89-.54-2.87-.2-.46-1.06-.87-1.47-1.6-.61-1.07-.36-2.1,.81-3.64,.7-.93,.83-1.57,.87-2.26,.04-.64,.07-1.29,.62-2.11,.95-1.41,2.81-.62,3.81-1.2,.71-.41,1.29-1.05,1.81-1.38C9.9,.16,10.31-.02,10.81,0h0Zm0,6.58l.84,2.05,2.21,.16-1.69,1.43,.53,2.15-1.88-1.17-1.88,1.17,.53-2.15-1.69-1.43,2.21-.16,.84-2.05h0Zm10.02,19.9l-2.7-.48-1.34,2.4c-.97,1.21-1.59-.78-1.86-1.47l-2.61-4.92c.6-.21,1.33-.81,2.07-1.49,1.49,.03,2.87-.23,3.89-1.52l3,5.8,.26,.56c.21,.72,.1,1.2-.7,1.13h0ZM.79,26.48l2.71-.48,1.34,2.4c.97,1.21,1.59-.78,1.86-1.47l2.61-4.92c-.6-.21-1.33-.81-2.07-1.49-1.49,.03-2.87-.23-3.89-1.52L.35,24.79l-.26,.56c-.21,.72-.1,1.2,.7,1.13H.79ZM10.79,3.77c3.23,0,5.85,2.62,5.85,5.85s-2.62,5.85-5.85,5.85-5.85-2.62-5.85-5.85c0-3.23,2.62-5.85,5.85-5.85h0Z"/></g></svg>