<?xml version="1.0" encoding="UTF-8"?><svg id="Calque_2" xmlns="http://www.w3.org/2000/svg" viewBox="0 0 38.43 39.55"><defs><style>.cls-1{fill:#100f1e;}</style></defs><g id="Calque_1-2"><g transform="translate(0.000000,1280.000000) scale(0.100000,-0.100000)"><g><path class="cls-1" d="M8.79,0s-.13,.02-.28,.05c-1.52,.27-2.92,1.41-3.7,3.02-.3,.64-.36,.86-.41,1.63-.15,2.06,0,3.42,.51,4.43l.13,.26-.13,.16c-.07,.09-.35,.41-.62,.7s-.57,.63-.65,.74c-.19,.26-.38,.64-.43,.88l-.04,.19-.34,.15c-.84,.36-1.25,.6-1.62,.95-.29,.28-.49,.61-.61,.98,0,.03-.11,.09-.23,.14C.1,14.39,0,14.47,0,14.58v.08l.24-.02c.41-.03,.85-.2,1.81-.68,.91-.46,1.3-.61,1.7-.68,.19-.03,.24-.05,.24-.09,0-.02-.04-.2-.1-.39-.06-.23-.1-.43-.11-.64-.02-.3-.01-.3,.1-.53,.4-.81,1.31-1.63,2.18-1.96l.16-.06,.27,.08c.27,.08,.65,.15,1.78,.34,.36,.06,.77,.14,.93,.19,.75,.22,1.29,.56,1.67,1.04,.16,.21,.19,.24,.29,.24,.08,0,.11-.02,.13-.08,.07-.19,.01-.44-.15-.63l-.1-.12,.16-.19c.09-.11,.29-.34,.46-.52,.38-.42,.66-.78,.75-.95,.16-.32,1.07-1.07,1.86-1.53,1.23-.73,2.66-1.08,3.91-.98,.37,.03,.8,.1,1.09,.18,.08,.02,.09,.02,.09-.11,0-.27-.17-.46-.57-.66-.1-.05-.23-.12-.28-.16-.05-.04-.18-.09-.28-.11-.1-.02-.26-.08-.36-.14-.18-.1-.21-.11-.57-.13-.26-.02-.39-.04-.41-.06-.04-.05-.57-.06-1.54-.01-1.21,.05-1.95,.23-2.65,.62-.61,.35-1.04,.77-1.96,1.88-.91,1.12-1.35,1.54-1.87,1.8-.57,.28-1.13,.26-1.78-.07-.16-.08-.37-.21-.46-.28l-.17-.12h.13c.12,0,.13,0,.19-.15,.08-.2,.07-.55-.01-.83-.1-.32-.14-.7-.15-1.58-.04-1.93,.27-3.32,1.03-4.51,.32-.5,.39-.6,.5-.7,.35-.31,.63-.58,.72-.7s.09-.16,.08-.31c0-.09-.04-.21-.07-.26-.03-.05-.06-.08-.06-.08Zm-3.77,7.76s.04,.04,.08,.1c.05,.08,.06,.16,.06,.3s0,.18-.01,.18c0,0-.04-.14-.08-.29s-.06-.28-.05-.29Z"/><path class="cls-1" d="M11.86,12.43l-.19,.06c-.19,.06-.23,.1-.2,.21,.02,.09,1.51,1.44,2.01,1.82,.45,.34,1,.65,1.48,.84,.12,.05,.23,.09,.24,.11,.02,.01-.05,.09-.13,.16-.25,.22-.44,.28-1.13,.29h-.56l-.16-.07c-.19-.1-.48-.39-.76-.76-.27-.34-.52-.6-.68-.7-.16-.1-.39-.15-.53-.13-.1,.02-.11,.03-.11,.13s.04,.15,.58,.7c.95,.97,1.24,1.2,1.68,1.38,.47,.19,1,.17,1.35-.04,.45-.28,.82-.41,1.66-.59,.27-.06,.64-.15,.83-.19,.31-.07,.33-.09,.33-.15,0-.19-.19-.43-.46-.57l-.12-.06-.21,.06c-.67,.21-1.46,.13-2.14-.22-.25-.12-.77-.48-1.06-.72-.21-.18-.98-.87-1.55-1.42l-.17-.16Z"/><path class="cls-1" d="M7.94,12.74c-.05,.03-.15,.09-.2,.15l-.11,.1v.42c0,.58,.07,.82,.29,1.02,.15,.13,.21,.14,.63,.12,.4-.02,.62-.07,.78-.2,.16-.13,.19-.19,.2-.44,.01-.21,0-.26-.06-.41-.14-.3-.52-.59-1-.78-.14-.06-.39-.04-.53,.03Z"/><path class="cls-1" d="M21.29,14.4c-.2,.02-.28,.06-.57,.22-.4,.23-1.03,.7-1.86,1.39-1.22,1.01-1.68,1.34-2.32,1.65-.54,.27-.9,.36-1.39,.36-.28,0-.43-.02-.61-.06-.44-.11-.91-.39-1.3-.75-.36-.33-.41-.33-.72,.07-.09,.12-.09,.15,.02,.32,.15,.23,.28,.31,1.08,.63,.65,.26,.75,.3,1.06,.36,.75,.15,1.48,.04,2.22-.33,.55-.28,.95-.57,2.02-1.48,1.08-.92,1.59-1.28,2.2-1.56,.45-.2,.81-.29,1.32-.3,.53-.02,.82,.02,1.48,.23,.57,.17,.86,.29,1.75,.69,.38,.17,.71,.32,.74,.33,.09,.04-.17-.25-.42-.46-.37-.32-.66-.5-1.11-.72-.74-.36-1.57-.57-2.44-.61-.27-.02-.89,0-1.16,.04Z"/><path class="cls-1" d="M3.65,15c-.29,.44-.35,.55-.35,.75,0,.24-.09,.6-.22,.85-.05,.11-.22,.39-.37,.61-.46,.71-.59,1.02-.59,1.42,0,.29,.05,.47,.22,.84,.33,.72,.66,1.11,1.18,1.39,.33,.18,.54,.22,1.14,.23,1,.03,1.56-.11,1.98-.49,.33-.29,.4-.55,.39-1.35v-.5l-.15,.07c-.18,.09-.27,.27-.4,.75-.05,.2-.14,.44-.19,.53-.11,.2-.29,.34-.49,.39-.15,.03-.17,.03-.3-.03-.23-.11-.53-.11-.98-.02-.61,.14-.77,.11-1.07-.2-.27-.27-.48-.58-.58-.87-.12-.35-.13-.83-.03-1.24,.09-.33,.23-.67,.36-.82,.21-.24,.46-.83,.64-1.52,.1-.4,.18-.87,.15-.96,0-.02-.02-.07-.03-.09-.03-.11-.15-.02-.32,.24Z"/><path class="cls-1" d="M11.25,15.48s-.3,.3-.36,.42c-.03,.06-.12,.28-.19,.48-.23,.66-.43,.95-.75,1.11-.16,.08-.19,.08-.97,.1-.86,.02-1.02,.04-1.34,.19-.09,.04-.23,.15-.32,.23-.16,.15-.16,.15-.11,.24,.03,.05,.08,.11,.13,.13,.07,.04,.1,.03,.36-.09l.28-.13,.18,.11c.66,.42,1.25,1.09,1.59,1.81,.16,.34,.35,.91,.45,1.34,.1,.45,.17,.91,.32,2.06,.15,1.16,.22,1.58,.34,2.08,.28,1.15,.83,2.14,1.41,2.57,.6,.44,1.12,1.13,1.4,1.84,.34,.88,.44,1.59,.54,3.77,.06,1.3,.15,2.16,.29,2.64,.06,.2,.03,.32-.19,.98-.19,.57-.22,.67-.22,.88,0,.28,.05,.41,.21,.57,.11,.11,.12,.11,.2,.07,.13-.07,.31-.11,.77-.15,.44-.05,.74-.13,.85-.22,.05-.04,.06-.04,.11-.01,.07,.06,.06,.17-.05,.37-.23,.44-.08,.54,.94,.62,.9,.07,1.89-.06,2.73-.37l.23-.08-.02-.45c0-.31-.05-.66-.13-1.11l-.11-.66,.06-.17c.19-.52,.28-1,.28-1.63s-.06-1.1-.31-2.34c-.2-1.05-.25-1.42-.25-1.99s.1-1.12,.35-1.61c.14-.28,.33-.56,.54-.79l.15-.16,.14,.08c.35,.2,.62,.61,.75,1.11,.1,.4,.13,.64,.19,1.5,.03,.4,.06,.81,.08,.91,.01,.09,.02,.18,.02,.19,0,0-.05,.17-.09,.36-.29,1.27-.21,2.14,.24,2.57l.11,.11,.3-.02c.55-.03,.87-.16,1.03-.41,.18-.28,.16-.59-.13-1.57-.28-.99-.32-1.32-.22-1.75,.08-.33,.12-.57,.16-1.08,.06-.9,.16-1.38,.34-1.74,.14-.28,.24-.34,.61-.35,.24-.01,.27,0,.45,.08,.32,.16,.5,.41,.59,.85,.02,.12,.12,.67,.22,1.21s.22,1.21,.28,1.47c.13,.57,.3,1.14,.34,1.15,.06,.02,.11-.22,.11-.59,0-.43,.04-.58,.16-.7l.08-.08,.11,.36c.13,.42,.25,.88,.52,2,.24,1.02,.46,1.69,.74,2.27,.23,.48,.26,.61,.17,.74-.06,.09-.18,.12-.54,.16-.16,.02-.32,.05-.35,.06-.03,.02-.22,.02-.42,.02h-.36l-.06-.52c-.03-.31-.07-.52-.09-.53-.07-.05-.19,.01-.37,.19-.27,.27-.38,.56-.32,.86,.03,.12,.06,.19,.21,.32,.14,.14,.26,.22,.64,.4,.46,.23,.46,.23,.6,.19,.08-.02,.38-.06,.67-.08,.7-.06,.89-.14,1.01-.42,.08-.19,.07-.39-.04-.65-.68-1.58-1.14-3.57-1.31-5.69-.06-.71-.08-1.1-.11-2.27-.02-.51-.04-1-.05-1.08-.02-.19,.04-.48,.16-.71,.11-.22,.3-.46,.8-.99,.7-.75,.83-1,.88-1.68,.13-1.62-.14-2.88-.79-3.75-.28-.37-1.12-1.18-1.37-1.31-.2-.11-.48-.16-.61-.11-.06,.02-.03,.07,.41,.63,.83,1.04,1.16,1.54,1.42,2.14,.37,.88,.42,1.71,.13,2.52-.35,1-1.01,1.73-1.99,2.21-.76,.37-1.58,.56-2.83,.64-.54,.03-1.72,.02-2.18-.02l-.19-.02-.03-.17c-.02-.1-.05-.4-.08-.67-.06-.56-.11-.82-.2-1.01-.1-.19-.26-.4-.39-.5-.1-.08-.11-.08-.16-.03-.03,.03-.11,.05-.17,.05-.07,0-.11,.02-.11,.04,0,.02,.06,.24,.14,.49,.27,.85,.35,1.26,.31,1.64-.03,.34-.1,.51-.26,.69-.45,.5-.76,1.21-.87,1.99-.08,.53-.03,1.62,.11,2.67,.19,1.42,.24,2.36,.15,2.95-.08,.49-.09,1.32-.03,1.85,.04,.37,.14,.97,.19,1.12,.02,.09-.32,.32-.61,.41-.3,.1-.78,.15-1.13,.12l-.26-.02v-.21c.02-.22,.02-.2,.42-.98,.18-.35,.2-.48,.2-1.26,0-1.25-.07-1.85-.61-4.99-.17-.98-.26-1.64-.31-2.31l-.04-.45-.18-.19c-.22-.23-.38-.47-.76-1.17-.45-.83-.67-1.12-.95-1.27-.12-.06-.18-.01-.18,.17,0,.11,.04,.22,.15,.46,.08,.17,.15,.35,.15,.39,0,.13-.11,.19-.35,.19-.19,0-.25-.02-.46-.11-.65-.31-1.21-.88-1.38-1.38-.03-.11-.13-.45-.2-.76-.15-.63-.28-.92-.49-1.11-.07-.06-.13-.11-.15-.11-.07,0-.1,.81-.04,1.18,.05,.32,.18,.72,.33,1.07,.08,.18,.14,.32,.13,.33,0,0-.08,.06-.16,.11l-.15,.1-.11-.06c-.06-.03-.22-.16-.35-.3-.18-.18-.27-.29-.36-.49-.25-.5-.29-.85-.26-2.06,.02-.97,0-1.3-.13-1.69-.08-.26-.24-.54-.43-.76l-.12-.14v-.41c-.02-.23-.05-.55-.07-.72-.15-.95-.18-1.17-.18-1.51,0-.32,.01-.4,.08-.61,.1-.3,.26-.53,.47-.72,.11-.09,.17-.17,.17-.21,0-.04,.05-.24,.11-.45,.12-.43,.14-.67,.06-.87-.03-.07-.06-.12-.07-.12Z"/><path class="cls-1" d="M25.8,16.81c0,.09,.11,.25,.27,.4,.2,.19,.48,.35,.87,.51,.23,.09,.3,.14,.51,.35,.6,.58,.88,.99,.93,1.33,.02,.18-.04,.45-.16,.63-.04,.06-.07,.12-.07,.13,0,.02,.33,.2,.37,.2,.02,0,.08-.04,.12-.09l.09-.1,.21,.14c.83,.53,1.9,.89,3.06,1.01,.48,.05,1.42,.02,1.94-.06,.91-.14,1.8-.44,2.52-.86,.27-.15,.38-.17,.65-.09,.17,.05,.39,.18,.82,.49,.27,.19,.48,.31,.5,.28,0,0-.02-.11-.08-.22-.15-.32-.43-.54-1.09-.88-.34-.17-.37-.19-.57-.19-.26,0-.41,.07-.87,.38-.18,.12-.38,.25-.43,.28-.26,.13-1.47,.19-2.13,.1-1.28-.18-2.64-.76-3.99-1.69l-.32-.22-.02-.17c-.01-.1-.06-.24-.1-.33-.14-.29-.32-.41-1.29-.86-.14-.06-.29-.15-.35-.19-.09-.07-.14-.08-.36-.08-.21,0-.3-.03-.53-.12-.27-.11-.51-.15-.51-.08Z"/><path class="cls-1" d="M34.9,18.65c-.25,.12-.65,.53-.92,.94-.25,.37-.24,.39,.06,.39s.4-.09,.72-.57c.33-.5,.49-.66,.75-.73l.19-.06-.12-.04c-.2-.06-.47-.04-.68,.06Z"/><path class="cls-1" d="M4.05,18.74c-.05,.02-.07,.04-.07,.13,0,.23,.24,.53,.66,.82,.17,.11,.18,.12,.23,.07,.04-.04,.06-.12,.06-.29v-.23l-.15-.17c-.17-.18-.34-.3-.45-.33-.09-.02-.2-.02-.28,0Z"/><path class="cls-1" d="M35.84,19.25c-.44,.23-.45,.24-.45,.34,0,.06,.02,.1,.03,.1,.02,0,.21-.06,.43-.12,.73-.23,1.19-.27,1.54-.15,.13,.05,.13,.05,.15-.02,0-.04,.01-.11,0-.16-.01-.1-.08-.13-.34-.13-.12,0-.2-.02-.25-.06-.04-.03-.12-.06-.18-.07-.27-.03-.44,.02-.93,.28Z"/><path class="cls-1" d="M7.44,20.52c-.09,0-.27,.2-.29,.33s.03,.46,.11,.67c.03,.09,.16,.34,.28,.56,.37,.66,.41,.95,.23,1.33-.15,.3-.57,.73-.74,.73-.07,0-.07-.08-.02-.49,.05-.42,.02-.57-.14-.73-.07-.07-.17-.18-.22-.25-.31-.43-.85-1-.91-.95-.06,.04-.15,.27-.15,.39,0,.2,.1,.36,.44,.74,.38,.43,.47,.59,.47,.84,0,.22-.05,.32-.29,.62-.35,.42-.52,.73-.62,1.1-.09,.32-.08,.49,.02,.58,.05,.04,.16,.18,.27,.3,.26,.31,.41,.38,.61,.27l.08-.05-.07-.15c-.2-.41-.12-.97,.18-1.26,.06-.06,.31-.26,.57-.45,.73-.56,.98-.87,1.06-1.3,.02-.1,.06-.22,.09-.28,.04-.07,.05-.17,.05-.33,0-.3-.06-.42-.43-.91-.44-.58-.57-.86-.53-1.17,.02-.12,.01-.14-.05-.14Z"/><path class="cls-1" d="M31.27,30.98c-.16,.17-.56,.68-.57,.73-.08,.36-.12,.58-.23,1.3-.07,.46-.14,.92-.16,1.02-.09,.51-.28,1.12-.46,1.47-.06,.12-.07,.13-.1,.08-.02-.03-.15-.37-.29-.76-.38-1.02-.51-1.3-.76-1.71-.09-.14-.1-.15-.15-.1-.03,.03-.07,.11-.09,.19-.06,.2,0,.35,.3,.96,.18,.37,.27,.58,.29,.71,.02,.1,.06,.27,.11,.37,.15,.35,.14,.68-.07,1.53-.14,.56-.17,.9-.09,1.1,.12,.31,.29,.43,.9,.6,.8,.23,.99,.26,1.39,.27,.53,0,.89-.15,1.19-.53,.13-.16,.33-.31,.51-.38,.05-.02,.31-.09,.57-.15,.7-.18,.91-.29,1.06-.57,.06-.12,.07-.15,.03-.17-.19-.12-.67-.13-1.29-.03-.39,.06-.93,.09-.98,.05,0-.01,.03-.08,.1-.15,1.04-1.12,1.43-2.91,.97-4.5l-.05-.17-.06,.11c-.12,.22-.19,.45-.29,.98-.09,.45-.12,.57-.21,.71-.06,.1-.26,.47-.44,.83-.51,1-.8,1.4-1.26,1.71-.19,.13-.39,.23-.42,.2-.02-.02,.07-1.52,.13-2.1,.12-1.19,.3-2.12,.57-2.98l.09-.29-.11-.17c-.06-.09-.12-.16-.14-.15Z"/><path class="cls-1" d="M8.83,32.04c-.11,.06-.16,.22-.16,.46,0,.2,.02,.29,.15,.63,.2,.54,.41,1.04,.8,1.88,.18,.39,.33,.72,.33,.73,0,.02-.05,.04-.12,.06-.16,.05-.32,0-.61-.19-.35-.23-.49-.28-.63-.26-.06,.01-.12,.04-.12,.06,0,.05,.29,.43,.78,1.04,.41,.51,.61,.82,.74,1.15,.14,.35,.18,.75,.12,1.07-.02,.12-.02,.14,.05,.2,.04,.04,.13,.19,.2,.33,.09,.19,.15,.27,.22,.31,.12,.06,.28,.03,.4-.08,.22-.19,.68-.28,1.42-.28,.32,0,.66-.06,.78-.14,.13-.08,.19-.23,.19-.44,0-.29-.09-.53-.32-.83-.89-1.21-1.48-2.44-1.83-3.84-.05-.18-.09-.33-.09-.34,0,0-.12,0-.25,.04l-.23,.06v.22c0,.31,.06,.61,.24,1.21,.24,.81,.31,1.16,.26,1.46l-.02,.14-.15-.23c-.56-.85-1.05-1.8-1.48-2.82-.16-.39-.49-1.26-.55-1.5-.04-.15-.04-.14-.12-.1Z"/></g></g></g></svg>