<?xml version="1.0" encoding="UTF-8"?><svg id="Calque_2" xmlns="http://www.w3.org/2000/svg" viewBox="0 0 32.76 32.34"><g id="Calque_1-2"><g id="tSrV6s"><g><path d="M26.87,17.27c.12,.23,.21,.46,.41,.64,.67,.62,1.39,1.18,2.17,1.67,.7,.44,.94,1.01,.7,1.8-.22,.73-.47,1.46-.71,2.19-.35,1.07-.38,2.14,0,3.21,.21,.6,.25,1.24,.15,1.87-.06,.37-.23,.71-.47,1.01-.54,.71-1.4,.81-2.11,.21-.83-.69-1.51-1.5-2.01-2.47-.4-.77-.81-1.53-1.22-2.3h-.04c0,.05,0,.1,0,.14,.14,.98,.12,1.98,.14,2.97,0,.34-.09,.65-.25,.94-.29,.52-.7,.59-1.14,.19-.04-.04-.08-.09-.13-.15-.04,.06-.07,.09-.09,.13-.25,.4-.5,.8-.74,1.2-.11,.18-.28,.28-.46,.37-.09-.17-.17-.32-.16-.52,.04-.79-.07-1.56-.26-2.33-.1-.41-.1-.86-.09-1.29,0-.31,.19-.57,.49-.69,.42-.17,.57-.5,.57-.92,0-.36,0-.72,0-1.08,0-.54,.17-1.03,.49-1.47,.62-.85,.97-1.81,1.08-2.84,.11-.98,.14-1.96,.19-2.95,.05-.89,.06-1.79,.12-2.68,.03-.38,.14-.76,.23-1.14,.05-.22,.23-.27,.4-.13,.21,.18,.42,.37,.57,.59,.55,.82,1.28,1.45,2.12,1.94,.48,.28,.98,.55,1.49,.79,.7,.32,1.28,.8,1.86,1.29,.64,.54,1.21,1.17,1.7,1.87-.14-.09-.29-.17-.43-.27-.56-.41-1.18-.68-1.86-.82-.43-.09-.85-.22-1.25-.37-.37-.14-.71-.36-1.06-.54-.11-.06-.24-.09-.35-.13l-.03,.05Z"/><path d="M22.84,16.38c-.06,.98-.1,1.97-.2,2.95-.04,.42-.17,.85-.3,1.26-.14,.44-.41,.81-.77,1.1-.48,.39-.71,.9-.79,1.5-.02,.13-.07,.27-.14,.39-.07,.12-.17,.11-.24,0-.06-.1-.11-.22-.12-.33-.03-.6-.22-1.14-.61-1.6-.21-.25-.16-.56-.12-.86,.07-.53,.15-1.07,.19-1.6,.04-.59-.2-.96-.74-1.18-.33-.14-.66-.25-.99-.38-.1-.04-.21-.08-.31-.13-.18-.1-.22-.22-.12-.4,.11-.2,.24-.39,.38-.57,.39-.5,.79-1,1.18-1.5,.31-.41,.34-.85,.09-1.31-.1-.19-.2-.38-.29-.57-.13-.25-.25-.5-.39-.75-.29-.56-.32-1.13-.11-1.72,.34-.94,.91-1.72,1.64-2.39,.24-.22,.5-.42,.74-.63,.38-.34,.79-.3,1.2-.09,.18,.09,.34,.24,.49,.38,.15,.14,.28,.31,.43,.45,.23,.22,.38,.24,.65,.07,.3-.19,.59-.4,.89-.61,.62-.44,1.23-.9,1.87-1.31,1.09-.68,2.28-.72,3.48-.32,.57,.19,.99,.59,1.33,1.08,.2,.3,.42,.58,.65,.86,.18,.21,.42,.35,.68,.44,.24,.08,.33,.26,.26,.51-.18,.59-.47,1.13-.9,1.58-.73,.76-1.63,1.14-2.67,1.26-.58,.07-1.15-.02-1.72-.12-.99-.18-1.97-.07-2.92,.22-.85,.26-1.78,1.1-1.73,2.41,.02,.65,0,1.3,0,1.95h.04Zm2.38-7.9l-.03-.05c-.34,.19-.7,.35-1.03,.56-.33,.21-.64,.45-.95,.68-.12-.14-.22-.27-.34-.39-.32-.32-.84-.39-1.12-.12-.43,.39-.75,.85-.9,1.42-.16,.63-.02,1.16,.49,1.58,.29,.24,.62,.3,.98,.19,.07-.02,.14-.05,.22-.07l.18,.52c.18-.26,.19-.6,0-.9-.15,.07-.3,.13-.44,.21-.28,.15-.44,.13-.64-.11-.1-.12-.2-.26-.25-.4-.23-.65-.13-1.25,.27-1.81,.13-.18,.3-.32,.51-.4,.28-.11,.54,0,.62,.28-.05,0-.11,.01-.16,.01-.13,0-.26,0-.39,.01-.08,0-.13,.03-.09,.14,.25-.02,.48,.04,.66,.21,.17,.16,.33,.34,.47,.49,.19-.24,.35-.49,.55-.7,.25-.27,.53-.52,.8-.78,.2-.19,.39-.37,.59-.56Zm-3.52,3.04l.63-1.4c-.31-.04-.43,.02-.56,.27-.04,.07-.07,.15-.1,.23-.09,.29-.08,.58,.03,.9Z"/><path d="M10.39,20.4s-.07-.07-.07-.1c-.2-.98-.43-1.96-.5-2.97-.07-.93-.14-1.86-.21-2.79-.01-.16-.05-.33-.11-.48-.2-.57-.71-.85-1.3-.7-.35,.09-.68,.23-1.03,.32-2.14,.56-4.02,.08-5.6-1.48-.7-.68-1.12-1.54-1.42-2.46-.04-.12-.08-.24-.11-.36-.12-.42-.02-.67,.36-.89,.48-.28,.97-.56,1.45-.84,.24-.14,.48-.27,.72-.41,.64-.35,1.33-.44,2.04-.3,.7,.13,1.35,.41,1.96,.75,.64,.36,1.27,.75,1.9,1.13,.28,.17,.45,.15,.65-.11,.27-.35,.53-.7,.79-1.06,.34-.47,.77-.63,1.31-.43,.26,.09,.52,.2,.75,.34,.53,.32,.7,.82,.48,1.4-.14,.35-.29,.7-.44,1.05-.12,.29-.18,.59-.17,.91,0,.26,.11,.4,.36,.46,.27,.06,.55,.09,.82,.15,.2,.05,.41,.1,.6,.18,.47,.2,.7,.6,.64,1.1-.17,1.46-.66,2.79-1.64,3.91-.37,.42-.79,.79-1.17,1.2-.47,.49-.86,1.04-.98,1.74-.04,.23-.05,.47-.07,.71l-.03,.03Zm-.64-8.73c.09-.04,.15-.04,.17-.07,.18-.27,.16-.8-.04-1.05-.04-.05-.1-.1-.15-.11-.34-.04-.68-.05-.94,.24-.17,.18-.28,.2-.48,.05-.37-.27-.74-.55-1.11-.83-.33-.24-.66-.48-.99-.73l-.13,.14c1.03,.74,1.82,1.67,2.45,2.76,.03-.11,.04-.2,.06-.3,.09-.47,.3-.86,.74-1.09,.25-.13,.41-.05,.42,.23,.01,.23,0,.46,0,.75Zm-.83,.85c.07,.1,.12,.18,.18,.27,.07,.09,.13,.18,.27,.15,.15-.03,.27-.1,.29-.26,.03-.16,.03-.32,.05-.48h-.03l-.38,.61-.28-.37-.11,.08Zm.43-1.37c-.24,.27-.23,.45,0,.69,.24-.26,.24-.37,0-.69Z"/><path d="M13.89,32.05c.04-.27,.04-.53,.12-.77,.21-.63,.24-1.27,.11-1.91-.14-.76-.28-1.52-.65-2.21-.24-.45-.52-.87-.81-1.29-.23-.34-.36-.7-.36-1.1,0-.02,0-.05,0-.07,0,0,0-.02,.02-.05,.06,.08,.12,.15,.16,.23,.34,.74,.94,1.09,1.72,1.12,.59,.02,1.19-.04,1.79-.07,.48-.02,.95-.13,1.44-.05,.33,.05,.56,.24,.64,.56,.08,.34,.12,.7,.18,1.04,.06,.34,.12,.68,.2,1.01,.03,.12,.1,.24,.19,.34,.29,.33,.49,.69,.56,1.13,.02,.15,.1,.3,.19,.41,.26,.32,.32,.69,.34,1.08,.01,.18,.02,.36,.03,.54,.02,.21-.09,.35-.31,.35-.54,0-1.09,.02-1.63,0-.79-.04-1.59-.1-2.38-.16-.51-.04-1.01-.08-1.56-.12Z"/><path d="M10.36,21.47c.02,.5,.17,1,.03,1.51-.07,.24,0,.47,.11,.69,.12,.21,.49,.31,.76,.19,.37-.17,.69-.42,.97-.71,.14-.14,.17-.34,.15-.53-.01-.16-.04-.33-.04-.49,0-.21,.06-.31,.27-.36,.2-.05,.4-.08,.6-.11,.29-.05,.51-.18,.68-.42,.06-.08,.19-.15,.29-.16,.35-.03,.7-.03,1.05-.03,.28,0,.37,.11,.37,.39,0,.31,.09,.47,.39,.57,.25,.08,.5,.14,.76,.2,.41,.09,.56,.29,.54,.71,0,.17-.02,.35,.01,.52,.08,.39,.4,.65,.83,.7,.37,.04,.71-.06,1.06-.13,.23-.05,.45-.1,.68-.14,.03,0,.09,0,.11,.03,.02,.03,.01,.09,0,.12-.3,.33-.62,.62-1.09,.62-.27,0-.54-.06-.8-.12-1.11-.28-2.21-.57-3.32-.86-.17-.04-.34-.08-.51-.13-.63-.17-1.2,0-1.72,.36-.4,.27-.83,.44-1.32,.43-.32,0-.61-.09-.89-.23-.3-.15-.47-.4-.41-.73,.11-.63,.26-1.25,.39-1.88h.07Z"/><path d="M22.97,4.68c.23-.09,.45-.17,.67-.26,1.2-.52,2.01-1.43,2.51-2.63,.09-.22,.16-.45,.25-.67,.03-.09,.02-.14-.08-.18-.12,.16-.25,.31-.37,.47-.28,.37-.56,.74-.85,1.11-.66,.82-1.53,1.29-2.57,1.47-.2,.03-.4,.06-.61,.08-.28,.02-.44-.1-.52-.37,.06-.02,.12-.05,.17-.04,1.32,.05,2.37-.52,3.22-1.48,.34-.39,.62-.83,.95-1.23,.27-.32,.58-.61,.87-.91,.03-.03,.11-.04,.16-.03,.03,0,.05,.08,.06,.12,.09,.59-.05,1.14-.23,1.7-.44,1.4-1.05,2.7-1.97,3.85-.52,.65-1.09,1.27-1.86,1.65-.13,.06-.28,.09-.42,.13l-.05-.04c0-.12-.02-.25,.02-.36,.17-.4,.34-.8,.54-1.19,.2-.39,.29-.77,.1-1.19Z"/><path d="M11.72,3.93c.07,.23,.03,.43-.06,.62-.12,.27-.31,.47-.61,.56-.68,.21-1.36,.29-2.06,.08-.49-.15-.89-.43-1.25-.78-.33-.31-.65-.63-.96-.95-.14-.14-.24-.31-.36-.47l-.04,.02c.08,.23,.13,.48,.23,.7,.39,.87,1.06,1.47,1.88,1.92,.44,.24,.91,.41,1.41,.54-.03,.11-.05,.22-.08,.32-.07,.25-.13,.51-.21,.75-.11,.33-.28,.4-.62,.31-.54-.14-.95-.49-1.32-.88-.47-.49-.8-1.07-1.07-1.69-.22-.52-.46-1.03-.68-1.54-.26-.59-.32-1.2-.2-1.82,0-.05,.05-.14,.08-.15,.08,0,.18,0,.24,.06,.06,.04,.09,.13,.12,.21,.2,.47,.43,.92,.74,1.33,.49,.65,1.16,1.08,1.88,1.43,.37,.18,.76,.33,1.18,.32,.5,0,.92-.21,1.3-.52,.14-.12,.29-.23,.45-.36Z"/><path d="M11.75,3.34c.02-.5,.3-.82,.73-.89,.49-.07,.98-.03,1.46,.04,1.46,.21,2.89,.08,4.3-.34,.56-.17,1.14-.26,1.72-.17,.64,.1,.97,.54,.9,1.19-.02,.2-.08,.39-.12,.59l-.06,.02c-.15-.16-.31-.3-.44-.47-.39-.52-.87-.63-1.49-.44-.7,.22-1.41,.39-2.13,.54-.81,.17-1.61,.04-2.39-.22-.31-.1-.61-.22-.92-.32-.33-.11-.62-.05-.91,.14-.2,.12-.42,.21-.66,.32Z"/><path d="M16.48,20.71c-.17-.11-.2-.25-.19-.4,.03-.36,.2-.67,.47-.89,.41-.35,.83-.68,1.27-1,.32-.23,.61-.08,.65,.32,.05,.46-.16,.81-.49,1.09-.26,.21-.56,.34-.89,.35-.25,0-.44,.11-.59,.29-.07,.08-.14,.16-.22,.24Z"/><path d="M12.04,18.15c.23-.04,.46-.02,.67,.06,.29,.1,.57,.22,.84,.37,.59,.34,1.18,.35,1.78,.05,.41-.21,.82-.42,1.23-.62,.1-.05,.21-.11,.32-.13,.11-.02,.23-.03,.34,0,.29,.07,.31,.18,.11,.39-.82,.88-2.22,1.19-3.34,.74-.65-.27-1.3-.56-1.96-.84Z"/><path d="M12.5,20.97c.03-.07,.04-.12,.06-.16,.07-.19,.04-.25-.13-.33-.08-.04-.16-.06-.24-.09-.47-.18-.62-.39-.62-.89,0-.25,.03-.5,.05-.76,0-.03,.02-.05,.04-.11,.04,.06,.06,.1,.08,.14,.18,.44,.46,.79,.87,1.04,.29,.18,.38,.39,.32,.73-.04,.22-.18,.36-.42,.43Z"/></g></g></g></svg>