<?xml version="1.0" encoding="UTF-8"?><svg id="Calque_2" xmlns="http://www.w3.org/2000/svg" viewBox="0 0 24.47 34.86"><defs><style>.cls-1{fill:#010101;}</style></defs><g id="Calque_1-2"><g transform="translate(0.000000,1280.000000) scale(0.100000,-0.100000)"><path class="cls-1" d="M13.57,.02c-.65,.1-1.52,.43-2.36,.89-.61,.33-.93,.54-.94,.6,0,.03,0,.06,.01,.06,.01,0,.26-.1,.55-.22,1.22-.5,2.28-.84,3.04-.96,.33-.05,.78-.05,.95,0,.11,.03,.14,.04,.17,0,.03-.03,.03-.05,0-.08-.06-.07-.26-.18-.44-.24-.2-.06-.73-.09-.99-.05Z"/><path class="cls-1" d="M7.53,.22c-.78,.1-1.63,.42-2.48,.93l-.27,.16-.3,.02c-.34,.02-.66,.08-.85,.16l-.13,.05-.11-.09c-.16-.13-.37-.23-.61-.29-.17-.04-.32-.06-.75-.07h-.53l-.12,.07c-.17,.12-.31,.28-.35,.41-.12,.39,.44,.64,1.69,.76l.48,.05,.08,.16,.08,.17,.06-.11c.11-.2,.12-.21,.24-.2h.11v-.17c0-.16,0-.18,.11-.3,.13-.15,.39-.36,.52-.41,.05-.02,.17-.04,.26-.05,.1,0,.35-.08,.61-.16,.76-.26,1.44-.43,2.22-.55,.25-.04,.46-.05,.99-.05,.65,0,.69,0,.95,.07,.15,.04,.38,.13,.51,.19,.2,.1,.25,.11,.27,.08,.04-.05-.03-.13-.27-.29-.66-.44-1.55-.63-2.41-.52Z"/><path class="cls-1" d="M1.37,.46c-.46,.04-.82,.18-1.1,.45C.05,1.11-.04,1.25,.01,1.31c.03,.04,.05,.03,.16-.05,.15-.11,.26-.16,.51-.23,.61-.17,1.73-.11,2.98,.14,.3,.06,.4,.07,.41,.05,.04-.06,0-.09-.28-.22-.91-.41-1.76-.59-2.44-.54Z"/><path class="cls-1" d="M13.37,.81c-.73,.08-1.48,.34-2.21,.77-.29,.17-.76,.5-.76,.53,0,.03,1.19,.15,1.95,.2,1.56,.11,2.69,0,3.18-.31,.17-.11,.27-.25,.29-.39,.01-.14,0-.14-.19-.27-.64-.42-1.49-.62-2.26-.54Z"/><path class="cls-1" d="M6.72,1.34c-.78,.1-1.54,.42-2.23,.93l-.19,.14,.16,.18c.75,.88,.87,1.7,.34,2.31-.22,.25-.62,.51-1.07,.69-.26,.11-.31,.11-.68,.12-.37,0-.82,.09-1.11,.19-.16,.06-.21,.05-.26-.02-.05-.08-.08-.07-.16,.1-.13,.25-.05,.49,.2,.64,.07,.04,.25,.16,.39,.27,.25,.19,.26,.2,.34,.4,.19,.5,.68,.92,1.32,1.16,.1,.04,.2,.07,.22,.08,.08,.03-.23,.09-.49,.09-.29,0-.47-.05-.68-.17-.41-.24-.71-.73-.91-1.44-.04-.14-.08-.28-.08-.29,0-.02-.04-.03-.07-.03-.05,0-.05,.02-.05,.24,0,.9,.33,1.69,.84,2.02,.45,.29,1.09,.32,1.81,.11l.16-.05,.33,.13c.91,.38,1.82,.58,2.64,.58h.37l.14,.23c.43,.69,.95,1.67,1.17,2.22,.13,.33,.25,.77,.25,.92,0,.05-.05,.22-.12,.37-.19,.44-.18,.43-.17,.29,.05-.6,.08-1.05,.06-1.23-.02-.19-.02-.21-.08-.21s-.07,.02-.08,.13c-.02,.14-.15,.69-.18,.74-.02,.04-.11-.19-.26-.62-.04-.11-.06-.14-.11-.14-.05,0-.06,.02-.08,.16-.04,.26-.02,1.17,.03,1.41,.05,.25,.05,.24-.16,.56-.13,.2-.14,.24-.26,.69-.16,.65-.2,.99-.2,1.59,0,.6,.03,.83,.16,1.15,.06,.16,.27,.52,.28,.5,0,0,.02-.28,.04-.62,.05-1.17,.17-1.99,.38-2.54,.14-.35,.17-.28,.14,.33-.07,1.87,.66,3.91,2.16,5.97,.27,.38,.34,.54,.58,1.37,.29,.99,.37,1.69,.26,2.19-.02,.12-.02,.17,.02,.31,.06,.23,.27,.74,.49,1.21,.1,.22,.26,.56,.35,.76,.25,.54,.38,.95,.44,1.32,.04,.3,.05,.32,.11,.32,.08,0,.08-.05,0-.4-.15-.73-.24-2.28-.19-3.19,.02-.33,.04-.62,.05-.65,.02-.06,.02-.05,.14,.04,.07,.05,.17,.12,.22,.14,.08,.04,.09,.04,.13,0s.04-.05-.05-.16c-.22-.29-.32-.69-.27-1.01,.03-.18,.22-.77,.29-.9l.04-.07h.54c.58,0,.59,0,.92-.17,.17-.09,.4-.25,.56-.4,.1-.09,.1-.1,.06-.14s-.05-.04-.17,.03c-.34,.22-.83,.26-1.23,.13-.11-.04-.21-.08-.23-.1-.04-.04,.34-.37,.57-.49,.12-.06,.31-.14,.42-.17,.37-.1,.36-.1,.51,.03,.17,.13,.41,.42,.55,.66l.11,.19-.02,.5c-.02,.65-.08,1-.21,1.31-.17,.4-.2,.54-.2,.86,0,.25,0,.3,.07,.44,.08,.18,.23,.33,.43,.44,.08,.04,.14,.07,.15,.07s-.01-.1-.04-.21c-.13-.52-.12-1.07,.02-1.44,.04-.1,.09-.24,.12-.31l.05-.14v.15c0,.25-.05,.75-.11,1.09l-.05,.32,.1,.3c.26,.81,.48,1.7,.58,2.3,.04,.28,.04,.3-.02,.76-.04,.26-.08,.54-.08,.62l-.02,.15,.11-.15c.16-.21,.19-.35,.19-.8,0-.33,.01-.46,.1-.89,.31-1.6,.68-2.55,1.07-2.71,.08-.04,.09-.04,.09-.21,0-.16,0-.17,.06-.17,.03,0,.06,0,.07-.01,0,0,0-.09-.03-.19-.05-.23-.05-.37,0-.65,.14-.77,.44-1.56,.82-2.13,.17-.25,.61-.78,.63-.75,0,0-.03,.08-.08,.16-.16,.23-.57,1.1-.68,1.41-.3,.86-.4,1.48-.4,2.34,0,1.01,.19,1.87,.61,2.83,.13,.28,.16,.33,.21,.33q.06,0,.07-.44c0-.24,.01-.56,.02-.71,.02-.3,.02-.3,.1,.2,.11,.71,.42,1.63,.66,1.99,.24,.35,.39,.73,.49,1.22,.01,.05,.03,.06,.07,.05,.09-.01,.14-.29,.14-.81,0-.39,0-.43-.06-.57-.04-.08-.11-.18-.17-.23-.08-.07-.14-.16-.23-.37-.68-1.55-.9-3.06-.6-4.11,.02-.08,.05-.19,.05-.24s.06-.26,.13-.47c.11-.35,.12-.37,.23-.45,.27-.19,.81-.85,1.1-1.36,.65-1.14,1.05-2.74,1.11-4.44,.02-.46,.02-.5,.07-.52,.06-.01,.06-.07,.02-.7-.04-.67-.1-1.11-.25-1.69-.46-1.84-1.53-3.37-3.18-4.56-.17-.13-.45-.31-.62-.41-.42-.25-1.23-.66-1.57-.79-.28-.11-.89-.29-.91-.27,0,0-.01,.03-.02,.06,0,.04,.01,.06,.06,.07,1.17,.35,1.79,.66,2.52,1.26,.28,.23,.88,.83,1.05,1.05l.1,.12-.12-.1c-.66-.55-1.68-1.13-2.64-1.51l-.39-.16-.22,.03-.22,.03-.14-.14-.14-.14h-1.74l-.11,.12c-.08,.08-.11,.13-.1,.16,.02,.06,.01,.06,.27-.01,.17-.05,.3-.06,.58-.06,.37,0,.56,.02,.78,.11l.12,.04-.31,.1c-.45,.14-.81,.34-1.06,.56l-.1,.09-.11-.19-.1-.19v.27l-.02,.27-.16-.37c-1.33-2.98-2.29-5.41-2.44-6.19-.05-.23-.06-.26-.11-.27-.03,0-.06,0-.06,0s.04,.25,.1,.55c.43,2.43,1.12,4.59,1.87,5.86,.05,.08,.08,.14,.07,.14-.04,0-.37-.31-.53-.5-.95-1.14-1.55-3.23-1.71-6.03l-.02-.32-.18-.17c-.1-.09-.27-.24-.38-.33s-.21-.17-.21-.17c0,0-.02-.07-.03-.16l-.02-.15-.04,.09s-.05,.09-.06,.09-.13-.07-.27-.17c-.36-.23-1.01-.55-1.4-.68-.55-.18-.81-.22-1.38-.23-.28,0-.55,0-.6,0Zm.75,7.43c.38,.07,.75,.22,1.06,.43,.13,.09,.15,.11,.11,.13-.03,.01-.25,.02-.49,.02-.8,0-1.5-.14-2.27-.45-.13-.05-.24-.1-.25-.11-.01-.01,.07-.02,.18-.01,.11,0,.33,0,.5-.02,.47-.04,.93-.04,1.17,0Zm1.53,.86c.42,.47,.75,1.32,.86,2.25,.05,.47,.05,.5-.05,.65-.05,.07-.1,.13-.11,.13s-.08-.15-.15-.34c-.07-.18-.25-.57-.38-.85-.37-.77-.63-1.19-.96-1.58-.14-.16-.14-.17-.08-.18,.04,0,.16-.03,.28-.06,.12-.02,.27-.06,.33-.08,.15-.06,.16-.05,.27,.07Zm13.76,7.16s-.02,0-.04-.02c-.01-.02-.03,.03-.04,.15-.04,.4-.05,.35-.05-.16v-.54l.07,.28c.04,.16,.07,.29,.06,.29Zm-.93,4.16c-.3,.8-.69,1.49-1.06,1.85-.11,.1-.19,.18-.19,.17,0-.05,.25-.62,.38-.89,.19-.39,.46-.82,.66-1.09,.24-.32,.33-.44,.34-.43,0,0-.05,.18-.13,.39Z"/><path class="cls-1" d="M3.29,3.17s-.02,.05,.01,.14c.02,.07,.05,.24,.06,.4,.01,.24,0,.3-.05,.48-.16,.5-.63,.96-1.32,1.28-.19,.09-.23,.11-.22,.16,.02,.07,.01,.07,.3-.03,.8-.28,1.43-.71,1.65-1.12,.09-.16,.09-.19,.09-.42s0-.26-.09-.43c-.08-.16-.34-.49-.38-.49,0,0-.03,.01-.05,.02Z"/><path class="cls-1" d="M20.57,9.4c-.14,.04-.35,.12-.4,.16-.02,.01-.03,.04-.02,.07,0,.04,.05,.05,.29,.05,.3,0,.53,.05,.78,.16,.26,.12,.41,.26,.66,.6,.52,.72,1.05,1.16,1.67,1.37,.29,.1,.78,.15,.88,.09,.09-.05,.02-.12-.22-.2-.7-.23-1.26-.67-1.58-1.24-.26-.48-.66-.84-1.11-1.01-.22-.08-.72-.11-.95-.05Z"/><path class="cls-1" d="M9.56,20.29c0,.05,.08,.25,.22,.52,.26,.51,.32,.65,.49,1.08,.38,.96,.59,1.89,.56,2.46,0,.15-.02,.4-.03,.57-.03,.48,.08,.75,.41,1.07,.1,.1,.19,.2,.19,.22,0,.02,.05,.22,.12,.44,.43,1.54,.64,2.72,.64,3.69,0,.81-.06,1.03-.35,1.35-.24,.26-.45,.56-.56,.8-.14,.3-.21,.78-.12,.78,.02,0,.25-.02,.51-.06,.26-.03,.47-.05,.48-.04,0,0,.02,.11,.04,.22,.01,.11,.03,.21,.03,.22,.02,.02,.36-.05,.58-.11,.5-.14,.97-.46,1.17-.79,.08-.14,.24-.48,.23-.49,0,0-.07,.04-.14,.1-.41,.31-.88,.49-1.26,.49h-.11l-.13-.24c-.07-.13-.13-.24-.13-.25,0,0-.1,.01-.22,.04-.12,.02-.22,.04-.22,.04,0,0,.07-.09,.18-.2,.31-.34,.55-.83,.65-1.37,.06-.32,.06-1.01,0-1.4-.14-.89-.56-2.01-1.12-3-.05-.1-.1-.18-.09-.19,0,0,.07,.02,.14,.05,.12,.05,.13,.05,.17,.01,.03-.04,.01-.07-.1-.21-.37-.46-.52-1.06-.38-1.58,.03-.11,.02-.16-.05-.52-.29-1.3-.84-2.55-1.57-3.52-.21-.29-.21-.28-.21-.18Z"/><path class="cls-1" d="M18.66,25.16c-.16,.37-.57,1.8-.74,2.57-.19,.84-.26,1.37-.26,1.96,0,.41,0,.53,.04,.63,.1,.27,.14,.59,.14,1.12,0,.28,.01,.51,.02,.51,0,0,.04,0,.05,.01,.04,.02,.12-.22,.23-.69,.13-.58,.13-1.06,0-1.26-.06-.1-.06-.11-.06-.89,0-.85,.04-1.34,.16-2.05,.09-.52,.16-.81,.38-1.47,.14-.42,.17-.55,.14-.56-.06-.04-.07-.03-.13,.1Z"/><path class="cls-1" d="M13.74,25.71c-.04,.06-.13,.61-.17,1.03-.06,.58-.07,1.9-.01,2.25,.09,.58,.22,.97,.41,1.2,.22,.27,.47,.82,.56,1.2,.01,.06,.03,.08,.08,.08,.06,0,.07-.02,.08-.17,.07-.69-.04-1.22-.31-1.45-.1-.08-.13-.14-.23-.44-.27-.77-.42-1.49-.44-2.2-.01-.41,0-.52,.06-.9,.04-.24,.08-.48,.09-.53,.02-.08,.01-.09-.04-.09-.03,0-.06,.01-.07,.02Z"/><path class="cls-1" d="M16.44,27.73s-.05,.02-.05,.04c0,.02-.01,.3-.03,.63-.09,1.89-.35,3.24-.76,3.95-.05,.09-.19,.26-.31,.39-.37,.4-.62,.81-.71,1.21-.04,.18-.06,.7-.02,.7,0,0,.09-.15,.18-.33,.3-.62,.71-1.16,1.04-1.38,.16-.11,.24-.2,.35-.41,.36-.73,.52-2.18,.43-4.03-.04-.72-.05-.8-.11-.78Z"/><path class="cls-1" d="M19.57,29.92s-.1,.26-.19,.55c-.17,.5-.17,.52-.12,.55,.03,.02,.06,.02,.06,.02,.05-.07,.54-.65,.55-.65s.21,.1,.46,.22c.34,.17,.44,.21,.46,.18,.01-.02,.02-.05,.02-.06,0-.02-1.18-.83-1.21-.83,0,0-.02,.01-.02,.03Z"/><path class="cls-1" d="M17.88,33.31s-.12,.16-.17,.26c-.11,.23-.29,.43-.49,.53-.12,.06-.2,.08-.38,.09h-.22l-.17-.22c-.1-.13-.18-.24-.19-.25-.02-.03-1.11,.77-1.11,.81,0,.1,.04,.1,.44,0l.4-.1,.29,.22c.32,.26,.31,.25,.71,.13,.35-.11,.68-.37,.81-.63,.08-.15,.14-.44,.14-.61,0-.08,.01-.17,.03-.21,.05-.09,.03-.09-.07,0Z"/></g></g></svg>