<?xml version="1.0" encoding="UTF-8"?><svg id="Calque_2" xmlns="http://www.w3.org/2000/svg" viewBox="0 0 35.43 26.66"><defs><style>.cls-1{fill:#1d1d1b;}</style></defs><g id="Calque_1-2"><g><path class="cls-1" d="M19.14,11.41c-.59-.5-.7-1.05-.3-1.7,.12-.2,.26-.37,.26-.62-.07-.18-.21-.3-.4-.41-.66,.22-1.22,.69-2.03,.82,.42,.31,.78,.48,1.18,.58,.12,.15,.24,.29,.39,.46-.23,.12-.42,.01-.62,0-.19-.17-.36-.37-.61-.5-.58-.3-1.13-.37-1.77-.11-.95,.39-1.94,.71-2.94,.97-.3,.08-.58,.2-.87,.31-.41,.16-.73,.44-1.04,.75-.76,.76-1.4,1.63-2.22,2.33-.08,.07-.15,.15-.23,.2-1.15,.7-1.95,1.78-2.92,2.67-.91,.84-1.79,1.72-2.77,2.48-.19,.15-.39,.31-.56,.49-.38,.39-.42,.93-.07,1.34,.26,.3,.5,.61,.7,.94,.11,.18,.27,.32,.45,.42,.41,.22,.71,.55,.96,.94,.36,.57,.95,.92,1.45,1.35,.21,.18,.53,.11,.74-.08,.03-.03,.06-.06,.08-.09,.42-.6,.99-1.04,1.57-1.48,1.01-.76,1.84-1.72,2.75-2.6,.45-.43,.87-.89,1.35-1.28,.11-.09,.22-.19,.32-.3,.43-.5,.92-.95,1.43-1.38,.75-.62,1.4-1.35,2.07-2.05,.14-.15,.27-.31,.39-.48,.27-.37,.55-.73,.89-1.03,.71-.63,1.33-1.35,2-2.04,.21-.22,.4-.47,.63-.76-.12-.09-.18-.14-.24-.2h0Zm2.6-5.4c-.08-.35-.26-.68-.45-.99-.22-.35-.38-.73-.43-1.15-.05-.49-.32-.9-.62-1.27-.34-.43-.62-.87-.73-1.42-.03-.16-.11-.31-.21-.43-.19-.11-.38-.06-.56-.02-.16,.04-.32,.1-.47,.16-.73,.28-1.46,.56-2.26,.62-.39,.02-.76,.19-1.12,.35-1.6,.68-3.23,1.28-4.92,1.69-.54,.13-1.07,.31-1.6,.5-1.29,.46-2.6,.82-3.93,1.13-.54,.12-1.08,.28-1.6,.52-.32,.73-.57,1.46-.37,2.28,.08,.3,.1,.61,.17,.91,.05,.22,.08,.46,.18,.65,.59,1.07,.96,2.24,1.68,3.24,.04,.05,.07,.1,.11,.15,.28,.35,.47,.41,.92,.27,.73-.23,1.43-.55,2.11-.89,1.18-.59,2.37-1.18,3.56-1.75,.28-.13,.57-.24,.87-.32,.96-.25,1.89-.59,2.83-.91,.39-.13,.78-.29,1.18-.36,1.51-.29,2.84-.98,4.15-1.73h0c-.34,0-.64,.16-.95,.28-.41,.15-.81,.32-1.21,.48-.89,.36-1.84,.47-2.78,.61-.2,.03-.41,.05-.61,.1-1.24,.33-2.49,.59-3.65,1.18-.27,.14-.58,.23-.87,.33-.75,.24-1.48,.51-2.19,.86-.67,.33-1.4,.51-2.13,.64-.7,.13-1.25-.1-1.63-.73-.56-.92-1.02-1.89-1.29-2.93-.18-.68-.07-1.35,.12-2.02,.05-.18,.13-.36,.37-.35,.07,.06,.1,.14,.07,.22-.43,1-.19,1.97,.24,2.88,.3,.65,.64,1.29,1.07,1.88,.05,.07,.09,.14,.15,.2,.28,.29,.62,.42,1.01,.27,.79-.29,1.63-.45,2.39-.85,.2-.1,.42-.17,.63-.25,.94-.33,1.88-.63,2.78-1.05,.29-.14,.63-.21,.95-.3,.28-.08,.57-.12,.84-.21,.99-.3,2.01-.45,3.05-.54,.44-.04,.85-.16,1.26-.31,.68-.24,1.36-.48,2.04-.73,.28-.11,.56-.23,.8-.33,.18,.07,.16,.19,.18,.29h0q.58-.29,.85-.86h0Zm-2.97,6.94l-.12,.12h0l.12-.13,.13-.12,.02-.02-.02,.02-.12,.13h0ZM1.4,19.78s-.09,.07-.14,.1c-.58,.33-.72,.78-.43,1.34,.05,.1,.14,.19,.2,.29,.11,.5,.36,.92,.73,1.27,.33,.31,.63,.65,.88,1.04,.04,.07,.09,.15,.15,.2,.75,.6,1.4,1.35,2.31,1.75,.23,.1,.46,.18,.76,.15,.69-.56,1.26-1.27,1.87-1.93,.07-.02,.11-.06,.13-.13,.28-.07,.46-.26,.62-.49,.06-.02,.11-.06,.12-.12,.07-.02,.11-.05,.13-.13,.24-.04,.38-.23,.54-.39,.87-.85,1.73-1.7,2.6-2.55,.04-.04,.06-.1,.09-.16,.02,0,.05,0,.06-.01,.84-.66,1.63-1.38,2.29-2.23,.07-.01,.11-.05,.12-.12,.06-.02,.11-.06,.12-.13,.06-.02,.11-.06,.12-.12,.04-.04,.08-.08,.13-.12,.07-.02,.11-.06,.13-.12,.07-.01,.11-.05,.13-.12,.07-.01,.11-.05,.13-.12,.07-.01,.11-.06,.12-.12,.07-.01,.11-.06,.12-.13,.07-.02,.11-.06,.12-.12,.07-.02,.11-.06,.12-.12,.04-.04,.08-.08,.13-.13,.66-.59,1.27-1.22,1.74-1.98,.07-.01,.11-.06,.12-.12,.04-.04,.08-.08,.12-.12l.13-.12,.02-.02-.02,.02s-.08,.09-.12,.13c-.04,.04-.08,.08-.12,.12-.06,.02-.11,.05-.12,.12-.32,.15-.53,.44-.76,.68-.37,.4-.71,.82-.97,1.3-.07,.01-.12,.05-.13,.13-.07,0-.11,.05-.12,.12-.07,0-.11,.05-.12,.12-.07,0-.12,.05-.13,.12-.07,0-.11,.05-.12,.12-.07,.01-.11,.06-.12,.13-.07,.01-.11,.06-.12,.13-.04,.04-.09,.08-.13,.12-.04,.04-.08,.08-.12,.12l-.12,.12s-.08,.08-.12,.13c-.07,.02-.11,.05-.12,.12-.06,.02-.13,.03-.17,.07-.77,.68-1.56,1.34-2.19,2.16-.15,.02-.26,.12-.36,.22-.97,.95-1.95,1.88-2.86,2.89-.04,.04-.08,.08-.13,.13-.06,.02-.11,.06-.12,.12-.27,.08-.46,.27-.62,.49l-.13,.13c-.43,.18-.77,.46-1.06,.82-.16,.19-.31,.39-.48,.56-.4,.4-.9,.45-1.33,.09-.61-.52-1.28-.97-1.68-1.7-.12-.22-.34-.36-.55-.48-.35-.2-.61-.47-.81-.82-.2-.36-.49-.65-.79-.94-.14-.57-.07-1.11,.27-1.6,.06-.03,.1-.08,.1-.14,.06-.02,.1-.06,.12-.13h0s-.08,.09-.12,.13h0Zm.49-.38s.09-.09,.13-.13c.04-.04,.08-.08,.11-.12l.13-.13c.38-.1,.62-.41,.87-.67,.65-.67,1.42-1.21,2.03-1.91,.21-.25,.46-.48,.69-.71,.46-.48,.93-.94,1.49-1.3,.45-.29,.86-.65,1.21-1.06,.37-.44,.76-.87,1.17-1.28h0c-.2,0-.34,.07-.48,.22-.81,.82-1.56,1.7-2.56,2.31-.3,.19-.53,.46-.75,.73-.64,.78-1.36,1.49-2.13,2.15-.55,.47-1.06,.98-1.52,1.54-.04,.04-.09,.09-.13,.13-.04,.04-.08,.08-.12,.12-.04,.04-.09,.09-.13,.13h0Zm5.86-6.48l-.02,.02c-.74,.19-1.46,.46-2.15,.77-.5,.22-.92,.14-1.31-.22-.12-.11-.22-.25-.32-.38-.77-1.04-1.2-2.26-1.79-3.4-.09-.18-.13-.39-.17-.6-.07-.32-.11-.65-.18-.97-.21-.89-.02-1.72,.31-2.54,.13-.33,.37-.55,.71-.64,.12-.03,.24-.08,.36-.11,2.02-.53,4.02-1.13,5.99-1.82,.19-.07,.39-.13,.6-.17,1.69-.4,3.33-.98,4.94-1.65,.38-.16,.77-.32,1.18-.36,.83-.07,1.62-.33,2.39-.62,.28-.1,.56-.12,.85-.13,.41-.02,.66,.18,.8,.55,.05,.13,.09,.28,.11,.42,.08,.37,.24,.68,.52,.96,.47,.47,.84,1.03,.94,1.71,.06,.38,.19,.71,.37,1.04,.12,.22,.19,.46,.32,.67,.32,.49,.13,.9-.18,1.3-.14,.19-.33,.31-.53,.42-.52,.3-1.02,.63-1.57,.88-.2,.09-.42,.17-.56,.36,.02,.04,.02,.09,.05,.12,.4,.56,.4,.8,.04,1.4-.08,.12-.15,.25-.2,.38-.1,.32,.03,.57,.35,.68,.12,.04,.24,.04,.36,.08,.42,.13,.6,.53,.34,.87-.43,.58-.76,1.23-1.29,1.74-.15,.14-.28,.31-.4,.47-.86,1.14-1.82,2.2-2.82,3.22-1.17,1.2-2.36,2.38-3.61,3.5-1.45,1.29-2.73,2.76-4.27,3.97-.18,.14-.32,.32-.47,.49-.34,.36-.71,.69-1.08,1.02-.38,.32-.78,.36-1.21,.2-.47-.17-.93-.37-1.3-.7-.42-.37-.9-.68-1.27-1.08-.65-.69-1.25-1.43-1.82-2.18-.23-.31-.36-.7-.53-1.05-.37-.8-.22-1.49,.47-2.03,.59-.46,1.13-.96,1.62-1.53,.3-.34,.62-.67,.96-.96,.79-.68,1.52-1.4,2.18-2.2,.28-.34,.58-.65,.97-.85,.5-.26,.92-.62,1.32-1.02l.02-.02h0Z"/><path class="cls-1" d="M26.6,2.82c-.12,.46-.21,.93-.39,1.37-.19,.48-.29,.99-.34,1.51-.03,.37-.08,.74-.21,1.09-.53,1.44-.84,2.94-1.19,4.42-.32,1.33-.74,2.62-1.16,3.92-.15,.45-.29,.9-.36,1.38-.08,.53-.25,1.04-.43,1.55-.11,.31-.24,.61-.26,.94,.18,.07,.24-.07,.31-.15,.61-.73,1.23-1.45,1.81-2.2,1.1-1.45,2.31-2.8,3.5-4.18,1.26-1.46,2.53-2.89,3.86-4.28,.27-.28,.54-.57,.85-.82,.6-.48,1.11-1.05,1.67-1.57,.69-.64,.72-1.38,.15-2.29-.29-.46-.71-.8-1.26-.94-.2-.05-.4-.12-.57-.23-.86-.57-1.88-.74-2.82-1.08-.19-.07-.41-.07-.61-.1-.45-.05-.91-.05-1.32-.29-.16-.09-.36-.1-.64,.04-.19,.62-.4,1.27-.57,1.92h0Zm-4.86,16.39c.1-.46,.21-.93,.31-1.39,.1-.44,.22-.88,.28-1.33,.08-.55,.2-1.1,.36-1.63,.32-1.05,.63-2.1,.91-3.16,.35-1.34,.65-2.69,1.01-4.03,.21-.78,.47-1.55,.52-2.35,.04-.65,.24-1.25,.48-1.85,.22-.56,.44-1.12,.51-1.72,.04-.33,.17-.64,.29-.94,.28-.7,.84-.98,1.61-.69,.34,.13,.68,.19,1.03,.18,.62-.03,1.18,.12,1.73,.41,.25,.13,.5,.3,.8,.32,.29,.03,.56,.15,.81,.28,.31,.16,.61,.36,.94,.48,.69,.26,1.18,.73,1.59,1.32,.72,1.03,.67,2.18-.17,3.12-.54,.6-1.08,1.2-1.72,1.7-.27,.21-.52,.47-.76,.73-1.24,1.36-2.48,2.72-3.71,4.08-1.15,1.27-2.29,2.56-3.38,3.88-.79,.96-1.64,1.86-2.55,2.71-.19,.18-.37,.4-.71,.42-.23-.29-.24-.29-.19-.55h0Z"/><path class="cls-1" d="M18.11,3.95c-.1,.2-.28,.27-.31,.6,0,.15,.16,.36,.36,.52,.4,.1,.53-.18,.66-.45,.4,.13,.57,.58,.97,.68,.1-.12,.04-.19,0-.24-.9-.92-1.86-1.75-2.97-2.41-.34-.2-.69-.36-1.09-.42-.1-.01-.21-.03-.33,.1,.45,.29,.98,.37,1.42,.66,.45,.3,.89,.6,1.32,.97h0Z"/><path class="cls-1" d="M17.12,2.12c.29,.13,.59,.25,.87,.39,.3,.14,.57,.32,.82,.54,.24,.21,.47,.44,.69,.66,.1-.05,.12-.11,.09-.16-.52-.82-1.27-1.32-2.21-1.55-.09-.02-.21-.04-.27,.13h0Z"/><path class="cls-1" d="M7.49,6.29v.04l.05-.02-.05-.02h0Zm.05,.51c-.27,.01-.49-.22-.5-.51,0-.28,.18-.48,.45-.48,.29,0,.51,.23,.51,.5,0,.26-.21,.48-.46,.49h0Z"/><path class="cls-1" d="M15.48,3.36c.73,.43,1.32,1.01,2,1.47,.02,.02,.07,0,.11-.02-.11-.35-.42-.66-1.28-1.23-.24-.16-.47-.4-.83-.23h0Z"/><path class="cls-1" d="M14.15,3.4c0-.27-.2-.5-.44-.51-.25-.01-.45,.21-.43,.49,.02,.28,.22,.49,.46,.47,.24-.02,.42-.21,.41-.45h0Z"/><path class="cls-1" d="M8.78,9.08c0-.27-.2-.49-.45-.48-.21,0-.39,.19-.4,.39,0,.24,.21,.47,.46,.48,.21,0,.38-.17,.38-.39h0Z"/><path class="cls-1" d="M17.09,5.19c-.37-.52-.94-.86-1.51-.97,.09,.18,.08,.19,.71,.56,.26,.15,.49,.35,.8,.41h0Z"/><path class="cls-1" d="M11.24,8.37c.19-.01,.33-.19,.31-.37-.02-.19-.19-.33-.38-.3-.17,.02-.28,.16-.28,.34,0,.2,.16,.35,.34,.34h0Z"/><path class="cls-1" d="M15.18,4.93c.41,.32,.81,.49,1.26,.71-.01-.29-.21-.35-.35-.44-.25-.15-.5-.35-.91-.28h0Z"/><path class="cls-1" d="M17.33,6.06c-.17,0-.31,.13-.31,.31,0,.18,.13,.32,.31,.3,.17-.01,.26-.12,.28-.27,.02-.17-.11-.33-.27-.34h0Z"/><path class="cls-1" d="M6.03,6.2c.01-.18-.11-.33-.28-.33-.14,0-.23,.08-.25,.22-.03,.16,.11,.32,.28,.33,.12,0,.24-.09,.25-.21h0Z"/><path class="cls-1" d="M16.34,11.81s-.04,.06-.06,.09c.02,0,.03,.03,.05,.03,.05,0,.07-.03,.06-.08l-.04-.03h0Zm-.59-.1c.11-.11,.23-.18,.27-.35-.47-.39-1.14-.4-1.68-.8,.67-.04,1.82,.41,2.5,.94,0,.13,.04,.27,.03,.41-.04,.42-.53,.66-.82,.38-.5-.48-1.14-.65-1.74-.91-.11-.05-.25-.04-.33-.28,.68,0,1.19,.4,1.77,.6h0Z"/><path class="cls-1" d="M15.23,10.16c.44,.27,.92,.33,1.31,.57,.39,.24,.8,.46,1.23,.65-.15-.44-.56-.59-.9-.79-.79-.48-1.11-.55-1.64-.43h0Z"/><path class="cls-1" d="M5.4,23.41c.01-.23-.15-.4-.42-.43-.29-.03-.48,.13-.5,.4-.02,.28,.15,.5,.4,.52,.27,.02,.5-.2,.52-.49h0Z"/><path class="cls-1" d="M12.58,15.34c.02-.23-.18-.44-.41-.45-.19,0-.35,.14-.37,.34-.02,.24,.17,.45,.4,.45,.19,0,.36-.15,.37-.34h0Z"/><path class="cls-1" d="M14.23,12.93c.34-.19,.41-.32,.32-.55-.09-.2-.31-.29-.5-.21-.2,.09-.26,.3-.14,.51,.06,.11,.14,.2,.32,.24h0Z"/><path class="cls-1" d="M9.98,20.25c0-.17-.15-.32-.31-.32-.13,0-.26,.14-.26,.29,0,.18,.14,.32,.31,.31,.15,0,.27-.14,.26-.29h0Z"/><path class="cls-1" d="M4.88,18.71c-.01-.17-.18-.32-.33-.29-.13,.03-.23,.18-.2,.33,.03,.16,.12,.26,.29,.26,.14,0,.25-.15,.24-.3h0Z"/><path class="cls-1" d="M5.01,22.18c0-.14-.15-.27-.29-.24-.13,.03-.22,.11-.22,.25,0,.14,.15,.27,.29,.24,.14-.02,.21-.11,.22-.25h0Z"/><path class="cls-1" d="M14.69,11.96c-.33-.24-.58-.29-.86-.34q.17,.26,.86,.34h0Z"/><path class="cls-1" d="M27.12,2.24c.18,.21,.4,.26,.66,.21,.88-.18,1.71-.06,2.51,.38,.48,.27,.97,.56,1.52,.68,.1,.02,.19,.08,.27,.15,.61,.57,1.46,.77,2.09,1.3,.02,.02,.08,0,.12,0,.1-.13,.02-.23-.06-.33-.2-.24-.46-.41-.73-.56-.16-.09-.36-.13-.5-.25-.76-.67-1.76-.87-2.6-1.39-.85-.51-1.77-.64-2.74-.4-.13,.03-.48,.15-.54,.2h0Z"/><path class="cls-1" d="M29.62,3.58c1.23,.53,1.89,.84,3.41,2.76,.1-.03,.13-.1,.11-.19-.05-.21-.17-.37-.3-.53-.55-.67-1.17-1.27-1.9-1.76-.31-.21-.64-.37-1.02-.41-.1-.01-.21-.02-.29,.14h0Z"/><path class="cls-1" d="M32.32,6.68c.02-.47-.27-.66-.46-.89-.74-.91-1.24-1.27-1.88-1.38,.12,.3,.4,.36,.58,.52,.2,.18,.41,.35,.6,.53,.19,.19,.37,.39,.55,.59,.18,.19,.32,.42,.6,.64h0Z"/><path class="cls-1" d="M31.63,6.86c-.23-.48-.66-.78-1.06-1.1-.06-.05-.06-.04-.37,0,.46,.41,.89,.8,1.33,1.19l.11-.09h0Z"/><path class="cls-1" d="M30.02,6.55c.36,.41,.72,.64,1.14,.92,.02-.31-.17-.42-.32-.53-.21-.16-.4-.4-.82-.39h0Z"/></g></g></svg>