<?xml version="1.0" encoding="UTF-8"?><svg id="Calque_2" xmlns="http://www.w3.org/2000/svg" viewBox="0 0 49.01 26.12"><defs><style>.cls-1{fill:#1d1d1b;}</style></defs><g id="Calque_1-2"><g><path class="cls-1" d="M10,13.53v.05l.06-.02-.06-.03h0ZM1.53,11.37c.79,.37,1.47,.76,2.33,.65-1.28-.64-1.65-.75-2.33-.65h0Zm14.8,3.39c.44,.13,.82-.07,1.17-.26,1.19-.67,2.37-1.37,3.56-2.07,.04-.02,.06-.08,.08-.13-.02-.11-.07-.19-.25-.21-.38,.22-.81,.46-1.22,.72-1.08,.69-2.09,1.51-3.33,1.94h0Zm5.25-1.69c-.44,.17-.87,.45-1.31,.72-.84,.52-1.69,1.02-2.57,1.46-.48,.23-.97,.34-1.51,.3-.21-.02-.44-.08-.72,.03,.38,.31,.74,.39,1.14,.3,.51-.11,1-.27,1.46-.53,.88-.5,1.77-.98,2.66-1.46,.36-.19,.73-.36,1.08-.53,0-.17-.06-.24-.23-.29h0Zm4.17,6.4c-.22-.04-.35,.04-.5,.1-1.44,.52-2.86,1.11-4.34,1.54-1,.29-1.97,.66-2.93,1.07-.69,.3-1.34,.33-2.04,.11-1.49-.47-2.99-.91-4.48-1.36-.62-.19-1.26-.34-1.86-.58-1.26-.51-2.58-.8-3.88-1.18-.8-.23-1.61-.41-2.42-.6-.1-.02-.25-.11-.32,.12,.22,.07,.44,.15,.66,.21,.98,.27,1.97,.51,2.93,.81,1.61,.5,3.26,.89,4.86,1.45,1.08,.38,2.19,.67,3.29,.96,.45,.12,.91,.2,1.34,.41,.31,.16,.66,.26,.98,.17,.72-.22,1.49-.24,2.19-.53,1.83-.77,3.71-1.37,5.63-1.83,.33-.08,.65-.18,.93-.38,.06-.04,.08-.12,.11-.17,0-.14-.06-.22-.17-.3h0ZM1.56,15.71c.17,.49,.47,.54,.73,.61,.9,.25,1.81,.47,2.72,.72,1.84,.49,3.68,.93,5.48,1.55,1.87,.64,3.75,1.27,5.61,1.92,.62,.22,1.16,.16,1.71-.19,.76-.48,1.58-.8,2.45-.99,1.41-.32,2.71-.9,4-1.53,.11-.05,.25-.1,.19-.31-.26-.08-.49,.08-.72,.16-.66,.24-1.31,.52-1.97,.74-1.56,.51-3.13,.97-4.62,1.66-.36,.17-.73,.19-1.14,.08-1.27-.37-2.46-1-3.74-1.34-.12-.03-.24-.11-.36-.15-1.15-.42-2.29-.85-3.48-1.16-1.46-.38-2.92-.75-4.38-1.13-.77-.2-1.55-.4-2.47-.65h0Zm22.07,.64c-.53,.17-1.03,.4-1.52,.64-.7,.34-1.42,.66-2.18,.85-.53,.13-1.04,.32-1.54,.54-.99,.42-2,.78-3.07,.22-.04-.02-.1-.04-.15-.04-.77-.06-1.46-.38-2.13-.74-.79-.42-1.61-.72-2.46-.99-.85-.26-1.69-.53-2.53-.8-1.42-.45-2.86-.8-4.31-1.1-.81-.17-1.63-.32-2.31-.8-.26,.13-.5,.22-.69,.46,.18,.16,.37,.21,.57,.25,.33,.07,.66,.15,.99,.23,2.01,.52,4.02,1.07,6.05,1.56,1.3,.31,2.53,.78,3.79,1.22,1.27,.45,2.54,.92,3.81,1.38,.1,.04,.19,.08,.3,.1,.29,.06,.57,.06,.84-.08,1.33-.68,2.77-1.07,4.17-1.54,.84-.28,1.66-.62,2.48-.94,.06-.02,.1-.1,.14-.14-.01-.14-.07-.22-.24-.3h0ZM.9,8.99c.11,.17,.26,.21,.41,.26,.92,.3,1.84,.59,2.78,.77,1.51,.29,3.01,.61,4.47,1.09,1.58,.52,3.19,.96,4.68,1.73,.67,.35,1.38,.6,2.08,.89,.24,.1,.49,.22,.75,.13,.51-.18,1.06-.29,1.51-.63,.77-.58,1.58-1.1,2.41-1.6,.2-.12,.42-.22,.49-.5-.03-.25-.19-.46-.33-.68-.38-.59-.76-1.18-1.15-1.77-.5-.76-.41-1.34,.33-1.89,.42-.31,.88-.56,1.36-.75,.68-.27,1.39-.44,2.11-.57,1.23-.23,2.42-.63,3.6-1.02,.07-.02,.12-.09,.23-.18-.49-.15-.94-.28-1.38-.43-3.16-1.06-6.34-2.06-9.55-2.93-.45-.12-.88-.12-1.3,.07-.45,.21-.91,.41-1.33,.66-2.13,1.31-4.39,2.39-6.53,3.68-.11,.07-.23,.12-.35,.18-1.46,.86-2.92,1.71-4.38,2.57-.38,.22-.74,.48-.93,.89H.9Zm47.19,7.88c0-.15-.08-.26-.16-.36-.59-.77-1.18-1.52-1.87-2.21-.48-.48-.92-.99-1.31-1.55-1-1.4-2.12-2.71-3.35-3.91-.75-.73-1.45-1.51-2.02-2.38-.72-1.1-1.68-1.99-2.48-3.02-.39-.5-.96-.69-1.61-.51-.5,.13-1.02,.24-1.53,.32-.62,.1-1.22,.27-1.8,.5-1.31,.51-2.66,.91-4.03,1.24-.53,.13-1.07,.25-1.58,.43-1.33,.46-2.69,.82-4.08,1.07-.8,.14-1.56,.41-2.27,.83-.24,.14-.53,.25-.57,.63,.37,.51,.76,1.03,1.14,1.56,1.69,2.38,3.1,4.94,4.66,7.41,.88,1.39,1.78,2.76,2.67,4.14,.86,1.33,1.96,2.5,2.73,3.9,.02,.04,.09,.05,.13,.07,.16,.02,.31-.05,.45-.12,.67-.36,1.39-.58,2.13-.73,.54-.11,1.04-.34,1.51-.63,.75-.47,1.52-.92,2.25-1.41,1.22-.81,2.53-1.45,3.91-1.95,2.18-.79,4.35-1.61,6.38-2.75,.27-.15,.58-.25,.71-.56h0Zm-30.41-.43c-.18,.03-.37,.03-.54,.08-.71,.22-1.36,.1-2.04-.2-1.14-.5-2.32-.94-3.49-1.36-.86-.31-1.7-.67-2.59-.86-1.55-.34-3.1-.71-4.62-1.16-.17-.05-.36-.08-.54-.1-.68-.08-1.34-.2-1.95-.52-.13-.07-.29-.13-.42,.03-.02,.15,.07,.25,.2,.29,.34,.12,.68,.26,1.04,.34,1.26,.3,2.55,.48,3.8,.87,1.34,.42,2.71,.76,4.07,1.12,.78,.21,1.54,.47,2.27,.83,.91,.46,1.89,.74,2.84,1.1,.24,.09,.52,.16,.76,.05,.4-.19,.86-.23,1.21-.51,.3,.03,.56-.11,.81-.22,1.32-.59,2.64-1.19,3.96-1.79,.04-.02,.05-.08,.08-.12-.01-.11-.05-.2-.29-.27-1.55,.62-3.04,1.53-4.56,2.4h0Zm-1.56,5c-.13-.14-.31-.14-.48-.15-.48-.34-1.06-.4-1.6-.59-1.47-.53-2.94-1.06-4.43-1.53-2.46-.77-4.96-1.4-7.46-2.04-.06-.02-.14,.03-.2,.05-.03,.17,.05,.26,.18,.33,.21,.11,.45,.14,.68,.17,2.04,.34,4.01,.93,5.97,1.54,1.17,.36,2.32,.78,3.5,1.12,.9,.25,1.82,.47,2.69,.83,.22,.09,.45,.11,.69,.11,.13,.14,.31,.14,.48,.15,.43,.33,.9,.36,1.39,.18,.29-.11,.58-.23,.88-.33,1.13-.41,2.21-.91,3.36-1.26,1.12-.34,2.2-.8,3.3-1.22,.06-.02,.11-.1,.15-.14-.01-.17-.08-.27-.3-.3-.34,.16-.74,.35-1.14,.53-1,.45-2.01,.89-3.08,1.12-.82,.18-1.59,.48-2.35,.84-.26,.12-.53,.22-.78,.36-.46,.25-.94,.3-1.44,.23h0Zm-3.6-7.98s.04,.13,.11,.05c-.04-.01-.08-.02-.12-.04-.3-.27-.67-.4-1.03-.53-.54-.2-1.09-.35-1.62-.55-2.66-1-5.5-1.36-8.18-2.28-.12-.04-.26-.04-.28,.15,.1,.14,.25,.18,.4,.22,.61,.14,1.2,.34,1.78,.57,.22,.09,.44,.15,.67,.19,2.34,.37,4.61,1.01,6.84,1.83,.46,.17,.92,.35,1.42,.39h0Zm-3.28-.16c.08,.07,.15,.16,.31,.03h-.32c-.09-.16-.26-.2-.4-.23-1.26-.33-2.52-.66-3.78-.98-.18-.05-.38-.07-.69,.02,.78,.22,1.45,.45,2.13,.6,.92,.19,1.8,.53,2.75,.56h0Zm-2.66,1.41c.34,.21,.71,.31,1.11,.31,.84,.43,1.75,.65,2.64,.91,1,.3,2.01,.57,2.91,1.11,.92,.55,1.95,.69,2.95,.97,.3,.08,.61,.08,.92-.05,.38-.16,.77-.3,1.16-.45,.32-.12,.62-.28,.95-.35,1.38-.31,2.63-.97,3.91-1.54,.04-.02,.05-.08,.07-.13-.03-.13-.06-.25-.23-.34-.65,.16-1.29,.44-1.91,.77-1.39,.72-2.83,1.31-4.33,1.74-.41,.12-.84,.12-1.23-.02-.91-.32-1.82-.64-2.69-1.05-.9-.42-1.82-.77-2.79-.98-.79-.18-1.53-.5-2.34-.57-.33-.24-.71-.3-1.11-.31-1.39-.6-2.86-.83-4.34-1,.03,.04,.05,.11,.08,.12,1.42,.29,2.85,.58,4.27,.87h0Zm4.07-.93s-.04-.12-.12-.05l.13,.03c.14,.12,.3,.14,.47,.15,.12,.15,.3,.15,.47,.16,.12,.16,.3,.15,.47,.16,.12,.15,.29,.16,.47,.16,.46,.36,.97,.58,1.56,.63,.04,.02,.05,.14,.13,.04l-.14-.03c-.44-.39-.99-.53-1.56-.63-.12-.15-.3-.14-.47-.16-.13-.14-.3-.13-.47-.16-.14-.11-.31-.12-.47-.16-.14-.11-.31-.12-.47-.15h0Zm15.95,6.94c-.64,.29-1.26,.4-1.86,.56-.43,.11-.86,.23-1.26,.41-1.17,.53-2.41,.84-3.63,1.2-.63,.18-1.24,.39-1.83,.68-.61,.3-1.19,.3-1.8,0-.89-.45-1.86-.69-2.81-.93-1.77-.44-3.52-.95-5.23-1.56-1.16-.41-2.37-.6-3.57-.82-.54-.1-1.06-.26-1.57-.44-.56-.19-.88-.54-.84-1.16,0-.08-.01-.15-.03-.28-.59-.37-1.16-.79-.92-1.62-.12-.22-.24-.4-.3-.59-.06-.17-.05-.36-.08-.57-.12-.07-.26-.14-.38-.23-.61-.42-.64-.98-.08-1.49,.23-.21,.54-.32,.75-.62-.09-.22-.33-.38-.35-.65-.02-.25,.1-.45,.17-.67,.1-.3-.13-.62,.09-.87q-.34-.6-.32-1.29s-.06-.09-.1-.12c-.62-.5-.66-.78-.2-1.42,.35-.48,.82-.8,1.31-1.09,1.36-.81,2.74-1.61,4.11-2.41,.58-.34,1.19-.65,1.75-1.03,.59-.39,1.26-.62,1.87-.97,1.04-.6,2.07-1.21,3.11-1.8,.5-.28,1.02-.53,1.54-.76,.59-.26,1.2-.23,1.83-.08,1.82,.44,3.6,1.05,5.39,1.61,1.91,.6,3.81,1.25,5.71,1.9,.29,.1,.56,.26,.89,.42,.68-.11,1.37-.33,2.06-.54,.37-.11,.75-.23,1.11-.39,1.32-.6,2.76-.75,4.15-1.07,.87-.2,1.63,.11,2.16,.79,.75,.97,1.67,1.79,2.35,2.82,.85,1.29,1.95,2.37,3.04,3.45,.95,.94,1.76,1.99,2.55,3.06,.42,.57,.87,1.1,1.36,1.61,.64,.66,1.24,1.34,1.75,2.1,.15,.21,.28,.44,.39,.67,.24,.56,.12,1.14-.42,1.43-.82,.44-1.56,1.04-2.47,1.33-.63,.2-1.15,.61-1.74,.88-.95,.44-1.93,.78-2.93,1.09-1.13,.35-2.19,.83-3.17,1.49-.69,.47-1.39,.93-2.11,1.33-.94,.52-1.92,.94-2.98,1.12-.52,.08-.99,.25-1.43,.56-.88,.61-1.74,.36-2.13-.65-.3-.77-.76-1.42-1.23-2.07-.55-.76-1.1-1.52-1.69-2.33h0Z"/><path class="cls-1" d="M45.67,17.32c-.12,.33-.4,.48-.67,.63-1.05,.59-2.11,1.12-3.29,1.4-1.25,.29-2.4,.86-3.48,1.56-.76,.5-1.55,.96-2.33,1.43-.33,.2-.69,.36-1.07,.48-.57,.18-1.14,.36-1.7,.58-.54,.21-1.07,.17-1.62,.1-.12-.02-.25-.09-.25-.25,.09-.21,.26-.13,.4-.11,.52,.07,.98-.04,1.4-.35,.32-.23,.68-.38,1.05-.5,.52-.17,1-.43,1.47-.72,.84-.52,1.67-1.06,2.53-1.55,1.02-.59,2.08-1.08,3.26-1.26,1.12-.17,2.16-.59,3.17-1.06,.35-.16,.69-.35,1.1-.37h0Z"/><path class="cls-1" d="M29.54,17.18c-.02,.34,.12,.54,.24,.74,.51,.82,1.74,.95,2.43,.26,.43-.43,.42-1.06-.02-1.45-.6-.52-1.64-.53-2.23,0-.15,.14-.28,.3-.42,.45h0Zm1.38-1.58c.52,0,1,.11,1.44,.35,1.04,.55,1.44,2.03,.14,2.93-1.25,.87-2.91,.36-3.52-1.04-.21-.48-.16-.9,.17-1.3,.47-.57,1.01-.97,1.77-.94h0Z"/><path class="cls-1" d="M26.82,14.75c.74,.16,.79,.13,.92-.39-.66-.2-.72-.17-.92,.39h0Zm.38,.66c-.07-.01-.23-.03-.38-.08-.41-.14-.6-.36-.6-.72,0-.39,.15-.71,.52-.88,.42-.2,.85-.2,1.27,.02,.44,.23,.55,.6,.34,1.04-.2,.42-.56,.62-1.15,.61h0Z"/><path class="cls-1" d="M22.94,11.97c-.47-.23-.49-.57-.55-.85-.1-.49-.07-.99-.04-1.48,.05-.76,.24-1.49,.54-2.19,.04-.09,.11-.17,.18-.25,.01-.01,.05,0,.14,0,.04,.52-.19,.99-.27,1.48-.09,.54-.15,1.09-.13,1.63,.02,.51,.07,1.02,.12,1.66h0Z"/><path class="cls-1" d="M23.95,8.34c.05,.08,.1,.13,.09,.17-.16,1.18-.25,2.36-.27,3.55,0,.04-.06,.08-.09,.12-.16,.04-.23-.07-.27-.2,0-.02-.02-.05-.02-.08-.07-1.19-.02-2.37,.44-3.5,0-.02,.04-.02,.12-.06h0Z"/><path class="cls-1" d="M21.91,10.5c-.43-.5-.51-.71-.45-1.4,.06-.7,.09-1.43,.71-2.07,.16,.67-.22,1.17-.22,1.71,0,.54-.02,1.07-.04,1.76h0Z"/><path class="cls-1" d="M44.12,14.96c.17,.27,.02,.41-.09,.54-.53,.62-1.13,1.14-1.8,1.61-.24,.17-.51,.36-.91,.08,1.11-.57,1.92-1.42,2.8-2.23h0Z"/><path class="cls-1" d="M24.79,9.81c.14,.19,.12,.35,.11,.5-.07,.66-.15,1.31-.22,1.96-.15,.04-.25,.02-.29-.09-.19-.57,.02-1.81,.41-2.36h0Z"/><path class="cls-1" d="M21.18,9.29c-.52-.27-.49-.61-.46-.93,.04-.36,.04-.76,.53-.98-.01,.64-.17,1.21-.07,1.92h0Z"/><path class="cls-1" d="M25.59,12.21c-.35-.57-.15-1.09,0-1.66,.27,.45,.27,1.06,0,1.66h0Z"/><path class="cls-1" d="M42.74,14.48c-.19,.58-.58,.97-1.06,1.27-.11,.07-.24,.09-.35-.12,.5-.34,.83-.89,1.41-1.15h0Z"/><path class="cls-1" d="M26.49,12.42c-.35-.46-.16-.82-.11-1.17,.26-.03,.27,.11,.27,.23,0,.27,.03,.56-.16,.94h0Z"/><path class="cls-1" d="M40.58,13.24c.2-.46,.47-.64,.76-.79,.04,.06,.1,.11,.09,.13-.13,.32-.34,.54-.85,.66h0Z"/><path class="cls-1" d="M41.19,11.61c-.17,.46-.37,.61-.76,.6,.09-.38,.35-.46,.76-.6h0Z"/><path class="cls-1" d="M41.24,13.97q.26-.44,.64-.64c.01,.38-.24,.47-.64,.64h0Z"/><path class="cls-1" d="M16.26,12.48c.03,.22-.1,.31-.24,.38-.22,.09-.45,.1-.69,.07-.68-.09-1.33-.25-1.93-.58-1.81-.96-3.73-1.59-5.72-2.02-.68-.15-1.35-.39-2.02-.59-.14-.04-.31-.07-.35-.31,.35-.12,.7-.06,1.04,.04,.65,.2,1.31,.34,1.97,.45,1.68,.29,3.28,.83,4.82,1.55,.83,.39,1.66,.74,2.59,.8,.2,.01,.42,.02,.54,.21h0Z"/><path class="cls-1" d="M17.85,3.13c-.41-.55-.92-.63-1.49-.57-.28,.03-.49,.17-.5,.49,.62,.45,1.39,.5,1.98,.08h0Zm-1.17-1.14c.43,.01,.87,.04,1.26,.28,.25,.16,.46,.34,.54,.64,.13,.47-.13,.95-.64,1.08-.7,.18-1.4,.09-2.06-.15-.46-.17-.66-.52-.62-.89,.04-.44,.37-.83,.81-.94,.23-.06,.46-.07,.71-.03h0Z"/><path class="cls-1" d="M11,4.91q.55,.26,.8-.04c-.24-.17-.47-.15-.8,.04h0Zm.48,.78c-.24,0-.59-.12-.9-.3-.38-.22-.42-.7-.06-.98,.39-.3,.85-.39,1.33-.26,.48,.13,.75,.5,.7,.9-.05,.39-.41,.64-1.07,.64h0Z"/></g></g></svg>