<?xml version="1.0" encoding="UTF-8"?><svg id="Calque_2" xmlns="http://www.w3.org/2000/svg" viewBox="0 0 31.94 23.98"><defs><style>.cls-1{fill:#1d1d1b;}</style></defs><g id="Calque_1-2"><g><path class="cls-1" d="M29.08,19.27c.1-.16,.08-.28,.06-.41-.02-.18-.06-.37-.04-.55,.06-.59-.02-1.17-.13-1.75-.24-1.3-.2-2.59,.04-3.88,.06-.33,.08-.65-.05-.97-.17-.4-.19-.82-.1-1.24,.05-.25,.08-.51,.03-.76-.06-.33-.25-.58-.56-.59-.51-.02-.96-.22-1.45-.31-1.18-.22-2.32-.55-3.41-1.04-.22-.1-.44-.18-.67-.25-.43-.15-.88-.27-1.34-.28-.87-.01-1.71-.2-2.52-.5-.59-.21-1.19-.38-1.81-.44-.09,0-.18-.05-.27,.06,.1,.19,.29,.31,.45,.45,.88,.72,1.75,1.45,2.43,2.38,.16,.22,.37,.41,.6,.56,.54,.36,1.02,.78,1.52,1.18,.24,.19,.49,.39,.77,.54,.46,.26,.73,.65,.85,1.16,.07,.31,.1,.62,.08,.93-.01,.29,0,.58,.02,.88,.07,.79,.11,1.57,.03,2.36-.01,.11-.03,.22,.07,.37,.4,.05,.8,.22,1.17,.46,.37,.24,.78,.4,1.18,.58,.84,.37,1.74,.57,2.56,1.01,.15,.08,.31,.1,.49,.04h0ZM2.03,10.99c-.3,.35-.56,.72-.81,1.11-.14,.22-.21,.46-.19,.73,.04,.61-.04,1.21-.19,1.8-.08,.3-.13,.61-.15,.92-.05,1.09,.24,2.07,.98,2.89,.77,.86,1.67,1.54,2.73,2.01,.49,.21,.98,.43,1.43,.72,1.01,.64,2.12,.98,3.31,1.12,1.31,.15,2.62,.36,3.89,.74,.65,.2,1.33,.26,2.02,.22,.9-.05,1.8-.09,2.69-.12,.35-.01,.7-.06,1.02-.2,.57-.25,1.16-.31,1.78-.26,.6,.04,1.17-.07,1.72-.29,.48-.19,.8-.51,.79-1.07,0-.2,0-.4,0-.6-.02-1.17-.15-2.34-.12-3.52,.01-.59,.11-1.17,.07-1.76-.05-.71-.08-1.43-.02-2.14,.05-.54-.14-1.01-.67-1.28-.26-.13-.49-.32-.73-.49-.52-.38-1.03-.77-1.55-1.15-.39-.28-.73-.61-1.02-1-.42-.56-.88-1.07-1.41-1.54-.34-.3-.65-.65-.97-.98-.16-.17-.3-.37-.51-.5-.15-.09-.24-.23-.18-.42,.06-.21,.22-.29,.41-.3,.16-.01,.33,0,.49,0,.95,.02,1.84,.31,2.73,.61,.54,.18,1.1,.3,1.67,.3,.63,0,1.25,.12,1.83,.36,1.25,.54,2.53,.98,3.83,1.37,.07,.02,.14,.05,.21,.08,.39,.16,.79,.29,1.23,.27,.2,0,.4,.06,.57,.18,.19,.13,.34,.29,.36,.53,.03,.46,.12,.91,.03,1.37-.05,.25-.06,.51,.07,.75,.23,.47,.22,.94,.13,1.45-.21,1.16-.24,2.33-.07,3.51,.09,.65,.25,1.3,.14,1.97-.02,.13-.01,.29,.13,.39,.27-.24,.55-.46,.78-.71,.32-.36,.59-.77,.6-1.26,.02-.48,0-.96-.04-1.43-.08-.95-.1-1.9-.08-2.86,.03-1.6,.27-3.18,.28-4.78,0-.68-.04-1.29-.37-1.89-.2-.36-.42-.69-.75-.93-.3-.22-.59-.43-.9-.64-.43-.29-.87-.54-1.35-.73-.48-.18-.94-.4-1.37-.69-.77-.51-1.59-.91-2.5-1.11-.45-.1-.88-.27-1.32-.4-.28-.08-.56-.18-.85-.23-2.19-.44-4.41-.51-6.63-.28-.75,.08-1.5,.15-2.25,.1-1.96-.13-3.83,.29-5.67,.91-.4,.14-.8,.26-1.22,.34-1.24,.26-2.39,.73-3.42,1.46-.85,.61-1.52,1.37-1.85,2.4,.12,.15,.24,.28,.28,.47,.05,.31,.23,.53,.49,.7,.31,.21,.55,.49,.71,.83,.14,.29,.35,.51,.58,.73,.76,.7,1.6,1.29,2.49,1.81,1.44,.84,3.02,1.22,4.67,1.3,.37,.02,.73,.06,1.04,.29,.28,.2,.6,.27,.93,.28,.44,.02,.88,.04,1.32,.07,.4,.03,.81,.02,1.21-.03,.37-.05,.73-.06,1.1,0,1.07,.19,2.16,.17,3.24,.16,.15,0,.3,0,.44-.04,.8-.24,1.64-.2,2.45-.31,.3-.04,.59,0,.82,.23,.07,.07,.09,.15,0,.27-.28,.01-.59-.15-.89-.02-.1,.04-.21,.07-.32,.07-.59,.02-1.16,.13-1.73,.29-.19,.05-.4,.1-.59,.1-.79,0-1.58,.05-2.36-.02-.97-.1-1.93-.15-2.91-.11-.73,.03-1.46-.08-2.2-.12-.25-.01-.47-.1-.67-.24-.28-.2-.6-.25-.94-.26-1.72-.03-3.34-.45-4.85-1.28-.74-.41-1.44-.89-2.09-1.42-.57-.46-1.14-.93-1.44-1.64-.05-.12-.14-.22-.22-.31-.1-.11-.21-.21-.31-.32-.09-.09-.17-.19-.24-.3-.07-.11-.11-.23-.18-.37-.16,.33-.12,.63-.08,.92,.11,.84,.24,1.67,.37,2.5,.01,.09-.03,.23,.13,.26,.32-.31,.51-.75,.96-.98,.02,.22-.1,.31-.18,.42-.21,.3-.43,.59-.65,.89-.19,.27-.24,.56-.14,.92,.35-.27,.49-.7,.85-.89,.1,.03,.12,.07,.14,.13h0Zm21.6,6.86c-.11,.33-.01,.64-.01,.94,0,.59,.03,1.17,.06,1.76,.03,.45-.05,.88-.13,1.31-.12,.62-.55,.98-1.12,1.19-.62,.23-1.27,.36-1.94,.31-.5-.04-.98,.05-1.46,.22-.42,.15-.84,.24-1.29,.26-.92,.04-1.83,.09-2.75,.13-.8,.04-1.58-.07-2.34-.3-1.11-.33-2.26-.5-3.4-.66-.33-.05-.65-.09-.98-.15-.82-.14-1.6-.41-2.32-.82-.65-.37-1.32-.73-2.01-1.03-1.09-.48-2.02-1.2-2.79-2.1C.17,17.71-.23,16.32,.13,14.8c.35-1.48,.26-2.96,.12-4.43C.13,9.2,.02,8.03,0,6.86c-.01-1.11,.47-2.02,1.18-2.83,1.01-1.15,2.32-1.86,3.77-2.27,1.18-.33,2.36-.68,3.54-1.03,1.46-.43,2.95-.58,4.46-.5,.72,.03,1.43,0,2.14-.1,1.17-.16,2.34-.12,3.52-.1,1.16,.02,2.31,.16,3.44,.4,.23,.05,.46,.12,.69,.19,.49,.15,.97,.34,1.47,.45,.98,.23,1.86,.67,2.7,1.21,.42,.27,.86,.48,1.31,.69,.5,.23,.99,.47,1.38,.88,.19,.2,.44,.33,.69,.45,.58,.3,1,.74,1.23,1.35,.04,.1,.08,.21,.14,.3,.29,.38,.28,.81,.27,1.26-.04,1.61-.19,3.22-.28,4.83-.06,1.01-.05,2.02,.03,3.02,.05,.64,.03,1.29-.03,1.92-.06,.62-.36,1.16-.82,1.58-.45,.41-.92,.79-1.39,1.17-.33,.26-.7,.34-1.08,.15-.61-.29-1.26-.49-1.9-.74-.75-.29-1.49-.61-2.18-1.05-.2-.13-.4-.26-.66-.24h0Z"/><path class="cls-1" d="M2.03,11c.09-.08,.11-.25,.3-.22,.16,.04,.19,.2,.21,.34,.09,.56,.46,.85,.96,1.03,.17,.06,.34,.13,.5,.19,.4,.05,.76-.33,1.18-.07,0,.58-.52,.48-.84,.67-.18,.43-.03,.8,.29,1.12,.26,.26,.53,.51,.75,.8,.13,.18,.26,.36,.18,.59-.14,.1-.26,.05-.36-.04-.39-.36-.78-.72-1.16-1.1-.24-.24-.36-.55-.39-.89-.02-.16-.02-.33-.03-.48-.14-.17-.32-.19-.5-.23-.2,.21-.33,.45-.49,.73,.23,.05,.49-.19,.63,.11,.02,.15-.08,.24-.18,.32-.15,.13-.31,.26-.46,.4-.35,.32-.57,.71-.62,1.19-.02,.21,0,.44-.2,.63-.29-.05-.34-.29-.36-.52-.05-.5,.1-.94,.4-1.34,.39-.51,.59-1.13,.99-1.59-.08-.2-.19-.25-.34-.29-.31,.23-.4,.63-.65,.91-.15-.04-.1-.14-.08-.22,.1-.28,.28-.51,.45-.76,.09-.14,.12-.26-.08-.38-.37,.32-.54,.81-.86,1.18-.17-.16-.07-.3,0-.42,.19-.31,.4-.61,.62-.91,.17-.24,.25-.49,.14-.77h0Z"/><path class="cls-1" d="M19.81,19.63c.12-.09,.25-.18,.41-.3-.17,.47-.32,.67-1.21,1.51-.39,.37-.76,.78-1.36,1.01,.11-.37,.47-.42,.61-.72-.21-.02-.44,.14-.6-.08-.05-.12,0-.21,.1-.28,.15-.11,.31-.2,.46-.3,.77-.56,1.31-1.28,1.48-2.23,.07-.41,.27-.71,.62-.92,.06-.04,.12-.08,.18-.12,.54-.37,.65-.68,.47-1.31-.03-.1-.09-.2-.04-.37,.24-.15,.49-.36,.73-.59,.23-.22,.46-.45,.79-.56-.23,.5-.79,.71-1.03,1.17,.02,.14,.08,.22,.21,.27,.26-.14,.41-.44,.7-.58,.07,.19-.06,.26-.13,.35-.12,.14-.25,.27-.38,.39-.14,.13-.22,.28-.23,.48-.03,.56-.3,.97-.79,1.24-.33,.18-.53,.44-.56,.82-.04,.41-.32,.73-.42,1.12-.13,.06-.19,.19-.26,.3v0c.12-.07,.23-.15,.27-.29h0Z"/><path class="cls-1" d="M29.87,14.8c-.18-.25-.2-.47-.2-.69-.02-.42,0-.85,.08-1.26,.08-.45,.05-.88-.18-1.28-.15-.25-.15-.52-.11-.8,.02-.15,.05-.29,.09-.43,.12-.43,.07-.84-.16-1.22-.06-.09-.12-.19-.11-.34,.02-.03,.05-.11,.1-.15,.73-.58,1.28-1.26,1.35-2.23,.32,.08,.47,.25,.41,.54-.08,.39-.19,.78-.49,1.09-.28,.29-.55,.59-.85,.79-.01,.07-.02,.09-.02,.1,.29,.57,.26,1.17,.13,1.77-.06,.26-.03,.51,.11,.74,.23,.38,.27,.79,.17,1.22-.1,.43-.15,.87-.15,1.31,0,.25-.02,.51-.17,.83h0Z"/><path class="cls-1" d="M18.08,14.33c.03,.45-.44,.61-.5,.99,.42,.21,.87-.07,1.3,.09,.02,.31-.19,.4-.4,.45-.21,.05-.44,.04-.65,.04-.16,0-.33-.03-.49-.05-.21,.15-.2,.39-.26,.59-.1,.3-.22,.58-.49,.77-.32,.23-.64,.35-1.04,.06-.59,.72-1.28,1.35-1.74,2.17-.16-.09-.11-.2-.07-.3,.1-.24,.25-.45,.42-.64,.35-.4,.71-.79,1.07-1.18,.1-.11,.21-.2,.35-.25,.56-.2,.9-.57,1.02-1.17,.11-.58,.46-1.03,.9-1.4,.2-.17,.21-.17,.59-.16h0Z"/><path class="cls-1" d="M8.18,14.15c.2-.06,.29,.05,.36,.19,.14,.28,.29,.55,.49,.8,.18,.22,.39,.38,.67,.44,.2,.04,.39,.11,.58,.16,.4,.1,.76,.27,1,.63,.14,.2,.36,.31,.57,.42,.41,.21,.82,.4,1.19,.59,.19,.02,.26-.21,.48-.12-.38,.5-.82,.95-1.02,1.56-.16-.36,.13-.61,.19-.92-.37-.18-.73-.35-1.09-.53-.35-.18-.67-.39-.83-.77-.07-.16-.21-.25-.37-.31-.21-.07-.42-.15-.63-.19-.89-.16-1.32-.79-1.63-1.55-.05-.12-.08-.24,.03-.4h0Z"/><path class="cls-1" d="M9.05,17.96c.66-.83,.82-.91,1.16-.63,.01,.12-.05,.21-.13,.29-.39,.36-.61,.82-.78,1.31-.11,.32-.12,.32-.37,.53-.38-.27-.09-.63-.12-.97-.34-.07-.6-.28-.8-.58-.15-.22-.42-.28-.66-.36-.17-.05-.36-.1-.38-.36,.41-.3,.61-.82,1.13-1.18-.1,.46-.48,.63-.61,.96,.03,.14,.16,.13,.25,.16,.3,.11,.56,.27,.74,.54,.13,.2,.29,.32,.57,.31h0Z"/><path class="cls-1" d="M13.51,19.59c.18,.42,.5,.7,.9,.91,.2,.1,.34,.27,.44,.47,.21,.4,.49,.72,.94,.86,.22,.07,.28,.23,.22,.37-.07,.18-.23,.22-.4,.21-.23-.01-.42-.1-.61-.23-.26-.18-.47-.41-.62-.69-.14-.27-.34-.47-.6-.61-.18-.1-.33-.23-.45-.39-.15-.22-.23-.46-.14-.72,.04-.11,.11-.19,.31-.18h0Z"/><path class="cls-1" d="M21.74,19.35c.04,.18,.09,.41,.13,.64,.06,.29,.06,.59-.05,.87-.07,.18-.19,.32-.39,.25-.15-.11-.13-.25-.12-.37,0-.67-.11-1.31-.53-1.87-.12-.16-.21-.35-.02-.52,.26-.05,.36,.19,.54,.26,.24,.05,.47-.02,.7-.08,.15-.03,.3-.04,.38,.12,.07,.13-.01,.3-.19,.41-.08,.05-.17,.07-.25,.11-.07,.03-.14,.04-.2,.17h0Z"/><path class="cls-1" d="M13.71,21.17c.15,.13,.14,.24,.05,.36-.11,.13-.25,.21-.41,.26-.51,.13-1.02,.13-1.5-.13-.34-.18-.62-.46-.88-.74-.09-.1-.14-.21-.16-.34-.02-.14,.01-.26,.14-.33,.13-.07,.25-.02,.34,.08,.13,.13,.24,.27,.37,.41,.44,.48,.97,.62,1.6,.47,.14-.03,.28-.09,.45-.04h0Z"/><path class="cls-1" d="M7.04,15.26c-.08-.16-.19-.16-.34-.18-.57,.42-1.01,.98-1.41,1.67-.05-.57-.04-.58,1.1-1.8,.01-.18-.2-.25-.21-.4,0-.1,.01-.16,.07-.22,.07-.07,.17-.09,.25-.05,.35,.17,.72,.27,1.08,.4,.04,.02,.07,.08,.12,.14-.09,.38-.51,.48-.71,.78-.19,.28-.48,.5-.72,.76-.24,.26-.47,.54-.71,.81-.14-.1-.07-.19-.03-.26,.15-.3,.39-.53,.62-.77,.29-.3,.59-.59,.87-.88h0Z"/><path class="cls-1" d="M5.38,19.68c-.42,.15-.48,.09-.56-.54-.04-.05-.08-.1-.13-.16-.52-.6-.54-1.37-.06-1.99,.1-.13,.22-.25,.4-.14,.09,.12,.03,.22,0,.33-.05,.16-.09,.32-.14,.47-.11,.35-.02,.63,.22,.9,.4,.44,.41,.56,.27,1.14h0Z"/><path class="cls-1" d="M7.16,19.4c.12,.06,.14,.15,.16,.24,.08,.57,.46,.88,.94,1.11,.13,.06,.27,.12,.39,.19,.08,.05,.12,.14,.1,.24-.02,.12-.09,.2-.2,.23-.07,.02-.14,.02-.22,.02-.64-.06-1.32-.7-1.43-1.33-.03-.18-.03-.36,.04-.54,.04-.09,.09-.16,.22-.16h0Z"/><path class="cls-1" d="M15.81,17.72c-.24,.42-.65,.71-.95,1.13,.6,.23,1.15,.15,1.65,0,.16,.13,.14,.23,.09,.33-.13,.23-.33,.34-.58,.36-.37,.04-.73,0-1.07-.15-.16-.07-.3-.22-.52-.19,.07-.42,.37-.62,.59-.87,.22-.24,.46-.47,.69-.7l.1,.07h0Z"/><path class="cls-1" d="M2.24,17.77c.07,.06,.15,.12,.21,.18,.27,.28,.61,.39,.99,.4,.15,0,.29,0,.44,0,.11,0,.21,.06,.25,.18,.05,.14-.01,.26-.12,.34-.07,.05-.16,.1-.25,.11-.59,.07-1.13-.05-1.58-.47-.11-.1-.2-.22-.23-.37-.04-.19,0-.33,.28-.37h0Z"/><path class="cls-1" d="M13.58,15.04c.07-.21,.24-.25,.4-.24,.48,.01,.95,.07,1.38,.28,.25,.12,.46,.3,.59,.55,.04,.09,.04,.09-.04,.34-.1,.04-.18,.01-.26-.05-.37-.3-.8-.43-1.26-.49-.22-.03-.43-.06-.63-.16-.08-.04-.16-.1-.18-.23h0Z"/><path class="cls-1" d="M11.68,13.9c.12,.09,.15,.17,.15,.27,.03,.51-.11,.98-.39,1.41-.05,.08-.11,.14-.18,.2-.1,.1-.22,.13-.35,.05-.15-.1-.16-.24-.1-.39,.03-.07,.06-.13,.1-.19,.21-.31,.34-.64,.41-1.01,.05-.25,.06-.24,.35-.34h0Z"/><path class="cls-1" d="M4.98,3.33c-.07,.18-.25,.2-.39,.26-.39,.15-.75,.37-1.09,.62-.46,.33-.8,.74-.95,1.3-.02,.09-.04,.18-.13,.23-.15-.02-.15-.14-.15-.24,.02-.26,.12-.5,.27-.71,.54-.79,1.31-1.25,2.21-1.53,.09-.03,.18-.02,.24,.07h0Z"/><path class="cls-1" d="M21.93,13.82c-.3,.1-.55,.27-.77,.5-.15,.16-.31,.31-.48,.45-.13,.11-.29,.16-.43,.06-.09-.12-.1-.23-.04-.32,.27-.41,.63-.71,1.05-.94,.09-.05,.21-.06,.32-.06,.22,0,.34,.11,.35,.33h0Z"/><path class="cls-1" d="M17.47,10.44c-.19,.43-.62,.68-1.7,1.09-.54,.21-.77,.23-1.15,.12,0-.02-.01-.04,0-.05,0-.01,.02-.03,.03-.04,.05-.02,.1-.05,.15-.07,.4-.12,.82-.21,1.21-.36,.5-.2,.99-.45,1.48-.69h0Z"/><path class="cls-1" d="M20.12,20.3c-.26,.58-1.48,1.58-2.01,1.75,.01-.06,0-.13,.03-.15,.66-.53,1.32-1.07,1.98-1.6h0Z"/><path class="cls-1" d="M12.61,19.48c-.1-.29,.03-.41,.12-.55,.33-.5,1.18-1.37,1.6-1.63-.05,.24-.05,.24-.49,.7-.21,.23-.43,.45-.63,.69-.2,.23-.37,.49-.59,.78h0Z"/><path class="cls-1" d="M4.52,4.49c-.39,.13-.67,.29-.93,.5-.26,.21-.37,.53-.58,.76-.16-.09-.12-.21-.09-.31,.11-.35,.36-.59,.65-.79,.25-.17,.5-.41,.95-.16h0Z"/><path class="cls-1" d="M15.84,10.67c-.44,.44-1.27,.71-1.85,.63,.24-.29,.59-.27,.88-.36,.29-.1,.57-.24,.98-.27h0Z"/><path class="cls-1" d="M18.93,10.95c-.3,.38-1.3,.8-1.87,.79-.02-.09,.03-.14,.09-.17,.37-.19,1.56-.61,1.78-.62h0Z"/><path class="cls-1" d="M17.77,11.83c.33-.09,.67-.18,1-.26,.33-.08,.58-.34,.98-.4-.28,.35-.55,.53-1.02,.67-.3,.08-.61,.24-.93,.13l-.02-.14h0Z"/><path class="cls-1" d="M12.12,9.73c-.31,.24-.89,.37-1.36,.36-.14,0-.3,.04-.38-.14,.07-.11,.19-.13,.29-.12,.49,.03,.96-.2,1.45-.1h0Z"/><path class="cls-1" d="M7.73,15.59c-.32,.57-.78,1.03-1.18,1.58-.04-.33-.04-.34,.43-.88,.22-.26,.43-.53,.76-.69h0Z"/><path class="cls-1" d="M21.92,13.83c.13-.05,.26-.1,.41-.16-.17,.29-1.03,1.1-1.49,1.41,.04-.28,.24-.41,.39-.58,.22-.24,.53-.38,.7-.68h0Z"/><path class="cls-1" d="M13.09,10.76s.07-.08,.09-.09c.49-.02,.95-.2,1.53-.3-.28,.36-.61,.39-.91,.45-.23,.05-.49,.14-.72-.07h0Z"/><path class="cls-1" d="M20.22,21.02c-.24,.45-.62,.7-1.08,.89,0-.07-.03-.12-.01-.14,.34-.28,.69-.56,1.09-.76h0Z"/><path class="cls-1" d="M3.59,6.09c0-.38,.21-.63,.76-.9-.12,.45-.51,.62-.76,.9h0Z"/><path class="cls-1" d="M13.36,10.42c-.31,.1-.58,.2-.91,.09,.32-.26,.59-.29,.91-.09h0Z"/><path class="cls-1" d="M15.9,18.24c-.03,.21-.18,.34-.34,.49q.02-.27,.34-.49h0Z"/><path class="cls-1" d="M4.24,5.89c.09,.06,.09,.12,.07,.17-.04,.1-.07,.21-.22,.25-.09-.21,.02-.31,.16-.41h0Z"/><path class="cls-1" d="M25.1,16.81c-.01-.32,.18-.51,.31-.71,.56-.84,1.03-1.72,1.44-2.65,.17-.38,.34-.77,.46-1.17,.02-.07,.04-.14,.12-.17,.11,.03,.11,.13,.09,.21-.06,.23-.11,.46-.19,.69-.45,1.18-1,2.32-1.73,3.35-.1,.15-.23,.28-.35,.42-.02,.02-.07,.01-.17,.03h0Z"/><path class="cls-1" d="M28.12,12.87c-.33,1.12-.85,2.06-1.39,3-.23,.39-.48,.77-.83,1.04-.16-.06-.16-.14-.12-.24,.02-.03,.03-.07,.06-.1,.83-1.02,1.36-2.22,1.95-3.38,.05-.11,.07-.25,.34-.32h0Z"/><path class="cls-1" d="M26.99,10.84c.13,.15,.04,.26-.01,.36-.5,1.05-1.53,2.63-1.89,2.92-.12-.06-.08-.15-.03-.22,.15-.25,.31-.49,.46-.74,.43-.72,.86-1.44,1.29-2.16,.04-.06,.07-.13,.19-.15h0Z"/><path class="cls-1" d="M27.97,14.66c.05,.42,0,.57-.39,1.09-.74,1.01-1.14,1.43-1.48,1.54-.09-.15,.03-.24,.1-.33,.18-.23,.38-.44,.57-.67,.22-.27,.44-.54,.65-.81,.2-.26,.37-.54,.55-.81h0Z"/><path class="cls-1" d="M26.64,17.77c-.01-.07-.03-.1-.02-.13,0-.03,.02-.07,.04-.1,.49-.63,1.04-1.21,1.48-1.87,.15,.07,.14,.15,.1,.24-.09,.16-.17,.32-.28,.46-.3,.39-.61,.77-.92,1.15-.09,.11-.17,.24-.38,.26h0Z"/><path class="cls-1" d="M24.91,12.73c.1-.36,.3-.66,.5-.96,.04-.06,.1-.11,.18-.09-.04,.39-.33,.87-.68,1.04h0Z"/><path class="cls-1" d="M27.16,17.93c.24-.49,.56-.79,.94-1.09,.02,.08,.05,.12,.04,.15-.11,.26-.32,.43-.5,.63-.1,.11-.18,.27-.47,.31h0Z"/><path class="cls-1" d="M27.74,18.18c.04-.36,.29-.57,.56-.83-.04,.36-.09,.44-.56,.83h0Z"/><path class="cls-1" d="M24.58,12c0-.26,.09-.45,.46-.51-.12,.26-.25,.41-.46,.51h0Z"/><path class="cls-1" d="M28.06,18.45q.11-.32,.39-.47c-.03,.27-.2,.39-.39,.47h0Z"/></g></g></svg>