<?xml version="1.0" encoding="UTF-8"?><svg id="Calque_2" xmlns="http://www.w3.org/2000/svg" viewBox="0 0 37.08 21.1"><defs><style>.cls-1{fill:#1d1d1b;}</style></defs><g id="Calque_1-2"><g><path class="cls-1" d="M22.54,6.57c.07,.52,.09,1.02,.05,1.52-.02,.29-.04,.59-.02,.89,.11,1.39,.01,2.78,.2,4.16,.1,.71,.13,1.44,.18,2.16,.02,.3,.15,.48,.44,.56,.34,.09,.68,.19,1.03,.22,.92,.07,1.78,.31,2.63,.67,1.77,.75,3.56,1.48,5.33,2.24,.76,.33,1.44,.25,2.07-.29,.13-.11,.25-.22,.4-.31,.67-.39,1.01-1.01,1.18-1.74,.05-.22,.1-.43,.2-.63,.26-.51,.25-1.03,.1-1.57-.06-.2-.12-.39-.14-.59-.17-1.25-.35-2.5-.19-3.76,.04-.35,.05-.7,.08-1.05,.05-.55-.02-1.08-.23-1.58-.27-.64-.63-1.21-1.14-1.69-.66-.63-1.39-1.16-2.16-1.66-.22-.14-.44-.18-.69-.16-.65,.06-1.29,.17-1.9,.38-1.44,.49-2.92,.85-4.38,1.25-.5,.14-1.02,.18-1.53,.29-.53,.11-1.02,.32-1.5,.7h0Zm1.04-1.25c-.01-.8-.33-1.41-.85-1.93-.33-.33-.7-.62-1.12-.81-.71-.32-1.41-.66-2.17-.87-.59-.16-1.18-.32-1.77-.47-1.48-.38-2.99-.54-4.51-.61-1.29-.07-2.55,.13-3.82,.28-.28,.03-.55,.07-.82,.15-.9,.28-1.8,.57-2.68,.92-1.35,.53-2.52,1.32-3.62,2.25-.52,.44-.87,1-1.07,1.66-.29,.91-.3,1.83-.19,2.75,.16,1.3,.09,2.59-.2,3.87-.18,.82-.22,1.65-.03,2.48,.18,.79,.58,1.39,1.29,1.78,.55,.31,1.05,.7,1.53,1.1,.58,.49,1.2,.94,1.84,1.35,.4,.25,.82,.44,1.29,.49,.35,.04,.69,.14,1.01,.29,.41,.19,.84,.26,1.29,.28,.91,.04,1.77-.11,2.6-.49,.47-.22,.98-.34,1.49-.44,.75-.15,1.49-.31,2.23-.49,.6-.15,.87-.5,.89-1.11,.01-.3-.01-.59-.08-.88-.06-.25-.09-.51-.08-.77,.02-.72,.03-1.45,.08-2.17,.06-.95,.08-1.89-.08-2.83-.11-.66-.23-1.32-.67-1.86-.29-.36-.58-.72-.95-1.01-.22-.17-.41-.38-.59-.59-.65-.76-1.29-1.53-1.93-2.31-.2-.24-.38-.5-.57-.75-.08-.1-.14-.22-.11-.36,.05-.12,.15-.17,.26-.2,.33-.07,.65-.13,.99-.13,.56,0,1.11,.01,1.67-.03,1.46-.11,2.91-.34,4.38-.3,.06,0,.11,0,.17,0,.99-.17,2-.13,3-.18,.92-.05,1.59,.58,1.65,1.51,0,.07,0,.15-.08,.18-.14,0-.16-.12-.21-.22-.08-.17-.14-.34-.24-.5-.27-.43-.64-.57-1.14-.47-.31,.06-.62,.13-.93,.15-.65,.04-1.29,.08-1.94,.14-1.24,.1-2.48,.15-3.72,.21-.89,.04-1.78,.06-2.67,.09-.16,0-.33-.03-.46,.08-.03,.1,.03,.16,.08,.21,.85,.78,1.59,1.66,2.32,2.55,.17,.2,.36,.38,.56,.54,.75,.64,1.31,1.41,1.56,2.38,.09,.34,.14,.69,.21,1.03,.03,.14,.03,.3,.2,.44,.21,.02,.47,.06,.72,.08,.26,.02,.52,.01,.78,.04,.24,.02,.51-.07,.75,.1-.38,.28-.59,.37-.99,.36-.35,0-.7,.02-1.05-.05-.1-.02-.23-.04-.27,.14,.03,.03,.07,.09,.11,.1,1.65,.14,3.29-.02,4.93-.21,.11-.01,.21-.06,.29-.17,.07-.19,.02-.39,.03-.59,0-.2,0-.41,0-.61,0-.19,.04-.39-.04-.6q-1.25,1.24-1.78,1.28c.34-.28,.65-.51,.92-.77,.3-.28,.56-.59,.9-.94-.04-.37-.03-.82-.1-1.35-.17,.19-.28,.31-.4,.43-.51,.54-1.06,1.04-1.67,1.47-.32,.23-.66,.41-1.04,.53-.08,.03-.18,.05-.25-.06,.07-.14,.22-.18,.35-.24,.49-.23,.93-.54,1.35-.88,.56-.46,1.06-.99,1.57-1.5,.09-.09,.18-.19,.2-.33,.06-.38,.17-.78,.08-1.16-.12-.5,.1-.78,.49-.99,.27-.15,.55-.3,.84-.45h0Zm.6-.2c.17,.09,.35,.02,.53,0,.24-.04,.48-.08,.71-.15,1.46-.41,2.94-.76,4.38-1.25,.71-.24,1.44-.34,2.18-.42,.29-.03,.55,.06,.79,.21,.96,.6,1.88,1.26,2.65,2.1,.75,.83,1.25,1.8,1.3,2.94,.02,.53,0,1.08-.08,1.61-.15,.99-.05,1.96,.09,2.93,.06,.46,.12,.92,.26,1.36,.18,.59,.12,1.18-.14,1.73-.11,.22-.17,.45-.23,.68-.22,.84-.65,1.53-1.4,2-.35,.21-.67,.46-1.02,.67-.3,.17-.61,.27-.94,.33-.38,.07-.72,0-1.07-.18-1.2-.58-2.38-1.19-3.67-1.57-.46-.14-.9-.35-1.35-.51-.87-.31-1.71-.71-2.65-.81-.37-.04-.74-.01-1.1-.15-.15-.06-.32-.11-.46-.19-.33-.17-.53-.42-.59-.82-.06-.42-.09-.85-.11-1.27-.03-.52-.07-1.03-.11-1.58-.9,.12-1.75,.4-2.64,.42-.89,.02-1.77,.13-2.62,.1-.16,.13-.14,.26-.14,.39-.03,.65-.07,1.3-.1,1.94-.02,.43-.02,.85,.09,1.27,.12,.44,.08,.89,0,1.33-.13,.76-.64,1.2-1.34,1.41-.39,.12-.8,.14-1.2,.22-.96,.19-1.9,.49-2.8,.88-.35,.15-.69,.26-1.07,.27-.44,.01-.88,.1-1.33,.08-.51-.02-1-.12-1.45-.34-.36-.17-.72-.29-1.11-.35-.77-.12-1.44-.47-2.04-.95-.39-.31-.78-.63-1.16-.95-.37-.31-.75-.6-1.18-.83-1.13-.59-1.76-1.52-1.95-2.79-.13-.86-.12-1.7,.07-2.54,.31-1.34,.31-2.69,.14-4.04-.14-1.12,.06-2.18,.48-3.21,.21-.52,.58-.95,1-1.32,1.15-.98,2.38-1.8,3.8-2.38,.97-.39,1.97-.63,2.95-.97,.23-.08,.47-.1,.71-.14C10.76,.09,12.29-.08,13.84,.04c1.37,.11,2.73,.27,4.06,.62,.81,.21,1.62,.4,2.4,.69,.77,.28,1.48,.69,2.16,1.14,.85,.57,1.44,1.33,1.61,2.37,.01,.07,.03,.14,.05,.22,0,.02,.02,.03,.05,.05h0Z"/><path class="cls-1" d="M14.52,10.4c.21,.16,.18,.3,.05,.44-.13,.14-.31,.2-.49,.26-.4,.12-.81,.06-1.21,.05-.57-.02-1.14,.01-1.67,.27-.29,.14-.58,.22-.9,.24-.41,.02-.81,.06-1.22,.07-.73,.03-1.4-.15-1.99-.57-.39-.27-.8-.45-1.26-.56-.43-.1-.85-.27-1.25-.46-.61-.3-1.22-.62-1.83-.93-.16-.08-.32-.18-.41-.33,.08-.13,.17-.08,.25-.06,.57,.16,1.14,.32,1.67,.59,.66,.34,1.36,.59,2.09,.73,.3,.05,.57,.17,.81,.35,.64,.48,1.35,.65,2.14,.6,.77-.04,1.55-.02,2.32-.13,.57-.08,1.12-.18,1.68-.3,.41-.09,.82-.18,1.21-.26h0Z"/><path class="cls-1" d="M9.42,18.24c1.51-.45,3-.25,4.48,.15,.06,.15-.04,.21-.15,.24-.25,.08-.51,.12-.76,.08-.93-.16-1.87-.19-2.81-.15-.22,.01-.44-.01-.64-.13-.07-.04-.11-.1-.11-.2h0Z"/><path class="cls-1" d="M19.02,9.99c.18-.29,.47-.39,.69-.57,.21-.18,.44-.33,.65-.51,.23-.19,.45-.38,.67-.57,.2-.18,.4-.36,.67-.6,.02,.33-.16,.45-.29,.58-.87,.9-1.82,1.57-2.39,1.67h0Z"/><path class="cls-1" d="M15.39,15.52c.02,.54-.39,1.28-.97,1.78-.29,.25-.59,.49-1.08,.43,.2-.27,.49-.28,.69-.44,.19-.15,.37-.31,.52-.5,.16-.2,.32-.41,.46-.63,.13-.19,.23-.4,.38-.65h0Z"/><path class="cls-1" d="M5.48,12.38c.32-.11,.59-.01,.85,.1,.15,.06,.17,.23,.14,.38-.04,.16-.14,.25-.29,.29-.19,.05-.41-.03-.52-.22-.09-.15-.2-.31-.17-.56h0Z"/><path class="cls-1" d="M21.88,9.24c-.2,.54-1.1,1.41-1.69,1.69,.06-.23,.06-.23,.42-.55,.21-.18,.4-.37,.61-.56,.19-.17,.34-.38,.66-.57h0Z"/><path class="cls-1" d="M13.23,17.1c.29-.27,.5-.47,.71-.66,.2-.18,.32-.44,.64-.62-.05,.45-.34,.66-.56,.91-.3,.33-.34,.34-.79,.37h0Z"/><path class="cls-1" d="M20.85,7.44c-.37,.56-.91,.96-1.47,1.12,.07-.23,.28-.29,.43-.41,.17-.14,.35-.27,.53-.4,.15-.11,.26-.28,.52-.31h0Z"/><path class="cls-1" d="M13.62,15.85c-.05,.41-.25,.62-.47,.8-.11,.09-.24,.19-.42,.02,.34-.19,.52-.53,.89-.83h0Z"/><path class="cls-1" d="M18.98,7.73c.45-.37,.74-.52,1.21-.61-.37,.33-.7,.55-1.21,.61h0Z"/><path class="cls-1" d="M7.66,13.25c-.08,.22-.21,.35-.47,.27-.14-.18-.09-.33,.07-.42,.16-.09,.31-.07,.39,.15h0Z"/><path class="cls-1" d="M12.79,16.13c-.24,.31-.53,.44-.89,.51,.15-.28,.41-.43,.89-.51h0Z"/><path class="cls-1" d="M17.86,7.17c.13-.24,.27-.33,.54-.39-.13,.25-.28,.34-.54,.39h0Z"/><path class="cls-1" d="M32.63,18.31c.32,.18,.57,.21,.79,.01,.15-.14,.25-.34,.16-.59-.32,.2-.6,.37-.94,.58h0Zm-.99-.34c.15,.11,.33,.15,.5,.18,.49-.13,.91-.35,1.29-.66,.21-.18,.27-.37,.14-.66-.17,.15-.31,.29-.47,.41-.43,.35-.86,.71-1.46,.74,0-.07-.04-.14,.03-.23,.67-.2,1.22-.63,1.7-1.15,.23-.25,.23-.41,.02-.79-.73,.71-1.53,1.3-2.39,1.9,.22,.18,.42,.26,.65,.26h0Zm-1.81-.44c.28-.1,.53,0,.84,.03,.96-.58,1.87-1.3,2.73-2.16-.14-.58-.09-1.17-.02-1.76,.04-.3,.08-.59,.17-.87,.21-.64,.05-1.24-.37-1.71-.63-.7-1.38-1.24-2.35-1.39-.13-.02-.26-.03-.39-.04-.35-.02-.7-.11-1.03-.21-1.42-.43-2.81-.93-4.14-1.6-.53-.27-1.08-.48-1.62-.73-.28-.13-.56-.21-.84,0-.09-.3-.01-.45,.23-.49,.17-.03,.33,.02,.49,.08,.73,.27,1.47,.51,2.18,.83,.97,.43,1.96,.78,2.98,1.07,.69,.19,1.38,.41,2.11,.49,.77,.09,1.43,.45,2,1,.47,.46,.89,.94,1.11,1.57,.14,.39,.18,.78,.12,1.2-.13,.92-.19,1.84,.03,2.76,.18,.74,.2,1.5,.07,2.27-.04,.26-.12,.51-.23,.74-.14,.28-.36,.42-.68,.37-.24-.04-.48-.08-.69-.21-.64-.39-1.36-.57-2.06-.82-.16-.06-.3-.15-.45-.2-.09-.03-.18-.06-.21-.23h0Z"/><path class="cls-1" d="M27.08,14.12c-.13,.03-.19,.1-.12,.23,.08,.06,.16,.07,.24-.01,0-.09-.02-.18-.12-.21h0Zm.89,.41c.02,.35-.27,.59-.59,.51-.2-.05-.39-.11-.58-.18-.31-.12-.43-.4-.33-.72,.05-.15,.14-.26,.24-.37,.35-.38,.67-.35,.92,.1,.12,.22,.29,.43,.33,.66h0Z"/><path class="cls-1" d="M23.53,10.08c.12-.04,.14-.15,.2-.24,.07-.1,.02-.16-.1-.17-.09,.12-.11,.26-.1,.4h0Zm.85-.3c0,.1-.03,.18-.09,.26-.12,.14-.23,.28-.36,.41-.25,.25-.67,.15-.74-.19-.06-.29-.14-.56-.21-.84-.07-.27,.18-.52,.46-.47,.43,.07,.67,.41,.92,.73,.02,.03,.02,.07,.03,.1h0Z"/><path class="cls-1" d="M23.8,11.1c0,.41-.24,.57-.52,.71-.26-.25-.27-.28-.13-.51,.17-.29,.26-.33,.65-.2h0Z"/><path class="cls-1" d="M28.93,15.73c-.28-.06-.46-.21-.53-.43,.04-.18,.12-.24,.24-.26,.13-.02,.25,.01,.36,.1,.09,.07,.15,.16,.16,.27,.02,.14-.05,.24-.23,.33h0Z"/><path class="cls-1" d="M27.56,12.51c.21,.27,.22,.37,.07,.52-.07,.07-.15,.1-.25,.06-.1-.04-.13-.12-.14-.22-.01-.13,.02-.17,.32-.37h0Z"/><path class="cls-1" d="M24.21,10.99c.22-.1,.34-.02,.4,.16-.03,.17-.13,.23-.28,.18-.15-.05-.19-.16-.12-.34h0Z"/></g></g></svg>