<?xml version="1.0" encoding="UTF-8"?><svg id="Calque_2" xmlns="http://www.w3.org/2000/svg" viewBox="0 0 39.42 24.61"><defs><style>.cls-1{fill:#1d1d1b;}</style></defs><g id="Calque_1-2"><g><path class="cls-1" d="M12.78,1.6c.22-.17,.42-.09,.62,0,.51,.22,.93,.57,1.32,.97,.09,.1,.15,.24,.32,.25,.27-.46-.14-.93,.06-1.4,.17,.03,.24,.13,.28,.26,.14,.39,.22,.8,.13,1.19-.11,.49-.04,.93,.15,1.38,.06,.13,.09,.28,.11,.42,.19,1.42,.77,2.74,.91,4.17,0,.07,.02,.15,.05,.21,.3,.81,.38,1.67,.55,2.51,.08,.39,.11,.78,.29,1.22,.29-.28,.49-.55,.66-.85,.48-.82,.9-1.67,1.23-2.57,.04-.11,.02-.26,.17-.3,.15,.1,.11,.24,.07,.35-.42,1.39-1.01,2.7-2.02,3.79,.06,.51,.14,1.01,.33,1.55,.35-.19,.69-.08,1.03,0,.27,.06,.54,.08,.81,.11,.21,.03,.39-.03,.57-.14,.35-.22,.61-.52,.82-.87,.08-.14,.13-.31,.34-.32,.24,.07,.18,.28,.23,.45,.05,.17-.07,.36,.05,.52,.68,.22,1.34,.16,2.04,0,.23-.26,.47-.56,.69-.87,.94-1.34,2.13-2.35,3.76-2.75,.09-.02,.17-.05,.24-.07,.19-.26,.18-.54,.19-.81,.01-.57-.06-1.13-.13-1.69-.06-.54-.22-1.03-.57-1.46-.28-.34-.51-.71-.66-1.13-.13-.36-.35-.69-.62-.96-.96-.96-1.97-1.86-3.18-2.5-.5-.27-1-.53-1.52-.76-.68-.31-1.37-.62-2.13-.7-.69-.08-1.38-.12-2.08-.14-1.83-.07-3.65,.15-5.48,.23-.11,0-.22,.03-.32,.06-.41,.1-.82,.19-1.23,.29-.74,.2-1.5,.36-2.18,.73-.79,.44-1.6,.8-2.47,1.04-.57,.15-1.06,.47-1.51,.87-.99,.89-1.85,1.87-2.57,2.98-.32,.5-.56,1.02-.69,1.6-.18,.8-.39,1.6-.76,2.34-.11,.22-.14,.45-.14,.69,0,.39,.07,.76,.19,1.13,.09,.28,.16,.56,.09,.86-.04,.17,0,.32,.06,.48,.2,.5,.47,.95,.89,1.29,.36,.29,.74,.54,1.14,.76,.32,.18,.61,.4,.81,.73,.08,.13,.16,.29,.38,.32,.06-.37-.4-.67-.16-1.04,.13-.02,.19,.01,.23,.08,.21,.36,.47,.7,.56,1.12,.08,.44,.32,.77,.67,1.03,.3,.21,.59,.44,.89,.63,.49,.31,1.02,.49,1.61,.43,.33-.03,.66,.03,.97,.13,.48,.14,.97,.19,1.47,.15,.29-.02,.58-.05,.8-.26-.25-.56-.3-.59-.82-.52-.14,.02-.29,.05-.43,.06-.38,.02-.72-.09-1.03-.31-.1-.08-.2-.17-.09-.35,.45-.03,.85,.46,1.38,.22-.1-.12-.17-.2-.23-.29-.25-.34-.48-.69-.66-1.07-.08-.17-.13-.33,.01-.49,.25,.02,.31,.21,.4,.36,.2,.31,.38,.62,.59,.93,.12,.18,.25,.35,.52,.43-.03-.26-.07-.48-.08-.69,0-.21-.19-.46,.08-.63,.15,.04,.18,.14,.21,.25,.07,.26,.14,.53,.22,.79,.11,.33,.26,.65,.52,.89,.32,.3,.65,.59,.98,.87,.2,.17,.42,.27,.68,.2,.08-.21-.12-.49,.21-.57,.19,.07,.18,.27,.28,.4,.12,.16,.24,.34,.46,.35,.54,.03,1.06,.02,1.54-.36,0-.2,.03-.42,.03-.64,0-.57-.02-1.13-.02-1.7,0-.19-.05-.41,.18-.52,.23,.23,.25,.24,.26,.57,.02,.49,.01,.99,.03,1.48,0,.2-.04,.4,.08,.58,.47,.03,.71-.14,.77-.55,.02-.15,.04-.29,.09-.43,.28-.81,.34-1.64,.17-2.49-.06-.32-.12-.65-.16-.97-.16-1.14-.39-2.27-.71-3.38-.16-.58-.29-1.17-.4-1.76-.18-.97-.31-1.95-.54-2.91-.16-.66-.33-1.31-.43-1.98-.19-1.32-.89-2.29-1.97-3.03-.11-.07-.21-.14-.32-.21-.08-.05-.15-.11-.18-.27h0Zm25.21,18.7c.37-.21,.53-.53,.55-.95,.03-.69,.1-1.39,.12-2.08,.02-.58,.03-1.17-.17-1.74-.71-1.96-1.75-3.69-3.48-4.93-.44-.31-.91-.54-1.41-.71-.27-.09-.53-.11-.81-.03-.54,.16-1.09,.32-1.63,.48-.23,.07-.42,.21-.58,.4-.15,.17-.33,.31-.56,.32-.48,.04-.92,.23-1.38,.33-.56,.12-1.07,.37-1.55,.67-.44,.28-.82,.61-1.19,.96-.65,.62-1.13,1.39-1.62,2.13-.23,.34-.43,.68-.83,.84-.19,.08-.32,.24-.46,.39-.51,.52-.94,1.11-1.5,1.6-.45,.38-.29,1.05,.24,1.32,.13,.07,.27,.1,.42,.11,.39,.01,.76,.1,1.08,.28,1.62-.41,4.19-.7,4.92-.54-.83,.09-1.65,.18-2.46,.28-.63,.08-1.27,.17-1.89,.33-.12,.03-.25,.03-.33,.21,.23,.23,.51,.39,.81,.52,.37,.16,.73,.33,1.1,.5,.33,.15,.67,.29,1.03,.36,.35,.07,.64,.23,.89,.5,.3,.32,.63,.61,1.08,.72,.23,.06,.38,.2,.48,.41,.03,.07,.06,.13,.1,.19,.31,.44,.66,.78,1.27,.67,.23-.04,.47,0,.71,.03,.38,.05,.77,.03,1.15,.02,.5-.02,.92-.17,1.28-.54,.33-.34,.73-.53,1.19-.63,.32-.07,.64-.17,.96-.24,.33-.07,.61-.22,.88-.43,.46-.36,.61-.76,.46-1.33-.05-.19-.15-.37-.24-.55-.06-.13-.15-.25-.21-.38-.04-.09-.05-.18,.11-.25,.4,.23,.54,.73,.89,1.04,.16-.61,.17-.86,.08-1.47-.03-.22-.11-.46,.02-.66,.14-.02,.21,.05,.26,.12,.1,.14,.14,.3,.18,.46,.11,.41,.04,.84,.08,1.25h0Zm-8.59-9.71c.37,.08,.65,.01,.89-.24,.29-.32,.66-.51,1.07-.65,.43-.14,.85-.32,1.3-.43,.43-.11,.83-.07,1.24,.08,.38,.14,.73,.34,1.05,.58,.62,.48,1.21,1,1.71,1.62,.42,.53,.84,1.06,1.22,1.62,.52,.79,.9,1.63,1.26,2.49,.28,.69,.34,1.42,.29,2.16-.04,.55-.1,1.09-.18,1.63-.11,.75-.51,1.33-1.12,1.75-.29,.2-.49,.44-.61,.74-.11,.27-.29,.46-.52,.62-.56,.4-1.14,.73-1.82,.85-.22,.04-.42,.13-.64,.16-.23,.03-.41,.14-.57,.31-.48,.51-1.09,.71-1.78,.71-.46,0-.91,.04-1.36-.1-.18-.05-.37-.02-.54,.03-.38,.1-.72,0-1.04-.2-.45-.29-.88-.59-1.14-1.08-.49-.12-.88-.38-1.19-.76-.12-.15-.28-.22-.47-.26-.57-.13-1.12-.32-1.63-.63-.12-.08-.26-.13-.4-.17-.53-.14-.97-.43-1.4-.74-.2-.15-.45-.23-.63-.42-.11-.13-.31-.1-.47-.1-.51,0-.82-.26-1-.71-.03-.08-.08-.17-.11-.25-.31-.74-.22-1.23,.37-1.78,.4-.38,.78-.77,1.1-1.22,.23-.32,.56-.51,.95-.8-.67,.06-1.24,.02-1.78-.25-.15,.08-.29,.15-.44,.23-.57,.3-1.17,.39-1.81,.26-.3-.06-.61-.17-.9,.02-.07,.25-.01,.48,.01,.72,.03,.27,.07,.55,0,.82-.13,.51-.17,1.04-.33,1.55-.11,.33-.07,.69-.25,1-.07,.12-.13,.26-.22,.38-.14,.19-.35,.26-.58,.25-.18-.01-.36-.03-.56-.05-.68,.63-1.45,.7-2.26,.35-.06,0-.1,0-.13,.01-.46,.3-.88,.14-1.27-.14-.25-.18-.48-.39-.74-.6-.8,.35-1.65,.42-2.51,.38-.09,0-.19,0-.27-.02-.46-.14-.92-.2-1.4-.09-.16,.04-.32-.02-.48-.07-.61-.17-1.17-.43-1.65-.83-.25-.21-.51-.42-.75-.64-.33-.31-.63-.66-1.06-.85-.13-.06-.24-.18-.32-.3-.35-.55-.89-.87-1.44-1.15-1.29-.67-1.78-1.76-1.8-3.14,0-.19,0-.36-.06-.54-.06-.19-.1-.39-.15-.58-.14-.57-.1-1.13,.13-1.66,.3-.71,.5-1.45,.67-2.2,.13-.58,.37-1.1,.68-1.6,.84-1.38,2.01-2.45,3.21-3.51,.22-.19,.48-.33,.76-.44,.39-.15,.79-.29,1.19-.42,.38-.13,.77-.26,1.1-.48,.95-.63,2.03-.9,3.12-1.16,1.12-.27,2.27-.36,3.42-.45,.69-.05,1.39-.1,2.08-.16,.77-.06,1.53,.05,2.3,.06,1.34,0,2.6,.34,3.79,.95,.39,.2,.79,.39,1.18,.59,.75,.39,1.45,.84,2.06,1.44,.33,.32,.68,.62,1.02,.91,.51,.44,.87,.99,1.1,1.61,.12,.31,.26,.61,.47,.86,.62,.73,.82,1.62,.99,2.52,.1,.54,.13,1.08,.06,1.63h0Z"/><path class="cls-1" d="M15.93,1.66c.23-.33,.46-.39,.71-.39,.33,0,.66,.01,.99,.03,.51,.03,1.02,.06,1.53-.05,.3-.07,.59,.01,.86,.11,.67,.24,1.36,.43,2.04,.63,.6,.18,1.16,.45,1.69,.78,.16,.1,.35,.18,.39,.4-.13,.11-.23,.06-.33,.01-.2-.09-.39-.19-.59-.29-.49-.25-1-.45-1.52-.61-.54-.16-1.08-.34-1.62-.52-.37-.13-.74-.18-1.13-.09-.47,.11-.94,.09-1.41,0-.5-.1-1-.21-1.6,0h0Z"/><path class="cls-1" d="M18.05,13.43c.02-.06,.03-.12,.06-.16,.56-.67,1.07-1.37,1.54-2.09,0,0,.03,0,.06,0,.12,.12,.03,.24-.02,.34-.34,.71-.82,1.33-1.36,1.89-.06,.06-.14,.12-.28,.02h0Z"/><path class="cls-1" d="M11.97,2.31c.22,.15,.24,.36,.25,.55,.02,.62,.01,1.24,.01,1.86,0,.15-.05,.28-.18,.35-.15-.04-.12-.14-.12-.23,0-.51,0-1.02,.01-1.53,0-.2,0-.4-.06-.6-.03-.12-.05-.25,.09-.4h0Z"/><path class="cls-1" d="M23.11,11.88c.17,.33,0,.6-.11,.87-.32,.72-.51,.97-.85,1.15-.06-.05-.09-.12-.05-.19,.35-.6,.73-1.18,1.01-1.83h0Z"/><path class="cls-1" d="M25.62,4.29c.31,.04,.44,.23,.57,.4,.33,.42,.75,.79,.96,1.28-.09,.12-.17,.11-.22,.06-.43-.5-.84-1-1.26-1.51-.03-.04-.02-.1-.05-.22h0Z"/><path class="cls-1" d="M2.61,7.67c-.01-.56,.57-1.42,1.35-1.98,.12,.07,.04,.16,0,.22-.12,.16-.25,.31-.38,.46-.3,.35-.58,.71-.78,1.12-.04,.08-.07,.17-.18,.18h0Z"/><path class="cls-1" d="M5.96,16.69c-.36-.71,0-1.79,.67-2.23,.08,.03,.11,.1,.06,.17-.43,.55-.65,1.16-.64,1.86,0,.05-.04,.09-.09,.2h0Z"/><path class="cls-1" d="M12.75,3.5c.24,.02,.27,.17,.27,.28,0,.55,.2,1.12-.03,1.65-.13,.03-.18-.03-.18-.1-.02-.6-.04-1.19-.06-1.83h0Z"/><path class="cls-1" d="M17.58,11.61c.09-.46,.66-1.67,.9-1.98,.12,.04,.09,.14,.07,.22-.16,.58-.62,1.43-.97,1.76h0Z"/><path class="cls-1" d="M22.74,14c.15-.36,.44-.55,.6-.83,.16-.28,.33-.55,.51-.85,.12,.31,.03,.58-.36,1.11-.18,.24-.32,.55-.75,.57h0Z"/><path class="cls-1" d="M18.98,13.41c.04-.12,.04-.18,.07-.22,.4-.42,.68-.92,1.06-1.36,0,0,.03,0,.05,0-.01,.54-.6,1.36-1.18,1.57h0Z"/><path class="cls-1" d="M7.02,15.36c-.21,.5-.55,.94-.49,1.48-.15,.06-.19-.04-.21-.12-.02-.11-.03-.22,0-.32,.08-.36,.23-.69,.46-.99,.04-.06,.1-.1,.25-.06h0Z"/><path class="cls-1" d="M2.69,8.56c-.03-.64,.34-1.21,.89-1.44-.08,.31-.32,.46-.44,.68-.12,.22-.25,.43-.45,.75h0Z"/><path class="cls-1" d="M13.56,5.91c-.06-.06-.11-.08-.11-.1,.03-.42,.07-.83,.11-1.25,0-.05,.04-.1,.11-.1,.19,.49,.16,.96-.11,1.45h0Z"/><path class="cls-1" d="M7.05,17.06c-.32-.42-.06-.76,.12-1.11,.14,0,.13,.1,.11,.16-.11,.31-.18,.62-.23,.95h0Z"/><path class="cls-1" d="M14.14,5.35c.19,.33,.17,.44-.14,1.02-.14-.24-.13-.31,.14-1.02h0Z"/><path class="cls-1" d="M3.35,8.18c-.1,.33-.32,.58-.58,.93-.04-.54,.24-.76,.58-.93h0Z"/><path class="cls-1" d="M19.99,13.29c.07-.34,.29-.57,.47-.82,.16,.04,.14,.14,.1,.21-.12,.26-.28,.49-.57,.6h0Z"/><path class="cls-1" d="M14.19,7.12c-.11-.38-.03-.64,.08-.91,.21,.27,.2,.43-.08,.91h0Z"/><path class="cls-1" d="M23.62,13.94c.11-.38,.27-.59,.45-.81,.1,.33,.05,.43-.45,.81h0Z"/><path class="cls-1" d="M7.49,16.62c.17,.23,.1,.42,.1,.62-.28-.16-.29-.2-.1-.62h0Z"/><path class="cls-1" d="M3.26,9.05c.03,.21-.02,.33-.2,.47-.05-.22-.02-.36,.2-.47h0Z"/><path class="cls-1" d="M29.57,22.81c.28-.07,.44,.04,.61,.1,.45,.16,.89,.17,1.32-.08,.06-.04,.13-.07,.2-.09,.82-.26,1.35-.84,1.78-1.54,.49-.8,.82-1.67,1.09-2.56,.06-.19,.06-.41,.29-.48,.17,0,.23,.11,.28,.23,.09,.24,.1,.5,.08,.76-.04,.42-.14,.83-.34,1.21-.45,.88-.97,1.72-1.77,2.34-.76,.58-1.59,.96-2.58,.83-.42-.05-.72-.28-.94-.7h0Z"/><path class="cls-1" d="M35.02,18.04c-.22-.15-.28-.34-.32-.54-.16-.75-.12-1.48,.22-2.19,.14-.28,.27-.55,.33-.86,.18-.9-.07-1.7-.57-2.43-.12-.18-.28-.34-.42-.51-.06-.07-.13-.13-.09-.24,.1-.11,.2-.05,.28,.02,.22,.17,.38,.39,.5,.64,.35,.71,.62,1.44,.7,2.23,.04,.42,.03,.83-.12,1.24-.25,.69-.43,1.39-.34,2.14,.02,.17,.02,.36-.2,.49h0Z"/><path class="cls-1" d="M33.15,20.23c.02,.31-.13,.43-.25,.56-.66,.66-1.42,1.14-2.34,1.34-.49,.11-.97,.09-1.4-.2,0-.13,.09-.14,.16-.12,1.49,.27,2.61-.41,3.61-1.39,.05-.05,.11-.09,.21-.18h0Z"/><path class="cls-1" d="M32.03,20.28c-.04,.27-.19,.34-.33,.43-.64,.41-1.35,.63-2.11,.65-.2,0-.4-.04-.59-.08-.12-.03-.24-.08-.27-.28,.37-.04,.73,.09,1.1,.05,.38-.04,.76-.13,1.11-.27,.35-.14,.69-.31,1.1-.49h0Z"/><path class="cls-1" d="M30.63,20.26c-.42,.49-1.16,.55-1.59,.17,.28-.1,.55,0,.8-.04,.26-.05,.52-.09,.79-.14h0Z"/><path class="cls-1" d="M22.66,18.77c-.41-.07-.44-.27-.46-.47-.04-.36,.03-.54,.31-.78-.02,.42-.17,.81,.15,1.26h0Z"/><path class="cls-1" d="M23.07,17.47v.84c-.37-.1-.39-.36,0-.84h0Z"/><path class="cls-1" d="M29.01,20.12c.23-.23,.49-.19,.82-.14-.27,.29-.54,.21-.82,.14h0Z"/><path class="cls-1" d="M23.76,17.99c-.17-.21-.17-.35-.03-.52,.14,.17,.11,.31,.03,.52h0Z"/></g></g></svg>