<?xml version="1.0" encoding="UTF-8"?><svg id="Calque_2" xmlns="http://www.w3.org/2000/svg" viewBox="0 0 28.2 24.36"><defs><style>.cls-1{fill:#f6b26b;}.cls-2{fill:#f8b36a;}.cls-2,.cls-3,.cls-4{fill-rule:evenodd;}.cls-3{fill:#181823;}.cls-4{fill:#11101e;}</style></defs><g id="Calque_1-2"><g><g><path class="cls-3" d="M.66,13.12L26.41,7.11c1.86,4.31,1.73,8.74-.4,13.89L.51,23.8l.15-10.68Z"/><path class="cls-1" d="M26.11,7.69c1.6,3.98,1.45,8.1-.45,12.84L1.02,23.24l.14-9.73L26.11,7.69m.59-1.16L.17,12.72l-.17,11.64,26.36-2.9c1.97-4.64,2.76-9.67,.34-14.94h0Z"/></g><path class="cls-2" d="M.17,12.71l.1-.62L14.68,0c5.48,.11,9.49,2.46,12.02,6.52L.17,12.71Z"/><path class="cls-2" d="M13.01,10.34c1.28,0,2.32,1.04,2.32,2.32s-1.04,2.32-2.32,2.32-2.32-1.04-2.32-2.32,1.04-2.32,2.32-2.32h0Zm9.21,.42c1.27,0,2.3,1.03,2.3,2.3s-1.03,2.3-2.3,2.3-2.3-1.03-2.3-2.3,1.03-2.3,2.3-2.3h0Zm-10.93,6.96c1.12,0,2.03,.91,2.03,2.03s-.91,2.03-2.03,2.03-2.03-.91-2.03-2.03,.91-2.03,2.03-2.03Zm8.11,0c.8,0,1.45,.65,1.45,1.45s-.65,1.45-1.45,1.45-1.45-.65-1.45-1.45,.65-1.45,1.45-1.45h0ZM4.77,13.4c.71,0,1.28,.57,1.28,1.28s-.57,1.28-1.28,1.28-1.28-.57-1.28-1.28,.57-1.28,1.28-1.28Zm.15,6.13c.71,0,1.28,.57,1.28,1.28s-.57,1.28-1.28,1.28-1.28-.57-1.28-1.28,.57-1.28,1.28-1.28Z"/><path class="cls-4" d="M14.13,2.19c1.01,0,1.83,.82,1.83,1.83s-.82,1.83-1.83,1.83-1.83-.82-1.83-1.83,.82-1.83,1.83-1.83h0Z"/><path class="cls-4" d="M8.14,7.91c.62,0,1.12,.5,1.12,1.12s-.5,1.12-1.12,1.12-1.12-.5-1.12-1.12,.5-1.12,1.12-1.12h0Z"/></g></g></svg>