<?xml version="1.0" encoding="UTF-8"?><svg id="Calque_2" xmlns="http://www.w3.org/2000/svg" viewBox="0 0 268.05 268.05"><defs><style>.cls-1{fill:#fff;}.cls-2{stroke-width:.5px;}.cls-2,.cls-3,.cls-4,.cls-5{stroke-miterlimit:10;}.cls-2,.cls-3,.cls-5{stroke:#fff;}.cls-2,.cls-4{fill:#181823;}.cls-3{stroke-dasharray:0 0 19.03 19.03;stroke-linecap:round;stroke-width:2px;}.cls-3,.cls-5{fill:none;}.cls-4{stroke:#1e1e1c;}</style></defs><g id="Calque_4"><g><path class="cls-4" d="M134.04,134.03L113.06,2.38C129.2-.19,143.3,.04,159.35,3.15l-25.31,130.88Z"/><path class="cls-1" d="M134.04,134.03L69.3,17.5c14.29-7.94,27.62-12.54,43.76-15.11l20.98,131.64Z"/><path class="cls-4" d="M134.04,134.03L33.35,46.67c10.71-12.35,21.66-21.23,35.96-29.17l64.73,116.53Z"/><path class="cls-1" d="M134.04,134.03L9.54,86.37c5.84-15.27,13.09-27.36,23.81-39.71l100.69,87.36Z"/><path class="cls-4" d="M134.04,134.03L.75,131.83c.27-16.35,2.95-30.2,8.79-45.45l124.49,47.65h.01Z"/><path class="cls-1" d="M134.04,134.03L8.04,177.55c-5.33-15.45-7.56-29.38-7.29-45.72l133.28,2.2h.01Z"/><path class="cls-4" d="M134.04,134.03L30.53,218.01c-10.29-12.7-17.14-25.02-22.49-40.47l126-43.52h0Z"/><path class="cls-1" d="M134.04,134.03l-68.54,114.33c-14.02-8.4-24.67-17.65-34.97-30.34l103.51-83.99Z"/><path class="cls-4" d="M134.04,134.03l-25.31,130.88c-16.05-3.1-29.22-8.14-43.23-16.55l68.54-114.33Z"/><path class="cls-1" d="M134.04,134.03l20.98,131.64c-16.14,2.57-30.24,2.34-46.29-.77l25.31-130.88Z"/><path class="cls-4" d="M134.04,134.03l64.73,116.53c-14.29,7.94-27.62,12.54-43.76,15.11l-20.98-131.64Z"/><path class="cls-1" d="M134.04,134.03l100.69,87.36c-10.71,12.35-21.66,21.23-35.96,29.17l-64.73-116.53Z"/><path class="cls-4" d="M134.04,134.03l124.49,47.65c-5.84,15.27-13.09,27.36-23.81,39.71l-100.69-87.36h.01Z"/><path class="cls-1" d="M134.04,134.03l133.28,2.2c-.27,16.35-2.95,30.2-8.79,45.45l-124.49-47.65Z"/><path class="cls-4" d="M134.04,134.03l126-43.52c5.33,15.45,7.56,29.38,7.29,45.72l-133.28-2.2h-.01Z"/><path class="cls-1" d="M134.04,134.03L237.55,50.03c10.29,12.7,17.14,25.02,22.49,40.47l-126,43.52Z"/><path class="cls-4" d="M134.04,134.03L202.58,19.69c14.02,8.4,24.67,17.65,34.97,30.34l-103.51,83.99Z"/><path class="cls-1" d="M134.04,134.03L159.35,3.15c16.05,3.1,29.22,8.14,43.23,16.55l-68.54,114.33Z"/><circle class="cls-4" cx="134.04" cy="134.03" r="70.69"/><circle class="cls-5" cx="134.02" cy="134.02" r="133.5"/><circle class="cls-2" cx="134.02" cy="134.02" r="46.92"/><path class="cls-3" d="M193.49,145.52c-6.35,32.84-38.13,54.32-70.97,47.97-78.28-18.39-56.47-131.07,23-118.94,32.84,6.35,54.32,38.13,47.97,70.97h0Z"/><g><path class="cls-1" d="M194.87,54.07v.03h.04l-.04-.03h0Zm-6.25-1.59c.59,.27,1.08,.56,1.72,.48-.94-.47-1.22-.55-1.72-.48h0Zm10.92,2.5c.32,.09,.6-.05,.86-.2,.88-.5,1.75-1.01,2.62-1.52,.03-.02,.04-.06,.06-.09-.01-.08-.05-.14-.19-.15-.28,.16-.59,.34-.9,.53-.8,.51-1.54,1.11-2.46,1.43h0Zm3.87-1.25c-.32,.13-.64,.33-.97,.53-.62,.38-1.24,.76-1.9,1.08-.35,.17-.72,.25-1.11,.22-.16-.01-.32-.06-.53,.02,.28,.23,.54,.29,.84,.22,.38-.08,.74-.2,1.07-.39,.65-.37,1.31-.72,1.97-1.08,.27-.14,.54-.27,.8-.39,0-.12-.04-.17-.17-.22h0Zm3.08,4.72c-.16-.03-.26,.03-.37,.07-1.07,.38-2.11,.82-3.2,1.13-.73,.21-1.45,.49-2.16,.79-.51,.22-.99,.25-1.51,.08-1.1-.34-2.2-.67-3.3-1-.46-.14-.93-.25-1.37-.43-.93-.38-1.9-.59-2.86-.87-.59-.17-1.19-.3-1.79-.45-.07-.02-.18-.08-.24,.09,.16,.05,.32,.11,.49,.15,.72,.2,1.45,.37,2.16,.59,1.19,.37,2.4,.66,3.58,1.07,.8,.28,1.61,.49,2.43,.7,.33,.09,.67,.14,.99,.3,.23,.12,.48,.2,.72,.12,.53-.16,1.1-.17,1.62-.39,1.35-.57,2.74-1.01,4.16-1.35,.24-.06,.48-.13,.69-.28,.04-.03,.06-.09,.08-.12,0-.1-.05-.16-.12-.22h0Zm-17.85-2.78c.12,.36,.35,.4,.54,.45,.67,.18,1.34,.35,2,.53,1.35,.36,2.72,.69,4.04,1.14,1.38,.47,2.76,.93,4.14,1.42,.45,.16,.86,.12,1.26-.14,.56-.35,1.17-.59,1.81-.73,1.04-.23,2-.66,2.95-1.13,.08-.04,.18-.07,.14-.23-.19-.06-.36,.06-.53,.12-.49,.17-.96,.38-1.46,.54-1.15,.38-2.31,.72-3.41,1.23-.26,.12-.54,.14-.84,.06-.94-.28-1.81-.74-2.76-.98-.09-.02-.17-.08-.26-.11-.85-.31-1.69-.63-2.57-.86-1.08-.28-2.15-.55-3.23-.83-.57-.15-1.14-.3-1.82-.48h0Zm16.28,.47c-.39,.12-.76,.29-1.12,.47-.52,.25-1.05,.49-1.61,.63-.39,.1-.77,.24-1.14,.4-.73,.31-1.48,.57-2.26,.16-.03-.02-.07-.03-.11-.03-.57-.04-1.08-.28-1.57-.55-.58-.31-1.19-.53-1.81-.73-.62-.19-1.25-.39-1.87-.59-1.05-.33-2.11-.59-3.18-.81-.6-.12-1.2-.24-1.71-.59-.19,.09-.37,.16-.51,.34,.13,.12,.27,.16,.42,.19,.24,.05,.49,.11,.73,.17,1.49,.39,2.97,.79,4.46,1.15,.96,.23,1.87,.58,2.79,.9,.94,.33,1.87,.68,2.81,1.02,.07,.03,.14,.06,.22,.07,.21,.04,.42,.04,.62-.06,.98-.5,2.04-.79,3.08-1.14,.62-.21,1.22-.46,1.83-.69,.05-.02,.08-.08,.1-.11,0-.1-.05-.16-.17-.22h0Zm-16.77-5.43c.08,.13,.19,.15,.3,.19,.68,.22,1.35,.44,2.05,.57,1.11,.21,2.22,.45,3.3,.81,1.17,.39,2.35,.71,3.45,1.28,.49,.25,1.02,.45,1.53,.66,.18,.07,.36,.17,.56,.1,.38-.14,.78-.21,1.11-.46,.57-.43,1.17-.81,1.78-1.18,.15-.09,.31-.16,.36-.37-.02-.19-.14-.34-.24-.5-.28-.44-.56-.87-.85-1.3-.37-.56-.3-.99,.24-1.39,.31-.23,.65-.41,1.01-.55,.5-.2,1.03-.32,1.56-.42,.91-.17,1.78-.46,2.66-.76,.05-.02,.09-.07,.17-.13-.36-.11-.69-.21-1.02-.32-2.33-.78-4.68-1.52-7.05-2.16-.33-.09-.65-.09-.96,.05-.33,.15-.67,.3-.98,.49-1.57,.97-3.24,1.76-4.82,2.72-.08,.05-.17,.09-.26,.13-1.08,.63-2.16,1.26-3.23,1.9-.28,.17-.55,.35-.69,.66h0Zm34.81,5.82c0-.11-.06-.19-.12-.26-.43-.56-.87-1.12-1.38-1.63-.35-.35-.68-.73-.97-1.14-.74-1.04-1.57-2-2.47-2.89-.55-.54-1.07-1.11-1.49-1.76-.53-.81-1.24-1.47-1.83-2.23-.29-.37-.71-.51-1.19-.38-.37,.1-.75,.17-1.13,.24-.46,.07-.9,.2-1.33,.37-.97,.38-1.96,.67-2.97,.91-.39,.09-.79,.18-1.17,.32-.98,.34-1.98,.6-3.01,.79-.59,.1-1.15,.3-1.67,.61-.17,.1-.39,.18-.42,.46,.27,.37,.56,.76,.84,1.15,1.24,1.76,2.28,3.65,3.44,5.46,.65,1.02,1.31,2.03,1.97,3.05,.63,.98,1.45,1.84,2.01,2.88,.01,.03,.07,.03,.1,.05,.12,.01,.23-.03,.33-.09,.49-.27,1.02-.43,1.57-.54,.4-.08,.77-.25,1.11-.46,.56-.34,1.12-.68,1.66-1.04,.9-.6,1.86-1.07,2.88-1.44,1.61-.58,3.21-1.18,4.71-2.03,.2-.11,.43-.18,.52-.41h0Zm-22.43-.32c-.13,.02-.27,.02-.4,.06-.52,.16-1.01,.07-1.51-.15-.84-.37-1.71-.69-2.57-1-.63-.23-1.25-.49-1.91-.64-1.14-.25-2.28-.52-3.41-.85-.13-.04-.26-.06-.4-.08-.5-.06-.99-.15-1.44-.38-.1-.05-.21-.1-.31,.02-.01,.11,.05,.18,.15,.22,.25,.09,.5,.19,.76,.25,.93,.22,1.88,.35,2.81,.64,.99,.31,2,.56,3,.82,.58,.15,1.14,.35,1.67,.61,.67,.34,1.39,.55,2.1,.81,.18,.07,.38,.12,.56,.03,.29-.14,.63-.17,.89-.37,.22,.02,.41-.08,.6-.16,.97-.44,1.95-.88,2.92-1.32,.03-.01,.04-.06,.06-.09,0-.08-.04-.15-.21-.2-1.14,.46-2.25,1.13-3.36,1.77h0Zm-1.15,3.69c-.1-.1-.23-.1-.36-.11-.35-.25-.79-.3-1.18-.44-1.08-.39-2.17-.78-3.27-1.13-1.81-.57-3.66-1.03-5.5-1.5-.04-.01-.1,.02-.15,.04-.02,.13,.04,.19,.13,.24,.16,.08,.33,.1,.5,.13,1.5,.25,2.96,.68,4.4,1.14,.86,.27,1.71,.58,2.58,.82,.67,.19,1.34,.35,1.98,.61,.16,.07,.34,.08,.51,.08,.1,.11,.23,.11,.36,.11,.32,.24,.66,.26,1.03,.13,.22-.08,.43-.17,.65-.24,.83-.3,1.63-.67,2.48-.93,.82-.25,1.62-.59,2.43-.9,.05-.02,.08-.07,.11-.1,0-.12-.06-.2-.22-.22-.25,.12-.55,.26-.84,.39-.74,.33-1.48,.65-2.27,.83-.61,.14-1.18,.35-1.73,.62-.19,.09-.39,.16-.57,.26-.34,.18-.69,.22-1.06,.17h0Zm-2.66-5.89s.03,.09,.08,.03l-.09-.03c-.22-.2-.49-.29-.76-.39-.4-.15-.8-.26-1.2-.41-1.96-.74-4.06-1-6.03-1.68-.09-.03-.19-.03-.2,.11,.07,.1,.18,.13,.3,.16,.45,.1,.88,.25,1.31,.42,.16,.06,.33,.11,.5,.14,1.73,.27,3.4,.75,5.04,1.35,.34,.13,.68,.26,1.05,.29h0Zm-2.42-.12c.06,.05,.11,.12,.23,.02h-.23c-.07-.12-.19-.14-.3-.17-.93-.25-1.86-.49-2.79-.72-.14-.03-.28-.05-.51,.02,.58,.16,1.07,.34,1.57,.44,.68,.14,1.33,.39,2.03,.42h0Zm-1.96,1.04c.25,.16,.52,.23,.82,.23,.62,.32,1.29,.48,1.95,.67,.74,.22,1.48,.42,2.15,.82,.68,.4,1.44,.51,2.17,.72,.22,.06,.45,.06,.68-.03,.28-.12,.57-.22,.86-.33,.23-.09,.46-.2,.7-.26,1.02-.23,1.94-.72,2.88-1.14,.03-.01,.04-.06,.05-.09-.02-.09-.04-.19-.17-.25-.48,.12-.95,.33-1.41,.56-1.02,.53-2.09,.97-3.2,1.28-.3,.09-.62,.09-.91-.01-.67-.24-1.34-.48-1.98-.78-.66-.31-1.34-.57-2.06-.73-.58-.13-1.13-.37-1.73-.42-.24-.18-.52-.22-.82-.23-1.02-.44-2.11-.61-3.2-.74,.02,.03,.04,.08,.06,.09,1.05,.22,2.1,.43,3.15,.64h0Zm3-.69s-.03-.09-.09-.03l.09,.03c.1,.09,.22,.1,.35,.11,.09,.11,.22,.11,.34,.12,.09,.12,.22,.11,.34,.12,.09,.11,.22,.12,.34,.12,.34,.27,.72,.42,1.15,.46,.03,.01,.04,.11,.09,.03l-.1-.02c-.33-.29-.73-.39-1.15-.46-.09-.11-.22-.1-.34-.12-.09-.1-.22-.1-.34-.12-.1-.08-.23-.09-.34-.12-.1-.08-.23-.09-.35-.11h0Zm11.76,5.12c-.48,.21-.93,.3-1.37,.42-.31,.08-.63,.17-.93,.3-.86,.39-1.78,.62-2.68,.89-.46,.13-.92,.29-1.35,.5-.45,.22-.88,.22-1.33,0-.66-.34-1.37-.51-2.08-.69-1.3-.33-2.59-.7-3.86-1.15-.85-.3-1.75-.44-2.64-.61-.4-.07-.78-.19-1.16-.33-.41-.14-.65-.4-.62-.85,0-.06,0-.11-.02-.21-.43-.27-.86-.58-.68-1.19-.09-.16-.17-.29-.22-.44-.04-.12-.04-.26-.06-.42-.09-.05-.19-.1-.28-.17-.45-.31-.47-.72-.06-1.1,.17-.15,.4-.23,.55-.45-.06-.16-.24-.28-.26-.48-.02-.18,.07-.33,.13-.49,.07-.22-.1-.46,.07-.64q-.25-.44-.23-.95s-.04-.07-.07-.09c-.46-.37-.49-.58-.15-1.05,.25-.35,.61-.59,.97-.8,1.01-.6,2.02-1.19,3.03-1.78,.43-.25,.88-.48,1.29-.76,.44-.29,.93-.46,1.38-.72,.76-.44,1.53-.89,2.3-1.33,.37-.21,.75-.39,1.14-.56,.44-.19,.89-.17,1.35-.06,1.35,.33,2.65,.77,3.97,1.19,1.41,.44,2.81,.92,4.21,1.4,.22,.07,.42,.2,.66,.31,.5-.08,1.01-.24,1.52-.4,.28-.08,.55-.17,.82-.28,.98-.44,2.04-.55,3.06-.79,.64-.15,1.21,.08,1.6,.58,.55,.71,1.23,1.32,1.73,2.08,.63,.95,1.44,1.75,2.24,2.55,.7,.69,1.3,1.47,1.88,2.26,.31,.42,.64,.81,1.01,1.19,.47,.48,.91,.99,1.29,1.55,.11,.16,.21,.32,.29,.5,.18,.41,.09,.84-.31,1.05-.61,.33-1.15,.77-1.82,.98-.46,.15-.85,.45-1.28,.65-.7,.33-1.43,.57-2.16,.8-.83,.26-1.61,.62-2.34,1.1-.51,.34-1.02,.69-1.56,.98-.69,.38-1.42,.7-2.2,.82-.39,.06-.73,.18-1.06,.41-.65,.45-1.29,.26-1.57-.48-.22-.57-.56-1.05-.91-1.53-.41-.56-.81-1.12-1.25-1.72h0Z"/><path class="cls-1" d="M221.18,56.86c-.09,.24-.3,.35-.49,.46-.77,.43-1.56,.83-2.43,1.03-.92,.22-1.77,.63-2.56,1.15-.56,.37-1.14,.71-1.72,1.05-.25,.15-.51,.26-.79,.35-.42,.14-.84,.27-1.25,.43-.4,.16-.79,.13-1.19,.07-.09-.01-.18-.06-.18-.19,.06-.15,.19-.09,.3-.08,.38,.05,.72-.03,1.03-.26,.23-.17,.5-.28,.78-.37,.39-.13,.74-.32,1.09-.53,.62-.38,1.24-.78,1.87-1.15,.75-.44,1.53-.8,2.41-.93,.83-.12,1.59-.43,2.34-.79,.26-.12,.51-.26,.81-.27h0Z"/><path class="cls-1" d="M209.28,56.76c-.01,.25,.09,.4,.18,.54,.38,.61,1.28,.7,1.79,.19,.32-.32,.31-.78-.02-1.07-.45-.38-1.21-.39-1.64,0-.11,.1-.21,.22-.31,.33h0Zm1.02-1.17c.38,0,.74,.08,1.06,.26,.77,.41,1.06,1.5,.1,2.16-.92,.64-2.15,.26-2.6-.77-.15-.35-.12-.66,.13-.96,.34-.42,.75-.71,1.31-.69h0Z"/><path class="cls-1" d="M207.28,54.97c.54,.12,.58,.1,.68-.29-.49-.14-.53-.13-.68,.29h0Zm.28,.49c-.06-.01-.17-.02-.28-.06-.3-.1-.44-.27-.44-.53,0-.29,.11-.52,.38-.65,.31-.15,.63-.14,.94,.01,.32,.17,.41,.44,.25,.77-.15,.31-.41,.46-.85,.45h0Z"/><path class="cls-1" d="M204.42,52.91c-.35-.17-.36-.42-.41-.63-.08-.36-.05-.73-.03-1.09,.04-.56,.18-1.1,.4-1.61,.03-.07,.08-.13,.13-.19,0,0,.04,0,.11,0,.03,.38-.14,.73-.2,1.09-.07,.4-.11,.8-.1,1.2,.01,.38,.06,.76,.09,1.22h0Z"/><path class="cls-1" d="M205.16,50.24c.03,.06,.07,.1,.07,.12-.12,.87-.18,1.74-.2,2.62,0,.03-.04,.06-.07,.09-.12,.03-.17-.05-.2-.15,0-.02-.01-.04-.01-.06-.06-.88-.01-1.75,.33-2.58,0-.01,.03-.02,.09-.05h0Z"/><path class="cls-1" d="M203.66,51.83c-.32-.37-.38-.52-.33-1.03,.05-.52,.06-1.06,.52-1.53,.12,.5-.16,.86-.16,1.26,0,.4-.02,.79-.03,1.3h0Z"/><path class="cls-1" d="M220.04,55.12c.12,.2,.02,.3-.07,.4-.39,.45-.84,.84-1.33,1.19-.18,.13-.38,.26-.67,.06,.82-.42,1.42-1.05,2.06-1.64h0Z"/><path class="cls-1" d="M205.78,51.32c.1,.14,.09,.26,.08,.37-.05,.49-.11,.97-.16,1.44-.11,.03-.19,.01-.22-.07-.14-.42,.01-1.33,.3-1.74h0Z"/><path class="cls-1" d="M203.12,50.94c-.39-.2-.36-.45-.34-.69,.03-.27,.03-.56,.39-.73,0,.47-.13,.89-.05,1.42h0Z"/><path class="cls-1" d="M206.37,53.09c-.26-.42-.11-.8,0-1.23,.2,.33,.2,.78,0,1.23h0Z"/><path class="cls-1" d="M219.02,54.76c-.14,.43-.43,.71-.78,.94-.08,.05-.18,.07-.26-.09,.37-.25,.61-.66,1.04-.85h0Z"/><path class="cls-1" d="M207.03,53.25c-.26-.34-.12-.61-.08-.86,.19-.02,.2,.08,.2,.17,0,.2,.02,.41-.12,.7h0Z"/><path class="cls-1" d="M217.43,53.85c.15-.34,.34-.47,.56-.58,.03,.04,.07,.08,.07,.1-.1,.23-.25,.4-.63,.49h0Z"/><path class="cls-1" d="M217.88,52.65c-.12,.34-.27,.45-.56,.44,.07-.28,.26-.34,.56-.44h0Z"/><path class="cls-1" d="M217.91,54.39q.19-.33,.47-.47c0,.28-.17,.35-.47,.47h0Z"/><path class="cls-1" d="M199.48,53.29c.02,.16-.07,.23-.18,.28-.16,.07-.33,.07-.51,.05-.5-.06-.98-.19-1.43-.42-1.33-.71-2.75-1.17-4.22-1.49-.5-.11-1-.29-1.49-.44-.11-.03-.23-.05-.26-.23,.26-.09,.52-.05,.77,.03,.48,.15,.96,.25,1.46,.33,1.24,.21,2.42,.61,3.55,1.14,.61,.29,1.23,.54,1.91,.59,.15,0,.31,.02,.4,.15h0Z"/><path class="cls-1" d="M200.66,46.39c-.3-.4-.68-.47-1.1-.42-.21,.02-.36,.12-.37,.36,.46,.33,1.02,.37,1.46,.06h0Zm-.86-.84c.32,0,.64,.03,.93,.21,.18,.11,.34,.25,.4,.47,.1,.35-.1,.7-.47,.8-.51,.14-1.03,.07-1.52-.11-.34-.12-.49-.38-.46-.65,.03-.33,.27-.61,.6-.69,.17-.04,.34-.05,.52-.02h0Z"/><path class="cls-1" d="M195.6,47.71q.4,.19,.59-.03c-.18-.12-.35-.11-.59,.03h0Zm.36,.57c-.18,0-.43-.09-.67-.22-.28-.16-.31-.52-.04-.72,.29-.22,.62-.29,.98-.19,.35,.1,.56,.37,.52,.66-.04,.29-.3,.47-.79,.47h0Z"/></g><g><path class="cls-1" d="M164.66,223.57s.04,0,.07,0h-.07Zm2.01,10.75c.35,.07,.69,.13,1.04,.13,.44,0,.58-.12,.62-.55,.04-.44,.08-.88,.06-1.33-.08-1.74-.1-3.48-.03-5.23,.05-1.27,.02-2.54-.08-3.8-.01-.17,0-.36-.14-.56-.57,.49-1.13,.93-1.71,1.32,.02,.23,.06,.43,.06,.63,0,1.22,.06,2.45,.06,3.67,0,.78-.08,1.56,0,2.34,0,.09,0,.18,0,.27-.04,1.01,.03,2.02,.07,3.02,0,.01,.01,.03,.04,.09h0Zm-7.03-11.49c-.14-.08-.26-.05-.38-.04-.32,.03-.64,.08-.96,.11-.86,.07-1.68,.31-2.53,.46-.42,.07-.74,.33-.85,.8-.14,.56-.32,1.12-.47,1.68-.15,.53-.23,1.07-.28,1.62-.07,.69,0,1.38,.03,2.06,.04,1.14,.22,2.25,.41,3.37,.08,.49,.26,.94,.48,1.38,.09,.19,.2,.38,.43,.45,.6,.17,1.21,.34,1.84,.38,.5,.03,1.01,.09,1.51,.13,.37,.03,.73,.04,1.1,.06,.09,0,.18,.02,.25-.08,0-.16-.1-.28-.17-.41-.11-.19-.2-.38-.24-.59-.1-.43-.2-.87-.27-1.3-.09-.62-.2-1.24-.34-1.85-.12-.54-.21-1.08-.22-1.64,0-1.1-.04-2.2-.12-3.3-.01-.21,0-.43,0-.64,0-.31,.06-.61,.15-.9,.18-.55,.31-1.12,.64-1.62,.01-.02,0-.06,.01-.11h0Zm6.74,11.49c-.01-.27-.02-.52-.04-.78-.03-.6-.08-1.19-.08-1.79,0-.44,.01-.89-.02-1.33-.03-.37-.03-.73-.01-1.1,.02-.43,.06-.86,.04-1.28-.05-.89-.08-1.77-.07-2.66,0-.38,0-.76-.11-1.14-.36-.21-.76-.24-1.15-.29-.85-.11-1.71-.14-2.53-.4-.1-.03-.21-.06-.31-.06-.51-.03-1-.14-1.49-.26-.1-.03-.21-.05-.33,.04-.03,.06-.07,.15-.11,.23-.3,.75-.41,1.53-.47,2.33-.06,.86,.04,1.71,.02,2.57,0,.41,.02,.83,.09,1.23,.08,.5,.16,1,.24,1.49,.09,.51,.21,1.02,.27,1.53,.06,.52,.18,1.02,.31,1.53,.04,.15,.1,.29,.16,.43,.09,.19,.24,.31,.47,.3,.6-.02,1.19,.03,1.79-.03,.84-.09,1.67-.17,2.51-.26,.27-.03,.55-.04,.82-.28h0Zm-11.88-12.66c.03,.05,.04,.1,.07,.13,.51,.42,1.07,.76,1.74,.88,.11,.02,.21,.03,.32,0,.79-.21,1.6-.27,2.4-.38,.57-.08,1.13-.02,1.69,.08,.8,.13,1.59,.33,2.39,.42,.56,.06,1.13,.12,1.67,.31,.27,.09,.51,.05,.75-.08,.32-.17,.66-.33,.98-.51,.38-.21,.72-.46,.98-.82,.15-.2,.24-.42,.21-.68-.03-.21-.06-.42-.09-.63-.17-1.01-.37-2.01-.72-2.98-.16-.45-.23-.92-.31-1.39-.09-.51-.18-1.02-.28-1.54-.05-.25-.1-.51-.29-.72-.28-.07-.57-.14-.86-.12-.34,.02-.67-.02-1-.1-.85-.22-1.7-.37-2.57-.44-.87-.06-1.73-.25-2.6-.23-.85,.02-1.68-.08-2.51-.23-.02,0-.05,.02-.08,.03-.06,.08-.05,.17-.03,.3,.18,.01,.26,.16,.29,.33,.13,.68,.26,1.36,.26,2.05,0,.43,.05,.85,.11,1.28,.04,.29,.1,.58,.09,.87,0,.31,0,.61,.05,.91,.07,.46,.1,.91,.11,1.37,0,.32,.05,.64,.08,.96,.45,.41,.97,.65,1.55,.75,.32,.06,.64,.1,.95,.17,1.09,.27,2.18,.47,3.3,.53,1.03,.06,2.05,0,3.06-.23,.2-.04,.38-.1,.56-.21,.31-.19,.49-.45,.47-.83,0-.2-.02-.4-.05-.59-.06-.4-.21-.77-.32-1.15-.27-.93-.43-1.88-.64-2.82-.05-.24-.08-.48-.1-.73,0-.08-.05-.18,.06-.23,.01,.01,.03,.02,.03,.03,.37,1.47,.7,2.95,1.15,4.39,.08,.25,.12,.51,.15,.76,.03,.29,.04,.58-.09,.86-.2,.45-.56,.68-1.01,.79-.58,.14-1.17,.26-1.77,.28-1.18,.06-2.35,.01-3.52-.22-.76-.16-1.51-.38-2.29-.49-.42-.06-.79-.22-1.16-.42-.17-.1-.34-.2-.51-.31-.27,.09-.42,.36-.69,.45-.28,.09-.56,.18-.85,.18-.27,0-.53,.13-.8,.05,0-.15,.09-.17,.18-.19,.28-.06,.57-.13,.85-.18,.48-.08,.84-.33,1.15-.66,0-.07,.02-.11,.01-.16-.1-.87-.1-1.74-.21-2.61-.07-.55-.05-1.1-.17-1.64-.07-.32-.07-.64-.06-.96,0-.6-.1-1.4-.26-1.94-.54,1.67-1.1,4.03-1.07,4.59,.35-.36,.53-.82,.87-1.16,.1,.09,.05,.17,.01,.23-.14,.24-.29,.47-.44,.7-.19,.3-.38,.59-.56,.9-.11,.18-.19,.38-.18,.64,.27-.38,.5-.72,.75-1.04,.26-.32,.47-.69,.87-.97-.02,.25-.16,.36-.26,.49-.46,.61-.94,1.21-1.3,1.89-.09,.18-.19,.35-.23,.55-.1,.48-.19,.96-.28,1.43h0Zm14.35,.91s-.02,.07,0,.1c.28,1.12,.43,2.25,.44,3.4,0,.67,0,1.35-.03,2.02-.04,1.15,.13,2.29,.12,3.44,0,.55-.02,1.1-.01,1.65,0,.61-.09,1.19-.39,1.72-.01,.02,0,.06,0,.1,.09,.06,.19,.07,.3,.07,.78,.03,1.56,.07,2.34,.1,.81,.03,1.62-.05,2.43-.13,.5-.05,1-.1,1.48-.28,.66-.24,1.23-.62,1.59-1.24,.68-1.16,.99-2.43,1.12-3.75,.07-.75-.02-1.5-.08-2.24-.1-1.3-.5-2.51-1.11-3.66-.25-.47-.63-.75-1.13-.86-.69-.15-1.38-.28-2.08-.32-.95-.05-1.89-.06-2.84-.09-.52-.01-1.04,0-1.56-.07-.19-.03-.39-.06-.58,.02h0Zm-6.03,.69c-.06-.04-.13-.08-.24-.03,.1,0,.17,.02,.24,.02,.1,.1,.24,.13,.37,.15,.37,.05,.75,.08,1.13,.13-.48-.22-.99-.25-1.51-.27h0Zm4.04,.37l.09-.1,.09-.09,.09-.09c.21-.04,.33-.21,.49-.33,.13-.1,.26-.22,.41-.29,.19-.1,.37-.03,.45,.18,.04,.11,.06,.24,.07,.36,.13,1.17,.2,2.35,.16,3.53-.03,1.06-.05,2.11-.05,3.17,0,.87,.04,1.74,.05,2.62,0,.5,.02,1.01-.07,1.51-.09,.52-.41,.77-.94,.73-.21-.01-.43-.02-.64-.08-.38-.1-.72-.03-1.04,.19-.49,0-.97,.04-1.46,.11-.6,.09-1.21,.14-1.82,.18-.49,.03-.98,0-1.47,.01-.39,.01-.63-.17-.8-.5-.12-.23-.18-.49-.25-.74-.15-.56-.21-1.14-.31-1.71-.27-1.49-.57-2.97-.55-4.5,.01-.76-.09-1.52,0-2.29,.1-.77,.21-1.54,.55-2.26,.14-.3,.24-.38,.56-.36,.12,0,.24,.04,.36,.06,.31,.06,.63,.15,.95,.13,.1,.07,.2,.08,.39,.03l-.4-.02c-.53-.21-1.09-.26-1.63-.37-.2,.2-.34,.4-.46,.61-.16,.28-.22,.6-.33,.9-.25,.66-.29,1.34-.25,2.03,.05,.88,.13,1.77,.11,2.66-.02,.8,.08,1.59,.28,2.36,.04,.16,.07,.33,.1,.5,.13,.69,.25,1.38,.38,2.07,.09,.52,.36,.97,.63,1.39,.09,.02,.15,.04,.2,.04,1.27,0,2.54,.03,3.8-.11,.47-.05,.94-.1,1.39-.25,.08,0,.16,.02,.23-.01,.27-.14,.53-.08,.8-.03,.3,.06,.61,.05,.91,.07,.26,.02,.44-.1,.57-.31,.21-.35,.34-.71,.34-1.12-.01-1.02,.01-2.05-.01-3.07-.03-1.27,0-2.54,.03-3.81,.02-.93-.03-1.86-.11-2.79-.02-.26-.06-.52-.12-.77-.05-.24-.12-.48-.43-.6-.38,.25-.82,.46-1.1,.88-.05,.01-.08,.04-.09,.09-.03,.03-.06,.06-.09,.09-.03,.03-.06,.06-.1,.09h0Zm.55-1.2c.08-.04,.18-.06,.24-.12,.27-.26,.58-.29,.93-.27,.81,.05,1.62,.11,2.43,.12,.86,.02,1.71,.07,2.57,.08,.54,0,1.06,.16,1.59,.22,.4,.05,.78,.13,1.17,.24,.46,.13,.82,.39,1.06,.82,.68,1.18,1.11,2.45,1.24,3.81,.03,.37,.06,.73,.09,1.1,.15,1.51-.13,2.96-.66,4.36-.09,.24-.22,.47-.33,.71-.37,.8-1.01,1.29-1.79,1.62-.65,.28-1.33,.41-2.04,.48-1.19,.12-2.38,.11-3.58,.06-.89-.04-1.77-.12-2.66-.19-.06,0-.12,0-.18-.03-.57-.2-1.13-.12-1.71,.03-.83,.22-1.68,.28-2.55,.31-.95,.03-1.9,.05-2.85,.06-.72,0-1.44-.05-2.15-.14-.24-.03-.49-.03-.73-.04-.34-.01-.67-.06-1-.13-.27-.06-.54-.11-.81-.13-.51-.03-.86-.27-1.05-.76-.26-.69-.5-1.38-.59-2.12-.09-.74-.22-1.48-.31-2.23-.26-2.03-.05-4,.62-5.93,.02-.06,.04-.11,.07-.17,.21-.5,.39-1.01,.94-1.2,0-.17-.11-.16-.18-.21-.27-.17-.54-.34-.82-.51-.25-.16-.34-.38-.3-.67,.05-.33,.12-.66,.18-.99,.15-.92,.3-1.84,.45-2.76,.17-1.07,.45-2.12,.74-3.17,.18-.65,.39-1.29,.5-1.96,.03-.16,.04-.34,.19-.48,.25-.08,.53-.03,.8,0,.79,.1,1.58,.14,2.38,.14,.77,0,1.52,.17,2.28,.22,.91,.06,1.79,.23,2.66,.48,.31,.09,.63,.14,.95,.12,.31-.02,.6,.08,.91,.11,.2,.02,.32,.17,.41,.33,.12,.21,.21,.44,.26,.69,.09,.47,.18,.93,.26,1.4,.12,.71,.26,1.42,.51,2.09,.32,.85,.41,1.76,.58,2.64,.05,.28,.04,.58,0,.87-.04,.31-.25,.55-.44,.79-.09,.1-.19,.2-.28,.3-.03,.03-.06,.07-.1,.1-.07,0-.14,.03-.18,.08l-.09,.1c-.4,.17-.8,.35-1.22,.6,.13,.04,.22,.07,.3,.09,.09,.02,.18,.04,.31-.03,.17-.21,.45-.39,.61-.67,.05-.01,.08-.05,.09-.1,.06-.03,.12-.06,.18-.08,.03-.03,.06-.07,.1-.1h0Z"/><path class="cls-1" d="M177.51,230.51c-.04,1.27-2.33,3.8-3.61,4.01,0-.16,.14-.19,.23-.24,1.23-.72,2.18-1.72,2.92-2.93,.17-.27,.3-.56,.46-.84h0Z"/><path class="cls-1" d="M172.63,234.5c.29-.19,.59-.36,.87-.56,.28-.2,.55-.43,.82-.65,.27-.22,.53-.46,.79-.69,.25-.23,.47-.49,.66-.8,.11,.16,.05,.24,0,.32-.11,.2-.26,.38-.42,.54-.57,.58-1.2,1.09-1.84,1.57-.2,.15-.41,.26-.65,.33-.07,.02-.15,.04-.24-.05h0Z"/><path class="cls-1" d="M171.97,234.25c.03-.07,.04-.1,.06-.12,.69-.45,1.32-.97,1.95-1.49,0,0,.03,0,.04,0-.04,.25-.07,.29-.45,.61-.92,.78-1.24,.98-1.6,.99h0Z"/><path class="cls-1" d="M175.25,234.14c.17-.25,.46-.34,.67-.53,.21-.19,.44-.38,.65-.57,.21-.19,.39-.42,.52-.66,.14,.06,.1,.14,.07,.2-.04,.08-.08,.16-.13,.24-.4,.53-.89,.95-1.46,1.28-.06,.04-.14,.06-.21,.08-.02,0-.05-.02-.1-.04h0Z"/><path class="cls-1" d="M171.55,233.83c.42-.27,.86-.55,1.29-.83,.02-.01,.05,0,.08,.01,.05,.04,.02,.09,0,.12-.36,.3-.76,.56-1.16,.8-.08,.05-.18,.08-.2-.1h0Z"/><path class="cls-1" d="M171.85,233.22c-.22,.25-.52,.39-.82,.51-.08,.03-.17,.07-.27-.05,.35-.2,.69-.38,1.09-.46h0Z"/><path class="cls-1" d="M162.57,219.85c.01,.07,.06,.04,0,.02,0,.02,0,.05,0-.02h0Zm.38,0c-.02,.18-.08,.35-.21,.49-.13,.14-.32,.12-.43-.04-.11-.17-.11-.53,0-.7,.09-.14,.26-.2,.39-.15,.16,.06,.25,.2,.24,.41h0Z"/><path class="cls-1" d="M159.83,214.9s0,.07-.02,.12c-.04,.17-.16,.3-.29,.32-.13,.02-.27-.08-.34-.26-.02-.04-.03-.09-.04-.13-.04-.16-.01-.31,.12-.41,.1-.08,.22-.09,.34-.03,.13,.07,.21,.2,.22,.39h0Z"/><path class="cls-1" d="M156.47,218.28c-.1,.31-.27,.44-.4,.6-.13,.17-.27,.33-.39,.5-.13,.17-.24,.35-.37,.52-.12,.16-.15,.38-.37,.56,0-.27,.09-.44,.18-.61,.27-.5,.9-1.25,1.35-1.58h0Z"/><path class="cls-1" d="M164.32,217.73s.02-.03,.02-.04c0-.04-.03-.05-.05-.02,0,0,0,.03,0,.04,0,0,.02,.01,.03,.02h0Zm.34-.06c0,.22-.14,.42-.32,.44-.2,.02-.41-.21-.42-.46,0-.19,.14-.37,.32-.38,.21-.02,.41,.17,.41,.4h0Z"/><path class="cls-1" d="M159.38,217.14v.03h.03l-.03-.03h0Zm-.03-.35c.22,0,.43,.17,.44,.38,0,.19-.14,.34-.34,.35-.24,0-.46-.16-.47-.34-.01-.19,.17-.37,.37-.38h0Z"/><path class="cls-1" d="M155.55,220.22c.1-.4,.38-.65,.68-.9-.18,.33-.37,.66-.67,.91h0Z"/><path class="cls-1" d="M164.26,220.8c0,.12-.13,.22-.26,.19-.1-.02-.16-.09-.17-.18-.01-.12,.11-.23,.23-.22,.11,0,.2,.11,.19,.21h0Z"/><path class="cls-1" d="M155.56,220.23l-.02,.03s-.03-.02,.01-.04h0Z"/><path class="cls-1" d="M161.38,231.46s-.03,0-.04,0c-.02,.02-.02,.05,.01,.06,0,0,.02,0,.04,0v-.07h0Zm.05,.44c-.23-.01-.47-.27-.44-.49,.02-.17,.21-.33,.39-.31,.22,.02,.39,.25,.38,.49-.01,.19-.15,.32-.32,.31h0Z"/><path class="cls-1" d="M163.53,228.8c0-.21,.02-.33,.11-.42,.1-.12,.28-.15,.41-.08,.14,.07,.18,.19,.16,.34-.01,.11-.06,.2-.13,.28-.09,.11-.21,.18-.36,.12-.12-.05-.19-.17-.19-.24h0Z"/><path class="cls-1" d="M165.41,233.21c0,.13-.04,.24-.16,.3-.13,.07-.24,.02-.33-.06-.05-.04-.09-.09-.12-.14-.11-.16-.09-.34,.05-.45,.15-.12,.35-.08,.48,.09,.06,.08,.08,.16,.09,.25h0Z"/><path class="cls-1" d="M165.01,228.56c.16,0,.28,.13,.28,.3,0,.22-.18,.41-.36,.39-.15-.01-.25-.15-.25-.33,0-.21,.14-.36,.34-.36h0Z"/><path class="cls-1" d="M161.81,226.37c0,.16-.13,.29-.29,.28-.16,0-.28-.14-.27-.3,0-.16,.14-.3,.29-.29,.15,0,.27,.14,.27,.31h0Z"/><path class="cls-1" d="M156.63,234.41c.28-.15,.55-.28,.81-.43,.25-.14,.5-.3,.74-.46,.25-.17,.49-.34,.73-.51,.1,.08,.07,.14,.02,.18-.58,.5-1.21,.92-1.92,1.22-.11,.05-.22,.11-.38,0h0Z"/><path class="cls-1" d="M158.38,232.65c-.1,.35-.45,.67-1.27,1.16-.21,.12-.4,.31-.75,.24,.36-.3,.74-.46,1.07-.69,.32-.23,.63-.47,.96-.71h0Z"/><path class="cls-1" d="M159.19,233.72c-.16,.32-.46,.5-.75,.69-.25,.16-.28,.16-.64,.17,.2-.24,.48-.28,.68-.44,.21-.17,.43-.32,.64-.49l.06,.07h0Z"/><path class="cls-1" d="M157.32,232.94c-.29,.31-.67,.5-1.03,.71-.11,.07-.23,.16-.38,.09,0-.02-.01-.04-.01-.05,0-.01,0-.03,.02-.04,.44-.26,.89-.53,1.33-.79,.02,.03,.05,.05,.07,.08h0Z"/><path class="cls-1" d="M158.62,234.66c.24-.18,.45-.4,.75-.46-.17,.29-.39,.5-.75,.46h0Z"/><path class="cls-1" d="M155.98,232.96c.18-.05,.36-.1,.58-.16-.19,.25-.21,.26-.58,.16h0Z"/></g><g><path class="cls-1" d="M37.04,119.32c.09-.13,.06-.23,.05-.34-.02-.15-.05-.3-.03-.45,.05-.48-.02-.96-.1-1.43-.19-1.06-.16-2.12,.03-3.17,.05-.27,.07-.53-.04-.79-.14-.33-.15-.67-.08-1.01,.04-.21,.06-.42,.03-.62-.05-.27-.21-.47-.46-.48-.41-.01-.79-.18-1.18-.25-.96-.18-1.9-.45-2.79-.85-.18-.08-.36-.14-.55-.21-.36-.12-.72-.22-1.1-.23-.71-.01-1.39-.16-2.06-.41-.48-.17-.97-.31-1.48-.36-.07,0-.15-.04-.22,.05,.08,.16,.24,.25,.37,.37,.72,.59,1.43,1.18,1.98,1.95,.13,.18,.31,.34,.49,.46,.44,.29,.83,.64,1.24,.97,.2,.16,.4,.32,.63,.44,.38,.21,.59,.53,.69,.95,.06,.25,.08,.5,.07,.76-.01,.24,0,.48,.02,.72,.06,.64,.09,1.29,.03,1.93,0,.09-.02,.18,.06,.3,.33,.04,.65,.18,.96,.38,.3,.19,.64,.33,.97,.47,.69,.3,1.43,.47,2.09,.83,.12,.07,.25,.08,.4,.03h0Zm-22.1-6.77c-.24,.29-.46,.59-.66,.91-.12,.18-.17,.37-.15,.6,.03,.5-.03,.99-.16,1.47-.07,.24-.11,.5-.12,.75-.04,.89,.2,1.69,.8,2.37,.63,.71,1.36,1.26,2.23,1.64,.4,.18,.8,.35,1.17,.58,.83,.52,1.73,.8,2.7,.92,1.07,.13,2.14,.3,3.18,.61,.53,.16,1.09,.21,1.65,.18,.73-.04,1.47-.07,2.2-.1,.29-.01,.57-.05,.83-.17,.47-.2,.95-.25,1.45-.22,.49,.03,.96-.06,1.41-.24,.39-.16,.66-.42,.64-.88,0-.16,0-.33,0-.49-.02-.96-.12-1.92-.1-2.88,.01-.48,.09-.96,.05-1.44-.04-.58-.07-1.16-.01-1.75,.04-.44-.11-.82-.55-1.04-.21-.11-.4-.26-.6-.4-.42-.31-.84-.63-1.26-.94-.32-.23-.59-.5-.83-.82-.34-.46-.72-.88-1.15-1.26-.28-.25-.53-.53-.79-.8-.13-.14-.24-.3-.41-.41-.12-.08-.19-.19-.15-.34,.05-.17,.18-.23,.34-.25,.13-.01,.27,0,.4,0,.78,.02,1.51,.25,2.23,.5,.45,.15,.9,.24,1.37,.25,.52,0,1.02,.1,1.49,.3,1.02,.44,2.07,.8,3.13,1.12,.06,.02,.11,.04,.17,.06,.32,.13,.64,.24,1,.22,.17,0,.33,.05,.47,.14,.15,.11,.28,.24,.3,.43,.03,.37,.1,.74,.02,1.12-.04,.21-.05,.42,.05,.62,.19,.38,.18,.77,.11,1.18-.17,.95-.19,1.91-.06,2.86,.08,.53,.2,1.06,.12,1.61-.02,.11-.01,.23,.11,.32,.22-.2,.45-.37,.64-.58,.26-.29,.48-.63,.49-1.03,.01-.39,0-.78-.03-1.17-.07-.78-.08-1.55-.07-2.34,.02-1.3,.22-2.6,.23-3.91,0-.55-.04-1.05-.3-1.55-.16-.3-.34-.56-.61-.76-.24-.18-.48-.35-.73-.52-.35-.24-.71-.44-1.11-.59-.39-.15-.77-.33-1.12-.56-.63-.42-1.3-.74-2.04-.91-.36-.08-.72-.22-1.08-.33-.23-.07-.46-.14-.69-.19-1.79-.36-3.6-.41-5.42-.23-.61,.06-1.22,.12-1.84,.08-1.6-.11-3.13,.24-4.63,.75-.33,.11-.66,.21-1,.28-1.01,.21-1.95,.59-2.79,1.19-.7,.49-1.24,1.12-1.51,1.96,.1,.12,.2,.23,.23,.38,.04,.25,.19,.43,.4,.57,.25,.17,.45,.4,.58,.67,.11,.23,.28,.42,.47,.59,.62,.57,1.31,1.05,2.04,1.48,1.18,.69,2.47,.99,3.82,1.07,.31,.02,.6,.05,.85,.24,.23,.17,.49,.22,.76,.23,.36,.01,.72,.03,1.08,.06,.33,.03,.66,.02,.99-.03,.3-.04,.6-.05,.9,0,.88,.16,1.76,.14,2.65,.13,.12,0,.25,0,.36-.03,.65-.2,1.34-.16,2-.25,.24-.03,.48,0,.67,.19,.06,.06,.08,.13,0,.22-.23,0-.48-.13-.73-.02-.08,.03-.17,.06-.26,.06-.48,.02-.95,.11-1.41,.24-.16,.04-.32,.08-.49,.09-.64,0-1.29,.04-1.93-.02-.79-.08-1.58-.12-2.37-.09-.6,.02-1.2-.06-1.8-.09-.2-.01-.38-.08-.54-.19-.23-.16-.49-.21-.77-.21-1.4-.03-2.73-.36-3.96-1.05-.6-.34-1.18-.72-1.71-1.16-.46-.38-.93-.76-1.17-1.34-.04-.09-.11-.18-.18-.26-.08-.09-.17-.17-.25-.26-.07-.08-.14-.16-.2-.24-.06-.09-.09-.19-.15-.3-.13,.27-.1,.51-.06,.75,.09,.68,.2,1.37,.3,2.05,.01,.08-.02,.19,.11,.21,.26-.25,.42-.61,.78-.8,.02,.18-.08,.26-.15,.35-.18,.24-.36,.48-.53,.73-.15,.22-.19,.46-.12,.76,.28-.22,.4-.58,.69-.72,.08,.02,.1,.06,.11,.11h0Zm17.66,5.6c-.09,.27-.01,.52,0,.77,0,.48,.03,.96,.05,1.44,.02,.36-.04,.72-.11,1.07-.1,.5-.45,.8-.91,.97-.51,.19-1.04,.29-1.59,.25-.41-.03-.8,.04-1.19,.18-.34,.12-.69,.2-1.05,.21-.75,.03-1.5,.07-2.25,.1-.65,.03-1.29-.06-1.91-.24-.91-.27-1.84-.41-2.78-.54-.27-.04-.53-.07-.8-.12-.67-.11-1.31-.33-1.9-.67-.53-.31-1.08-.59-1.64-.84-.89-.4-1.65-.98-2.28-1.72-.82-.98-1.15-2.12-.86-3.36,.28-1.21,.21-2.42,.09-3.62-.09-.96-.18-1.91-.19-2.87,0-.9,.38-1.65,.96-2.31,.83-.94,1.89-1.52,3.08-1.86,.97-.27,1.93-.56,2.89-.84,1.19-.35,2.41-.47,3.65-.41,.59,.03,1.17,0,1.75-.08,.95-.13,1.92-.1,2.87-.08,.95,.02,1.88,.13,2.81,.33,.19,.04,.38,.1,.56,.15,.4,.12,.8,.28,1.2,.37,.8,.19,1.52,.55,2.2,.99,.34,.22,.71,.4,1.07,.57,.41,.19,.81,.38,1.13,.72,.16,.17,.36,.27,.56,.37,.47,.24,.81,.61,1.01,1.1,.03,.08,.06,.17,.12,.24,.24,.31,.23,.66,.22,1.03-.03,1.32-.15,2.63-.23,3.95-.05,.82-.04,1.65,.03,2.47,.04,.53,.02,1.05-.02,1.57-.05,.51-.29,.95-.67,1.29-.36,.33-.75,.64-1.13,.95-.27,.21-.57,.27-.89,.12-.5-.24-1.03-.4-1.55-.6-.61-.24-1.22-.5-1.78-.86-.16-.1-.33-.21-.54-.19h0Z"/><path class="cls-1" d="M14.93,112.56c.07-.06,.09-.2,.25-.18,.13,.04,.16,.16,.17,.28,.07,.46,.38,.69,.78,.84,.14,.05,.28,.11,.41,.16,.32,.04,.62-.27,.96-.06,0,.47-.42,.39-.69,.55-.15,.35-.02,.65,.24,.91,.21,.21,.43,.41,.62,.65,.11,.14,.21,.29,.14,.48-.12,.08-.21,.04-.29-.03-.32-.3-.64-.59-.94-.9-.2-.2-.29-.45-.32-.73-.01-.13-.02-.27-.03-.39-.12-.14-.26-.16-.41-.18-.16,.17-.27,.37-.4,.6,.18,.04,.4-.15,.52,.09,.01,.12-.07,.19-.15,.26-.12,.11-.25,.21-.37,.32-.29,.26-.46,.58-.5,.98-.02,.17,0,.36-.16,.52-.24-.04-.28-.24-.3-.43-.04-.41,.08-.77,.33-1.09,.32-.42,.48-.93,.81-1.3-.06-.16-.16-.2-.28-.24-.25,.18-.33,.51-.53,.74-.12-.03-.09-.12-.06-.18,.08-.23,.23-.42,.36-.62,.08-.11,.1-.22-.06-.31-.3,.27-.44,.66-.71,.96-.14-.13-.06-.25,0-.34,.16-.25,.33-.5,.5-.74,.14-.2,.2-.4,.11-.63h0Z"/><path class="cls-1" d="M29.46,119.61c.1-.07,.2-.15,.34-.25-.14,.39-.26,.55-.99,1.23-.32,.3-.62,.63-1.11,.82,.09-.31,.38-.34,.5-.59-.17-.02-.36,.11-.49-.06-.04-.1,0-.17,.08-.23,.12-.09,.25-.16,.37-.25,.63-.46,1.07-1.04,1.21-1.82,.06-.34,.22-.58,.51-.75,.05-.03,.1-.06,.15-.1,.44-.3,.53-.55,.38-1.07-.02-.09-.07-.17-.03-.3,.2-.12,.4-.3,.59-.48,.19-.18,.38-.37,.64-.46-.19,.41-.64,.58-.84,.96,.02,.11,.07,.18,.17,.22,.21-.12,.33-.36,.57-.47,.06,.15-.05,.21-.11,.28-.1,.11-.2,.22-.31,.32-.11,.11-.18,.23-.19,.39-.02,.46-.24,.79-.64,1.01-.27,.15-.43,.36-.46,.67-.03,.34-.26,.6-.35,.92-.11,.05-.15,.15-.21,.24v0c.09-.06,.19-.12,.22-.24h0Z"/><path class="cls-1" d="M37.69,115.66c-.15-.21-.16-.38-.17-.56-.02-.35,0-.69,.07-1.03,.06-.37,.04-.72-.15-1.04-.12-.21-.13-.43-.09-.66,.02-.12,.04-.24,.07-.35,.1-.35,.06-.68-.13-.99-.05-.08-.1-.15-.09-.28,.02-.03,.04-.09,.08-.12,.59-.47,1.05-1.03,1.1-1.82,.26,.06,.38,.21,.33,.44-.07,.32-.16,.64-.4,.89-.23,.24-.45,.48-.69,.65,0,.06-.02,.07-.01,.08,.24,.47,.22,.96,.11,1.45-.05,.22-.02,.42,.09,.61,.18,.31,.22,.65,.14,1-.08,.35-.12,.71-.12,1.07,0,.21-.01,.42-.14,.68h0Z"/><path class="cls-1" d="M28.05,115.28c.02,.37-.36,.5-.41,.81,.34,.17,.71-.06,1.06,.07,.02,.25-.16,.33-.33,.37-.17,.04-.36,.03-.53,.03-.13,0-.27-.03-.4-.04-.17,.13-.16,.32-.22,.48-.08,.25-.18,.48-.4,.63-.26,.19-.53,.29-.85,.05-.48,.59-1.05,1.1-1.42,1.77-.13-.07-.09-.16-.05-.24,.08-.2,.21-.36,.35-.52,.29-.33,.58-.65,.87-.97,.08-.09,.17-.16,.29-.21,.46-.16,.74-.46,.83-.96,.09-.47,.37-.84,.74-1.15,.17-.14,.17-.14,.48-.13h0Z"/><path class="cls-1" d="M19.96,115.14c.16-.05,.23,.04,.29,.16,.12,.23,.24,.45,.4,.65,.15,.18,.32,.31,.55,.36,.16,.04,.32,.09,.48,.13,.33,.09,.62,.22,.82,.51,.11,.16,.3,.25,.47,.34,.33,.17,.67,.33,.98,.48,.16,.02,.21-.17,.39-.09-.31,.41-.67,.78-.83,1.27-.13-.29,.11-.5,.15-.75-.3-.15-.6-.29-.89-.43-.28-.15-.54-.32-.68-.63-.06-.13-.17-.21-.3-.25-.17-.06-.34-.13-.52-.16-.73-.13-1.08-.65-1.33-1.27-.04-.1-.07-.2,.02-.32h0Z"/><path class="cls-1" d="M20.67,118.24c.54-.67,.67-.74,.95-.52,.01,.1-.04,.17-.11,.23-.32,.29-.5,.67-.64,1.07-.09,.26-.1,.26-.31,.43-.31-.22-.08-.51-.1-.8-.28-.06-.49-.23-.65-.47-.12-.18-.34-.23-.54-.29-.14-.04-.29-.08-.31-.3,.34-.25,.5-.67,.92-.96-.08,.38-.39,.52-.5,.79,.02,.11,.13,.1,.21,.13,.25,.09,.46,.22,.6,.44,.11,.16,.24,.26,.47,.25h0Z"/><path class="cls-1" d="M24.31,119.58c.15,.34,.41,.58,.74,.74,.16,.08,.28,.22,.36,.39,.17,.33,.4,.59,.77,.71,.18,.06,.23,.18,.18,.3-.06,.15-.19,.18-.33,.17-.18-.01-.35-.08-.5-.19-.21-.15-.39-.33-.51-.56-.12-.22-.28-.38-.49-.5-.15-.08-.27-.18-.37-.32-.12-.18-.19-.37-.12-.59,.03-.09,.09-.16,.26-.15h0Z"/><path class="cls-1" d="M31.04,119.38c.03,.15,.07,.34,.11,.53,.05,.24,.05,.48-.04,.71-.06,.15-.15,.26-.32,.21-.12-.09-.1-.2-.1-.3,0-.55-.09-1.07-.43-1.53-.1-.13-.17-.29-.02-.42,.21-.04,.29,.16,.44,.22,.19,.04,.38-.02,.57-.06,.12-.03,.24-.03,.31,.1,.06,.11-.01,.25-.16,.33-.06,.04-.14,.06-.21,.09-.05,.02-.12,.04-.16,.14h0Z"/><path class="cls-1" d="M24.48,120.87c.12,.1,.12,.2,.04,.29-.09,.11-.21,.18-.34,.21-.42,.11-.83,.11-1.22-.1-.28-.15-.51-.37-.72-.6-.07-.08-.12-.17-.13-.28-.02-.11,.01-.21,.12-.27,.11-.06,.2-.02,.28,.07,.1,.11,.2,.22,.3,.33,.36,.39,.8,.51,1.31,.38,.11-.03,.23-.08,.37-.03h0Z"/><path class="cls-1" d="M19.03,116.04c-.06-.13-.15-.13-.28-.15-.46,.34-.83,.8-1.15,1.37-.04-.47-.04-.48,.9-1.48,.01-.14-.17-.2-.17-.33,0-.08,.01-.13,.06-.18,.06-.06,.14-.08,.21-.04,.28,.14,.59,.22,.88,.33,.04,.01,.06,.07,.1,.12-.07,.31-.42,.39-.58,.63-.16,.23-.39,.41-.59,.62-.2,.22-.39,.44-.58,.66-.11-.08-.06-.15-.03-.21,.13-.24,.32-.43,.51-.63,.24-.24,.48-.49,.71-.72h0Z"/><path class="cls-1" d="M17.67,119.65c-.34,.12-.39,.07-.46-.44-.03-.04-.07-.09-.11-.13-.42-.49-.44-1.12-.05-1.62,.08-.11,.18-.2,.32-.11,.08,.1,.03,.18,0,.27-.04,.13-.07,.26-.11,.39-.09,.28-.02,.51,.18,.73,.33,.36,.33,.46,.22,.93h0Z"/><path class="cls-1" d="M19.13,119.42c.1,.05,.12,.13,.13,.2,.07,.47,.38,.72,.77,.91,.11,.05,.22,.1,.32,.16,.07,.04,.09,.11,.08,.19-.01,.1-.08,.16-.17,.19-.06,.02-.12,.02-.18,.01-.52-.05-1.08-.57-1.17-1.09-.03-.15-.03-.3,.03-.44,.03-.07,.08-.13,.18-.13h0Z"/><path class="cls-1" d="M26.2,118.05c-.19,.34-.53,.58-.77,.93,.49,.19,.94,.12,1.35,0,.13,.1,.12,.19,.07,.27-.1,.18-.27,.28-.47,.3-.3,.03-.59,0-.88-.12-.13-.06-.24-.18-.43-.16,.05-.34,.3-.51,.48-.71,.18-.2,.37-.38,.56-.57l.08,.06h0Z"/><path class="cls-1" d="M15.11,118.09c.06,.05,.12,.09,.17,.15,.22,.23,.5,.32,.81,.33,.12,0,.24,0,.36,0,.09,0,.17,.05,.21,.15,.04,.12-.01,.21-.1,.27-.06,.04-.13,.08-.2,.09-.48,.06-.93-.04-1.29-.39-.09-.08-.16-.18-.19-.3-.03-.15,0-.27,.23-.3h0Z"/><path class="cls-1" d="M24.37,115.86c.06-.18,.19-.2,.33-.2,.39,0,.77,.06,1.13,.23,.21,.1,.38,.24,.48,.45,.04,.07,.03,.07-.04,.28-.08,.03-.15,0-.21-.04-.3-.25-.65-.35-1.03-.4-.18-.03-.35-.05-.52-.13-.07-.03-.13-.08-.15-.19h0Z"/><path class="cls-1" d="M22.82,114.93c.1,.07,.12,.14,.13,.22,.02,.42-.09,.8-.32,1.15-.04,.06-.09,.12-.15,.17-.08,.08-.18,.1-.29,.04-.13-.08-.13-.19-.08-.32,.02-.06,.05-.11,.08-.16,.17-.25,.28-.53,.34-.83,.04-.2,.05-.2,.29-.27h0Z"/><path class="cls-1" d="M17.34,106.29c-.06,.15-.2,.16-.32,.21-.32,.13-.62,.3-.89,.5-.37,.27-.65,.61-.78,1.06-.02,.07-.03,.14-.11,.19-.12-.02-.13-.11-.12-.2,.01-.21,.1-.41,.22-.58,.44-.65,1.07-1.02,1.8-1.25,.07-.02,.15-.02,.2,.06h0Z"/><path class="cls-1" d="M31.2,114.86c-.25,.08-.45,.22-.63,.41-.12,.13-.26,.25-.39,.36-.11,.09-.23,.13-.35,.05-.08-.09-.08-.19-.03-.27,.22-.33,.51-.58,.86-.77,.07-.04,.17-.05,.26-.05,.18,0,.28,.09,.28,.27h0Z"/><path class="cls-1" d="M27.55,112.1c-.15,.35-.5,.56-1.39,.89-.45,.17-.63,.19-.94,.1,0-.01,0-.03,0-.04,0-.01,.01-.03,.02-.03,.04-.02,.08-.04,.12-.06,.33-.1,.67-.17,.99-.3,.41-.16,.81-.37,1.21-.56h0Z"/><path class="cls-1" d="M29.72,120.16c-.22,.48-1.21,1.29-1.64,1.43,0-.05,0-.1,.03-.12,.54-.44,1.08-.87,1.61-1.31h0Z"/><path class="cls-1" d="M23.58,119.49c-.08-.23,.02-.34,.09-.45,.27-.41,.96-1.12,1.31-1.33-.04,.2-.04,.2-.4,.58-.18,.19-.35,.37-.52,.57-.16,.19-.3,.4-.49,.64h0Z"/><path class="cls-1" d="M16.97,107.24c-.32,.11-.55,.24-.76,.41-.21,.17-.3,.43-.47,.62-.13-.08-.1-.17-.07-.25,.09-.29,.29-.48,.53-.64,.2-.14,.41-.33,.77-.13h0Z"/><path class="cls-1" d="M26.22,112.29c-.36,.36-1.04,.58-1.52,.52,.2-.24,.48-.22,.72-.3,.24-.08,.46-.2,.8-.22h0Z"/><path class="cls-1" d="M28.74,112.52c-.24,.31-1.06,.66-1.53,.65-.02-.07,.02-.11,.08-.14,.3-.16,1.28-.49,1.45-.51h0Z"/><path class="cls-1" d="M27.79,113.24c.27-.07,.54-.15,.82-.21,.27-.07,.48-.28,.8-.32-.23,.29-.45,.43-.84,.54-.25,.07-.5,.2-.76,.11l-.02-.11h0Z"/><path class="cls-1" d="M23.18,111.52c-.25,.2-.73,.3-1.11,.3-.11,0-.25,.03-.31-.11,.06-.09,.15-.1,.24-.1,.4,.03,.78-.17,1.18-.08h0Z"/><path class="cls-1" d="M19.59,116.31c-.26,.47-.64,.84-.97,1.29-.03-.27-.03-.28,.35-.72,.18-.21,.35-.43,.62-.57h0Z"/><path class="cls-1" d="M31.19,114.87c.11-.04,.21-.09,.33-.13-.14,.24-.84,.9-1.22,1.15,.04-.23,.19-.34,.32-.47,.18-.19,.44-.31,.57-.55h0Z"/><path class="cls-1" d="M23.97,112.36s.05-.07,.08-.07c.4-.02,.78-.16,1.25-.24-.23,.29-.5,.32-.74,.37-.19,.04-.4,.11-.58-.06h0Z"/><path class="cls-1" d="M29.8,120.74c-.19,.36-.51,.57-.88,.73,0-.06-.02-.1-.01-.11,.28-.23,.56-.46,.89-.62h0Z"/><path class="cls-1" d="M16.21,108.54c0-.31,.17-.51,.62-.74-.1,.37-.42,.51-.62,.74h0Z"/><path class="cls-1" d="M24.19,112.09c-.25,.08-.48,.16-.74,.08,.26-.22,.48-.24,.74-.08h0Z"/><path class="cls-1" d="M26.27,118.48c-.02,.17-.14,.28-.27,.4q.02-.22,.27-.4h0Z"/><path class="cls-1" d="M16.74,108.38c.07,.05,.07,.09,.06,.14-.03,.08-.06,.17-.18,.2-.07-.17,.02-.25,.13-.34h0Z"/><path class="cls-1" d="M33.79,117.31c0-.26,.15-.42,.26-.58,.46-.69,.84-1.41,1.18-2.16,.14-.31,.28-.63,.37-.96,.02-.06,.03-.12,.1-.14,.09,.03,.09,.1,.08,.17-.05,.19-.09,.38-.15,.56-.37,.97-.82,1.89-1.41,2.74-.09,.12-.19,.23-.28,.34-.01,.02-.05,.01-.13,.02h0Z"/><path class="cls-1" d="M36.25,114.08c-.27,.92-.7,1.69-1.14,2.45-.19,.32-.39,.63-.68,.85-.13-.05-.13-.12-.1-.19,.01-.03,.03-.05,.05-.08,.68-.84,1.11-1.81,1.59-2.76,.04-.09,.05-.21,.27-.27h0Z"/><path class="cls-1" d="M35.33,112.43c.11,.12,.03,.21-.01,.3-.41,.86-1.25,2.15-1.55,2.38-.1-.05-.06-.12-.03-.18,.12-.2,.26-.4,.38-.61,.35-.59,.7-1.18,1.06-1.77,.03-.05,.06-.11,.15-.13h0Z"/><path class="cls-1" d="M36.13,115.55c.04,.35,0,.46-.32,.89-.6,.83-.93,1.17-1.21,1.26-.07-.12,.02-.2,.08-.27,.15-.19,.31-.36,.47-.55,.18-.22,.36-.44,.53-.67,.17-.21,.3-.44,.45-.66h0Z"/><path class="cls-1" d="M35.05,118.09c-.01-.05-.02-.08-.02-.11,0-.03,.01-.06,.03-.08,.4-.51,.85-.99,1.21-1.53,.12,.05,.12,.13,.08,.19-.07,.13-.14,.26-.23,.38-.25,.32-.5,.63-.76,.94-.07,.09-.14,.2-.31,.21h0Z"/><path class="cls-1" d="M33.63,113.98c.08-.29,.25-.54,.41-.78,.03-.05,.08-.09,.15-.07-.03,.32-.27,.71-.56,.85h0Z"/><path class="cls-1" d="M35.47,118.22c.19-.4,.46-.65,.77-.89,.02,.07,.04,.1,.03,.12-.09,.21-.26,.35-.41,.52-.08,.09-.14,.22-.39,.25h0Z"/><path class="cls-1" d="M35.95,118.42c.03-.29,.24-.47,.46-.67-.03,.29-.07,.36-.46,.67h0Z"/><path class="cls-1" d="M33.36,113.37c0-.21,.07-.37,.37-.42-.1,.21-.2,.34-.37,.42h0Z"/><path class="cls-1" d="M36.2,118.65q.09-.26,.32-.38c-.03,.22-.16,.32-.32,.38h0Z"/></g><g><path class="cls-1" d="M217.82,177.69c.18-.14,.34-.07,.51,0,.42,.18,.76,.47,1.08,.79,.08,.08,.13,.2,.26,.21,.22-.37-.11-.76,.05-1.14,.14,.03,.2,.11,.23,.21,.11,.32,.18,.65,.1,.97-.09,.4-.03,.76,.12,1.12,.05,.11,.08,.23,.09,.35,.15,1.16,.63,2.24,.74,3.41,0,.06,.02,.12,.04,.18,.25,.66,.31,1.37,.45,2.05,.06,.32,.09,.64,.24,.99,.24-.22,.4-.45,.54-.69,.4-.67,.73-1.37,1-2.1,.03-.09,.02-.21,.14-.25,.12,.08,.09,.2,.06,.29-.35,1.14-.82,2.21-1.65,3.1,.05,.42,.12,.83,.27,1.27,.29-.15,.56-.07,.84,0,.22,.05,.44,.07,.67,.09,.17,.02,.32-.02,.47-.11,.29-.18,.5-.42,.67-.71,.07-.11,.11-.25,.28-.26,.19,.05,.15,.23,.19,.37,.04,.14-.06,.3,.04,.43,.55,.18,1.1,.13,1.67,0,.19-.21,.38-.46,.56-.71,.77-1.1,1.74-1.92,3.07-2.25,.07-.02,.14-.04,.19-.06,.16-.21,.15-.44,.15-.67,.01-.46-.05-.92-.1-1.38-.05-.44-.18-.84-.47-1.19-.23-.28-.41-.58-.54-.92-.11-.3-.29-.56-.51-.78-.78-.79-1.61-1.52-2.6-2.05-.41-.22-.82-.43-1.24-.62-.56-.25-1.12-.5-1.74-.57-.56-.06-1.13-.1-1.7-.12-1.5-.06-2.99,.12-4.48,.19-.09,0-.18,.03-.26,.05-.33,.08-.67,.15-1,.24-.61,.16-1.23,.3-1.78,.6-.64,.36-1.3,.66-2.02,.85-.47,.12-.87,.38-1.23,.71-.81,.72-1.51,1.53-2.1,2.44-.26,.41-.46,.83-.56,1.31-.15,.66-.32,1.31-.62,1.92-.09,.18-.11,.37-.11,.57,0,.32,.06,.62,.15,.92,.07,.23,.13,.46,.08,.7-.03,.14,0,.27,.05,.39,.16,.41,.38,.77,.73,1.06,.29,.24,.61,.44,.93,.62,.27,.15,.5,.33,.66,.59,.07,.11,.13,.24,.31,.26,.05-.3-.33-.55-.13-.85,.1-.02,.16,0,.19,.06,.17,.3,.39,.57,.46,.92,.07,.36,.26,.63,.55,.84,.24,.18,.48,.36,.73,.52,.4,.25,.83,.4,1.32,.35,.27-.03,.54,.02,.8,.1,.39,.12,.79,.15,1.2,.12,.23-.02,.47-.04,.66-.21-.21-.46-.25-.48-.67-.42-.12,.02-.24,.04-.36,.05-.31,.01-.59-.08-.84-.26-.09-.06-.16-.14-.08-.29,.37-.03,.69,.37,1.13,.18-.08-.1-.14-.17-.19-.24-.2-.28-.4-.56-.54-.87-.06-.14-.11-.27,0-.4,.2,.02,.25,.17,.33,.29,.16,.25,.31,.51,.48,.76,.1,.14,.21,.29,.43,.35-.03-.21-.06-.39-.06-.56,0-.17-.16-.38,.06-.52,.12,.03,.14,.11,.17,.2,.06,.22,.11,.43,.18,.65,.09,.27,.21,.53,.42,.73,.26,.25,.53,.48,.8,.71,.16,.14,.35,.22,.56,.16,.07-.17-.1-.4,.17-.46,.16,.06,.15,.22,.23,.32,.1,.13,.2,.28,.38,.29,.44,.03,.87,.01,1.26-.3,0-.16,.02-.34,.02-.52,0-.46-.01-.93-.02-1.39,0-.16-.04-.33,.15-.42,.19,.19,.2,.19,.21,.46,.02,.4,0,.81,.02,1.21,0,.16-.03,.33,.06,.48,.39,.02,.58-.12,.63-.45,.02-.12,.03-.23,.07-.35,.23-.66,.28-1.34,.14-2.03-.05-.26-.1-.53-.13-.8-.13-.93-.32-1.85-.58-2.76-.13-.47-.24-.96-.33-1.44-.14-.79-.25-1.59-.44-2.38-.13-.54-.27-1.07-.35-1.62-.16-1.08-.73-1.88-1.61-2.48-.09-.06-.18-.11-.26-.17-.06-.04-.12-.09-.14-.22h0Zm20.61,15.28c.3-.17,.43-.43,.45-.77,.03-.57,.08-1.13,.1-1.7,.02-.48,.03-.96-.14-1.42-.58-1.6-1.43-3.01-2.85-4.03-.36-.26-.74-.44-1.15-.58-.22-.07-.44-.09-.66-.03-.44,.13-.89,.26-1.33,.39-.19,.06-.35,.17-.48,.32-.12,.14-.27,.25-.45,.26-.39,.03-.75,.19-1.13,.27-.46,.1-.87,.3-1.27,.55-.36,.23-.67,.5-.97,.79-.53,.51-.92,1.13-1.33,1.74-.18,.28-.35,.55-.68,.69-.15,.06-.26,.2-.38,.32-.42,.43-.77,.91-1.23,1.3-.36,.31-.24,.86,.2,1.08,.11,.06,.22,.08,.34,.09,.32,0,.62,.08,.88,.23,1.32-.34,3.42-.57,4.02-.44-.68,.08-1.35,.15-2.01,.23-.52,.06-1.04,.14-1.54,.27-.1,.02-.21,.03-.27,.17,.18,.19,.41,.32,.66,.43,.3,.13,.6,.27,.9,.4,.27,.12,.55,.24,.84,.29,.29,.06,.52,.18,.73,.41,.24,.26,.52,.5,.88,.59,.19,.05,.31,.16,.39,.34,.02,.05,.05,.11,.08,.16,.25,.36,.54,.64,1.04,.55,.19-.03,.39,0,.58,.02,.31,.04,.63,.02,.94,.01,.41-.02,.76-.14,1.04-.44,.27-.27,.6-.44,.98-.52,.26-.06,.52-.14,.78-.19,.27-.06,.5-.18,.72-.35,.38-.29,.5-.62,.37-1.09-.04-.16-.12-.3-.19-.45-.05-.11-.12-.21-.17-.31-.04-.07-.04-.14,.09-.2,.33,.19,.44,.59,.73,.85,.13-.5,.14-.7,.07-1.2-.03-.18-.09-.37,.01-.54,.12-.02,.17,.04,.21,.1,.08,.11,.11,.24,.15,.37,.09,.34,.03,.68,.07,1.03h0Zm-7.02-7.93c.31,.06,.53,.01,.72-.2,.24-.26,.54-.42,.87-.53,.36-.11,.7-.26,1.06-.35,.35-.09,.68-.06,1.01,.07,.31,.12,.6,.28,.86,.48,.51,.39,.99,.82,1.4,1.32,.35,.43,.69,.86,.99,1.33,.42,.64,.74,1.33,1.03,2.04,.23,.56,.28,1.16,.24,1.76-.03,.45-.08,.89-.15,1.34-.09,.61-.41,1.09-.91,1.43-.24,.16-.4,.36-.5,.61-.09,.22-.24,.37-.42,.51-.45,.32-.93,.6-1.49,.69-.18,.03-.35,.1-.52,.13-.19,.03-.34,.12-.46,.25-.39,.42-.89,.58-1.45,.58-.37,0-.75,.03-1.11-.08-.15-.04-.3-.01-.44,.02-.31,.08-.59,0-.85-.17-.37-.24-.72-.48-.93-.88-.4-.1-.72-.31-.97-.63-.1-.13-.23-.18-.38-.21-.47-.1-.92-.26-1.33-.51-.1-.06-.21-.11-.33-.14-.43-.11-.79-.35-1.14-.61-.17-.12-.37-.19-.51-.35-.09-.1-.25-.08-.38-.08-.42,0-.67-.21-.82-.58-.03-.07-.06-.13-.09-.2-.25-.6-.18-1,.3-1.46,.33-.31,.64-.63,.9-1,.18-.26,.46-.42,.77-.66-.55,.05-1.01,.02-1.45-.2-.12,.06-.24,.13-.36,.19-.47,.24-.96,.32-1.48,.21-.24-.05-.49-.13-.74,.02-.06,.2-.01,.4,.01,.59,.03,.22,.06,.45,0,.67-.1,.42-.14,.85-.27,1.27-.09,.27-.05,.56-.2,.82-.06,.1-.11,.21-.18,.31-.12,.15-.29,.21-.47,.2-.15,0-.3-.03-.45-.04-.56,.52-1.19,.57-1.85,.29-.05,0-.08,0-.11,.01-.38,.25-.72,.11-1.03-.12-.2-.15-.39-.32-.61-.49-.66,.28-1.35,.34-2.05,.31-.07,0-.15,0-.22-.02-.38-.11-.75-.16-1.14-.07-.13,.03-.26-.02-.4-.05-.5-.14-.95-.35-1.35-.68-.21-.17-.42-.34-.61-.53-.27-.25-.51-.54-.86-.7-.1-.05-.2-.14-.26-.24-.28-.45-.73-.71-1.17-.94-1.05-.54-1.45-1.44-1.47-2.56,0-.15,0-.29-.05-.44-.05-.16-.08-.32-.12-.48-.11-.47-.08-.92,.11-1.36,.25-.58,.41-1.19,.54-1.8,.1-.48,.3-.9,.55-1.31,.69-1.13,1.64-2,2.62-2.86,.18-.16,.39-.27,.62-.36,.32-.12,.64-.24,.97-.35,.31-.1,.63-.21,.9-.4,.78-.52,1.66-.74,2.55-.95,.92-.22,1.85-.3,2.79-.37,.57-.04,1.13-.08,1.7-.13,.63-.05,1.25,.04,1.88,.05,1.1,0,2.13,.27,3.1,.78,.32,.16,.64,.32,.96,.48,.61,.32,1.19,.69,1.69,1.17,.27,.26,.55,.5,.84,.75,.42,.36,.71,.81,.9,1.32,.1,.26,.21,.5,.39,.7,.51,.59,.67,1.32,.81,2.06,.08,.44,.11,.88,.05,1.33h0Z"/><path class="cls-1" d="M220.39,177.74c.19-.27,.38-.32,.58-.32,.27,0,.54,.01,.81,.03,.42,.03,.83,.05,1.25-.04,.24-.05,.48,0,.7,.09,.55,.2,1.11,.35,1.67,.52,.49,.15,.95,.37,1.38,.63,.13,.08,.29,.15,.32,.33-.11,.09-.19,.04-.27,0-.16-.07-.32-.16-.48-.24-.4-.2-.81-.37-1.25-.5-.44-.13-.88-.28-1.32-.43-.3-.1-.61-.15-.92-.08-.38,.09-.77,.08-1.16,0-.41-.08-.81-.17-1.31,0h0Z"/><path class="cls-1" d="M222.12,187.37c.02-.05,.02-.1,.05-.13,.45-.55,.87-1.12,1.26-1.71,0,0,.03,0,.05,0,.1,.1,.03,.2-.01,.28-.28,.58-.67,1.08-1.11,1.55-.05,.05-.12,.1-.23,.02h0Z"/><path class="cls-1" d="M217.16,178.27c.18,.12,.2,.29,.2,.45,.01,.51,.01,1.01,.01,1.52,0,.12-.04,.23-.15,.29-.12-.03-.1-.11-.1-.19,0-.42,0-.84,.01-1.25,0-.16,0-.33-.05-.49-.03-.1-.04-.21,.07-.33h0Z"/><path class="cls-1" d="M226.26,186.09c.14,.27,0,.49-.09,.71-.26,.59-.42,.79-.69,.94-.05-.04-.08-.1-.04-.16,.29-.49,.59-.96,.83-1.49h0Z"/><path class="cls-1" d="M228.31,179.9c.25,.04,.36,.19,.47,.32,.27,.34,.61,.64,.78,1.04-.07,.1-.14,.09-.18,.05-.35-.41-.69-.82-1.03-1.23-.02-.03-.02-.08-.04-.18h0Z"/><path class="cls-1" d="M209.51,182.65c0-.46,.47-1.16,1.11-1.62,.1,.06,.04,.13,0,.18-.1,.13-.21,.25-.31,.38-.24,.28-.47,.58-.64,.92-.03,.07-.05,.14-.15,.14h0Z"/><path class="cls-1" d="M212.25,190.02c-.29-.58,0-1.47,.55-1.82,.07,.03,.09,.08,.05,.14-.35,.45-.53,.95-.52,1.52,0,.04-.03,.08-.07,.17h0Z"/><path class="cls-1" d="M217.8,179.25c.2,.02,.22,.14,.22,.23,0,.45,.17,.91-.03,1.35-.11,.03-.15-.02-.15-.08-.02-.49-.03-.98-.05-1.49h0Z"/><path class="cls-1" d="M221.74,185.87c.07-.38,.54-1.37,.74-1.62,.1,.03,.07,.12,.06,.18-.13,.47-.51,1.17-.79,1.44h0Z"/><path class="cls-1" d="M225.96,187.83c.13-.29,.36-.45,.49-.68,.13-.23,.27-.45,.42-.7,.09,.25,.03,.47-.3,.91-.15,.2-.26,.45-.61,.47h0Z"/><path class="cls-1" d="M222.89,187.35c.03-.1,.03-.15,.06-.18,.33-.34,.56-.76,.86-1.11,0,0,.03,0,.04,0,0,.44-.49,1.11-.96,1.28h0Z"/><path class="cls-1" d="M213.11,188.94c-.17,.41-.45,.76-.4,1.21-.13,.05-.16-.03-.17-.1-.02-.09-.02-.18,0-.26,.06-.29,.19-.57,.37-.81,.04-.05,.08-.08,.2-.05h0Z"/><path class="cls-1" d="M209.58,183.39c-.02-.52,.28-.99,.73-1.17-.06,.25-.26,.38-.36,.56-.1,.18-.21,.35-.37,.62h0Z"/><path class="cls-1" d="M218.46,181.22c-.05-.05-.09-.07-.09-.08,.03-.34,.06-.68,.09-1.02,0-.04,.03-.09,.09-.09,.16,.4,.13,.78-.09,1.19h0Z"/><path class="cls-1" d="M213.14,190.33c-.26-.34-.05-.62,.1-.9,.11,0,.11,.08,.09,.13-.09,.25-.15,.5-.19,.77h0Z"/><path class="cls-1" d="M218.93,180.76c.15,.27,.14,.36-.11,.83-.12-.2-.11-.25,.11-.83h0Z"/><path class="cls-1" d="M210.12,183.07c-.09,.27-.26,.48-.47,.76-.03-.44,.2-.62,.47-.76h0Z"/><path class="cls-1" d="M223.71,187.25c.06-.28,.24-.46,.38-.67,.13,.03,.11,.11,.08,.18-.1,.21-.23,.4-.46,.49h0Z"/><path class="cls-1" d="M218.97,182.21c-.09-.31-.02-.52,.06-.75,.17,.22,.17,.35-.06,.75h0Z"/><path class="cls-1" d="M226.68,187.78c.09-.31,.22-.48,.37-.66,.08,.27,.04,.35-.37,.66h0Z"/><path class="cls-1" d="M213.5,189.97c.14,.19,.08,.34,.08,.51-.23-.13-.23-.17-.08-.51h0Z"/><path class="cls-1" d="M210.04,183.78c.03,.17-.02,.27-.16,.39-.04-.18-.02-.29,.16-.39h0Z"/><path class="cls-1" d="M231.54,195.03c.23-.06,.36,.03,.5,.08,.37,.13,.73,.14,1.08-.07,.05-.03,.11-.06,.16-.07,.67-.21,1.1-.69,1.45-1.26,.4-.65,.67-1.37,.89-2.1,.05-.15,.05-.33,.23-.4,.14,0,.19,.09,.23,.19,.07,.2,.08,.41,.07,.62-.03,.35-.12,.68-.27,.99-.37,.72-.79,1.41-1.45,1.91-.62,.48-1.3,.78-2.11,.68-.35-.04-.59-.23-.77-.57h0Z"/><path class="cls-1" d="M235.99,191.13c-.18-.12-.23-.28-.26-.44-.13-.61-.1-1.21,.18-1.79,.11-.23,.22-.45,.27-.71,.15-.74-.05-1.39-.46-1.99-.1-.15-.22-.28-.34-.42-.05-.06-.11-.11-.07-.2,.08-.09,.16-.04,.23,.02,.18,.14,.31,.32,.41,.53,.28,.58,.51,1.18,.58,1.82,.04,.35,.02,.68-.1,1.01-.21,.56-.35,1.14-.28,1.75,.02,.14,.02,.3-.16,.4h0Z"/><path class="cls-1" d="M234.47,192.92c.02,.25-.11,.35-.2,.45-.54,.54-1.16,.93-1.91,1.1-.4,.09-.79,.07-1.14-.17,0-.11,.07-.11,.13-.1,1.22,.22,2.13-.33,2.95-1.14,.04-.04,.09-.07,.18-.15h0Z"/><path class="cls-1" d="M233.55,192.96c-.03,.22-.16,.28-.27,.35-.53,.34-1.11,.51-1.73,.54-.16,0-.33-.03-.48-.07-.1-.02-.2-.07-.22-.23,.3-.03,.6,.07,.9,.04,.31-.04,.62-.11,.91-.22,.29-.11,.56-.25,.9-.4h0Z"/><path class="cls-1" d="M232.41,192.95c-.34,.4-.95,.45-1.3,.14,.23-.08,.45,0,.66-.03,.21-.04,.43-.07,.64-.11h0Z"/><path class="cls-1" d="M225.9,191.73c-.33-.06-.36-.22-.38-.39-.03-.3,.02-.44,.25-.64-.01,.34-.14,.66,.12,1.03h0Z"/><path class="cls-1" d="M226.23,190.66v.68c-.3-.08-.32-.29,0-.68h0Z"/><path class="cls-1" d="M231.09,192.83c.18-.19,.4-.15,.67-.11-.22,.24-.44,.17-.67,.11h0Z"/><path class="cls-1" d="M226.79,191.09c-.14-.17-.14-.28-.02-.43,.11,.14,.09,.25,.02,.43h0Z"/></g><g><path class="cls-1" d="M124.71,22.41s.02,.03,.03,.03c.01,0,.03-.01,.03-.02,.03-.09,.06-.18,.09-.27,0-.03-.02-.05-.04-.04-.06,.09-.11,.19-.1,.3h0Zm.02-1.81h.03v-.56h-.03v.56h0Zm0,1.15c.15-.22,.13-.39,.07-.64-.12,.24-.1,.41-.07,.64h0Zm10.53,7.88c-.15,.1-.24,.25-.32,.41,.14,.04,.26,.04,.37-.07,0-.1,.06-.22-.05-.34h0Zm-10.34-6.16c-.13,.29-.34,.46-.26,.81,.16-.26,.41-.41,.26-.81h0Zm-.27,.08c.32-.44,.32-.47,.23-.89-.12,.28-.26,.53-.23,.89h0Zm-.06,1.42c.43-.38,.46-.46,.37-.77-.33,.34-.35,.39-.37,.77h0Zm0,1.52c.18-.31,.55-.52,.51-1.03-.26,.36-.52,.63-.51,1.03h0Zm.44-1.66c-.48,.51-.5,.56-.42,.91q.47-.58,.42-.91h0Zm9.4,5.28c.15,.04,.26,.03,.3-.06,.13-.26,.33-.46,.48-.7,.05-.08,.08-.16,0-.27-.27,.35-.52,.68-.79,1.04h0Zm-6.72,7.03c-.23,.29-.47,.53-.71,.86,.33,0,.58-.04,.81-.15,.03-.24,0-.45-.1-.71h0Zm-.23-3.47c-.09-.02-.11,.06-.15,.11-.16,.25-.33,.51-.48,.76-.14,.23-.28,.47-.42,.7-.07,.12-.12,.23-.04,.36,.11-.03,.14-.12,.19-.18,.24-.33,.46-.68,.72-1,.18-.23,.27-.47,.18-.76h0Zm.05,1.81c-.34,.45-.65,.85-.96,1.25-.13,.16-.13,.35-.08,.53,.12,0,.15-.09,.2-.15,.23-.29,.45-.59,.7-.86,.19-.22,.25-.44,.14-.78h0Zm0-.92s-.06,0-.06,.01c-.32,.46-.65,.91-.97,1.37-.09,.13-.09,.27-.04,.41,.09,.01,.12-.04,.15-.08,.27-.34,.53-.7,.81-1.03,.18-.21,.17-.44,.11-.68h0Zm.15,1.78s-.06,0-.06,0c-.39,.41-.71,.86-1.04,1.32-.09,.13-.11,.27,0,.42,.05,0,.11,0,.12-.02,.27-.4,.61-.74,.91-1.1,.16-.19,.13-.4,.06-.6h0Zm.12,2.14c-.31-.07-.41-.08-.69,.02-.17,.06-.34,.11-.52,.09-.36-.03-.52-.18-.58-.53-.03-.19-.03-.38-.02-.58,.06-.9,.02-1.79-.24-2.66-.13-.42-.17-.86-.16-1.31,.02-.77-.07-1.54-.1-2.31-.01-.44-.07-.88-.1-1.32-.07-.92-.13-1.84-.2-2.76,0-.08,.03-.16-.06-.24-.2,.15-.24,.44-.47,.58-.05-.13,.02-.21,.06-.29,.11-.17,.23-.34,.35-.51,.13-.19,.13-.21,0-.49-.18,.24-.33,.49-.46,.74-.05,.09-.06,.18-.07,.28-.03,.51-.06,1.02-.08,1.53-.05,1.46-.05,2.92-.15,4.37-.06,.81-.05,1.63-.22,2.42-.07,.33,0,.59,.23,.83,.65,.66,1.12,1.46,1.72,2.16,.14,.16,.28,.26,.49,.26,.11,0,.22,0,.33,0,.27-.05,.54-.1,.82-.11,.07,0,.13-.04,.13-.16h0Zm5.84-20.24c-.69,.02-1.35,0-2,.07-.59,.06-1.18,.06-1.77,0-.83-.08-1.65-.03-2.46,.13-.29,.06-.57,.1-.86,.08-.46-.02-.91,.02-1.36,.05-.09,0-.2,0-.27,.07-.03,.08,0,.16,0,.24,.1,.54,.19,1.08,.23,1.63,.07,.89,.13,1.78,.18,2.68,.07,1.35,.17,2.69,.3,4.04,.08,.79,.15,1.59,.21,2.39,.05,.67,.13,1.34,.12,2.02,0,.84,.03,1.68,.09,2.51,.02,.29,.07,.58,.21,.89,.4-.65,.76-1.27,1.22-1.84,0-.16,.03-.33-.09-.51-.17,.2-.31,.38-.46,.56q-.31,.37-.56,.47c.04-.22,.2-.33,.31-.48,.13-.16,.27-.32,.4-.48,.12-.15,.27-.28,.32-.48,0-.08-.02-.16-.03-.24-.03-.48,.11-.66,.57-.74,.07-.01,.14-.02,.2-.03,.33-.04,.65-.1,.97-.19,.57-.16,1.15-.29,1.74-.34,.72-.06,1.42-.2,2.12-.36,.17-.04,.3-.1,.42-.24,.22-.26,.46-.51,.69-.77,.41-.45,.79-.92,1.09-1.45,0-.12,.03-.25-.07-.35-.07,0-.09,.06-.12,.11-.46,.76-1.04,1.42-1.61,2.09-.15,.18-.32,.35-.52,.47-.06,.03-.12,.07-.18,0-.01-.06,.02-.11,.07-.14,.66-.59,1.19-1.3,1.73-1.99,.14-.17,.26-.36,.38-.54,.16-.24,.22-.48,.18-.78-.19-1.4-.43-2.8-.71-4.19-.12-.61-.28-1.21-.42-1.81-.06-.27-.13-.54-.07-.82,.11-.51-.01-1.01-.07-1.52,0-.06-.05-.12-.1-.23h0Zm-5.14,21.31c.13-.03,.27-.04,.4-.09,.16-.06,.32-.09,.49-.07,.91,.09,1.82-.03,2.72,0,.76,.02,1.51-.05,2.27-.08,.91-.04,1.82-.04,2.72-.06,.62-.02,1.24,0,1.86,.02,.27,.01,.55,.04,.82,.05,.83,.02,1.65,.05,2.48,.05,.58,0,1.16,.04,1.73,.05,.41,0,.82,0,1.2,0,.32-.27,.4-.6,.4-.96,0-.95-.08-1.9-.18-2.84-.08-.71-.14-1.43-.32-2.12-.09-.34-.09-.68-.02-1.02,.04-.2,.07-.41,.11-.61,.04-.22,.05-.44,.01-.66-.03-.16-.11-.28-.25-.35-.15-.07-.3-.13-.46-.18-1.07-.4-2.2-.64-3.22-1.16-.19-.1-.4-.08-.61-.04-1.03,.19-2.06,.38-3.08,.59-.85,.17-1.7,.32-2.56,.45-.72,.11-1.45,.18-2.16,.34-.51,.11-1.03,.2-1.55,.26-.6,.07-1.2,.14-1.79,.29-.49,.13-.98,.27-1.5,.28-.11,0-.22,.02-.31,.11-.08,.16-.03,.32,.01,.48,.1,.36,.14,.73,.14,1.1,0,.14,.03,.27,.03,.41,.02,.77,.15,1.53,.22,2.3,.04,.36,.03,.72,.08,1.07,.09,.68,.15,1.37,.16,2.06,0,.11,0,.22,.14,.34h0Zm5.12-9.31c.17,.01,.33,0,.52-.08,.3-.39,.61-.8,.93-1.21,.14-.18,.19-.37,.06-.64-.4,.69-.92,1.23-1.43,1.79-.03,.04-.05,.1-.07,.14h0Zm2.18-.39c.17,.05,.31,.01,.44-.01,1.15-.22,2.3-.44,3.45-.65,.22-.04,.43-.07,.65-.1,.49-.07,.95-.03,1.4,.2,.53,.26,1.1,.43,1.67,.6,.5,.15,.99,.33,1.49,.49,.51,.16,.71,.52,.73,1.03,.01,.38-.08,.74-.13,1.11-.05,.31-.05,.6,.03,.9,.22,.84,.27,1.71,.41,2.57,.08,.52,.15,1.03,.22,1.55,.07,.5,.02,.99-.07,1.48-.1,.52-.6,.91-1.17,.93-.47,.02-.94,0-1.4-.05-.22-.03-.44-.04-.66-.03-.79,.06-1.57-.06-2.35-.07-.83-.01-1.65-.08-2.48,.01-.23,.03-.47,.02-.7,0-.48-.04-.96-.03-1.44,0-.58,.04-1.16,.06-1.73,.04-.86-.03-1.71,.03-2.56,.1-.73,.06-1.46-.06-2.18,0-.15,.01-.3,0-.45,.03-.03,0-.05,0-.08,.01-.67,.06-.87-.1-.98-.75,0-.03-.01-.05-.03-.1-.22-.09-.45-.04-.67,0-.26,.05-.51,.11-.78,.06-.3-.05-.53-.18-.73-.43-.35-.44-.7-.89-1.02-1.35-.19-.27-.42-.51-.64-.76-.31-.34-.4-.74-.32-1.19,.1-.61,.14-1.23,.15-1.85,0-.78,.09-1.57,.13-2.35,.02-.37,.03-.74,.02-1.11-.03-.97,.1-1.92,.1-2.89,0-.36,0-.72,0-1.07,.02-1.03,.07-2.06,.13-3.09,.05-.89,.07-1.79,.1-2.68,.02-.59,.1-1.18,.2-1.76,.05-.31,.13-.38,.46-.44,.46-.08,.93-.1,1.4-.08,.33,.01,.66-.03,.98-.09,.84-.16,1.69-.2,2.55-.13,.56,.05,1.13,.09,1.69-.01,.04,0,.08-.01,.12-.01,.55-.02,1.1-.05,1.65-.06,.48-.01,.66,.13,.73,.59,.08,.54,.2,1.08,.11,1.64-.03,.19,0,.38,.06,.57,.28,1.07,.52,2.14,.71,3.22,.17,.96,.32,1.93,.46,2.89,.13,.89,.23,1.77,.27,2.67,0,.14,.02,.27,.08,.42h0Z"/><path class="cls-1" d="M127.96,31.88c.06-.12,.18-.12,.28-.12,.4,0,.79-.12,1.18-.21,.56-.13,1.14-.21,1.72-.23,.52-.01,1.04-.08,1.56-.13,.05,0,.11-.02,.16-.02,.96-.04,1.92-.09,2.89-.1,.76,0,1.51,.03,2.27-.06,.63-.07,1.26-.1,1.89-.15,.37-.03,.74,.01,1.11,.02,.19,0,.39,0,.58-.02,.67-.08,1.35-.03,2.02-.08,.24-.02,.5,0,.74,.07,.5,.14,.74,.45,.67,1.02-.04,.27-.1,.54-.16,.81-.05,.21-.04,.41,.03,.61,.14,.42,.16,.87,.31,1.28,.04,.1,.03,.22,.02,.33-.02,.53,.05,1.04,.13,1.56,.1,.63,.15,1.26,.12,1.89,0,.12-.03,.24-.05,.37-.04,.23-.19,.36-.4,.43-.22,.07-.45,.1-.66-.08,.1-.11,.22-.07,.32-.1,.2-.06,.34-.17,.41-.37,.09-.22,.11-.45,.1-.69-.04-.53-.06-1.07-.18-1.6-.09-.39-.1-.79-.09-1.19,0-.26-.02-.52-.09-.77-.11-.4-.19-.8-.26-1.21-.05-.3,.03-.6,.08-.9,.03-.19,.11-.37,.11-.57,0-.3-.13-.48-.43-.51-.28-.03-.57-.08-.86,0-.24,.07-.49,.08-.74,.08-.26,0-.52,.02-.78,.05-.54,.06-1.07,0-1.61,.01-.11,0-.22-.01-.33,0-.82,.05-1.65,.11-2.47,.17-.51,.04-1.02,.04-1.53,0-.43-.04-.85-.08-1.28-.03-.63,.07-1.27,.01-1.9,.07-.62,.06-1.24,.09-1.85,.12-.69,.03-1.37,.16-2.03,.33-.3,.08-.59,.12-.89,.02-.05-.02-.1-.04-.12-.11h0Z"/><path class="cls-1" d="M133.2,35.18c-.17,.48-.98,1.74-1.62,2.53-.19,.23-.34,.5-.62,.64-.09-.07-.06-.13-.02-.19,.04-.07,.08-.14,.14-.21,.67-.8,1.23-1.68,1.84-2.53,.06-.09,.1-.19,.28-.24h0Z"/><path class="cls-1" d="M133.6,35.64c.03,.17-.05,.27-.11,.37-.49,.84-.97,1.69-1.61,2.43-.08,.09-.16,.19-.28,.23-.02,0-.05,0-.07-.02,0,0-.02-.02-.03-.03,0-.01,0-.03,0-.04,.73-.93,1.34-1.93,2-2.91,.01-.02,.05-.02,.1-.04h0Z"/><path class="cls-1" d="M132.93,34.56c.08,.14-.03,.24-.09,.34-.72,1.26-1.51,2.33-1.89,2.56-.07-.06-.03-.13,0-.18,.05-.08,.1-.17,.16-.24,.54-.71,1.02-1.46,1.54-2.19,.07-.11,.12-.25,.29-.28h0Z"/><path class="cls-1" d="M141.13,33.51c.07,.18,.15,.24,.31,.16-.04-.15-.13-.18-.31-.16h0Zm-.24-.15c.27-.1,.41-.32,.56-.54,.2-.28,.4-.55,.61-.82,.05-.07,.1-.17,.25-.15,0,.19-.16,.3-.25,.44-.1,.16-.22,.31-.33,.47-.1,.15-.19,.29-.29,.44,.09,.11,.17,.2,.23,.3,.07,.11,.07,.24-.02,.35-.08,.11-.2,.13-.33,.09-.29-.07-.42-.23-.42-.59h0Z"/><path class="cls-1" d="M132.45,38.52c.02-.09,.02-.14,.04-.17,.48-.63,.94-1.27,1.38-1.93,0,0,.03,0,.08,0,0,.28-.16,.48-.29,.69-.49,.82-.86,1.25-1.2,1.41h0Z"/><path class="cls-1" d="M131.04,36.49c-.04-.06-.03-.1,0-.14,.1-.15,.2-.3,.31-.43,.35-.42,.64-.87,.94-1.32,.11,.06,.11,.11,.08,.16-.33,.62-.74,1.18-1.23,1.69-.02,.02-.05,.02-.09,.04h0Z"/><path class="cls-1" d="M142.94,31.71c.06,.06,.03,.13,0,.19-.22,.4-.87,1.24-1.03,1.35-.07-.06-.03-.13,0-.19,.17-.35,.82-1.19,1.04-1.35h0Z"/><path class="cls-1" d="M133.44,38.34c-.07-.06-.03-.13,0-.19,.14-.31,.66-.99,.91-1.2,.1,.03,.08,.1,.05,.16-.03,.06-.06,.12-.1,.18-.21,.3-.42,.61-.64,.91-.05,.07-.1,.17-.22,.14h0Z"/><path class="cls-1" d="M130.37,38.04c0,.15-.1,.26-.26,.26-.2,0-.37-.17-.36-.37,0-.14,.13-.25,.28-.24,.19,.01,.34,.17,.34,.35h0Z"/><path class="cls-1" d="M143.35,32.13s.04,.08,.02,.11c-.26,.4-.52,.8-.78,1.2-.02,.03-.07,.04-.11,0,.11-.43,.54-1.09,.86-1.32h0Z"/><path class="cls-1" d="M140.5,32.63c0,.14-.13,.24-.28,.23-.15-.01-.27-.12-.27-.25,0-.15,.14-.26,.31-.25,.15,.01,.25,.13,.24,.27h0Z"/><path class="cls-1" d="M141.78,31.84c-.18,.41-.44,.64-.61,.93-.03,.05-.08,.07-.15,.06-.08-.12,.01-.21,.06-.29,.18-.31,.37-.51,.69-.69h0Z"/><path class="cls-1" d="M134.38,38.15c.07-.38,.33-.75,.66-.99,.02,.02,.05,.04,.05,.05-.1,.27-.42,.71-.71,.94h0Z"/><path class="cls-1" d="M139.95,33.49c0,.12-.07,.23-.18,.24-.13,.01-.27-.11-.28-.25,0-.11,.08-.22,.19-.23,.14-.02,.26,.09,.27,.24h0Z"/><path class="cls-1" d="M131.7,34.56c-.03,.33-.31,.75-.6,.92-.04-.03-.05-.07-.03-.11,.17-.29,.35-.57,.63-.81h0Z"/><path class="cls-1" d="M130.48,36.97c.11,0,.2,.09,.2,.21,0,.16-.1,.27-.24,.27-.11,0-.21-.1-.21-.21,0-.13,.12-.27,.25-.27h0Z"/><path class="cls-1" d="M134.99,38.1c.11-.4,.35-.6,.52-.92,.06,.35-.09,.6-.52,.92h0Z"/><path class="cls-1" d="M143.88,37.82c-.02,.11-.07,.17-.18,.19-.11,.02-.22-.08-.22-.19,0-.09,.08-.18,.18-.19,.11,0,.22,.09,.22,.19h0Z"/><path class="cls-1" d="M131.23,34.52c.03,.31-.02,.39-.34,.65-.06-.19-.05-.2,.34-.65h0Z"/><path class="cls-1" d="M143.22,34.2c.14-.24,.28-.43,.52-.57-.08,.36-.2,.49-.52,.57h0Z"/><path class="cls-1" d="M143.61,34.58c0-.35,.18-.48,.4-.71-.03,.34-.19,.5-.4,.71h0Z"/><path class="cls-1" d="M135.76,37.91c0-.25,.1-.42,.36-.56-.02,.29-.15,.45-.36,.56h0Z"/><path class="cls-1" d="M143.14,33.6c.07-.22,.16-.43,.34-.61,.04,.26-.05,.43-.34,.61h0Z"/><path class="cls-1" d="M144.16,34.31c-.05,.24-.12,.38-.35,.49,.03-.25,.13-.37,.35-.49h0Z"/><path class="cls-1" d="M144.13,34.85c.03,.18-.07,.28-.21,.4-.06-.23,.07-.32,.21-.4h0Z"/><path class="cls-1" d="M126.2,32.23c.62-.78,1.27-1.55,1.95-2.29,.09,.09,.05,.15,.02,.21-.07,.1-.14,.21-.21,.3-.4,.49-.8,.98-1.21,1.46-.11,.14-.25,.25-.38,.37-.04,.04-.1,.05-.16-.05h0Z"/><path class="cls-1" d="M128.07,29.39c.04,.12,0,.18-.05,.23-.49,.61-.97,1.22-1.52,1.79-.03,.04-.08,.08-.14,.05-.05-.07,0-.13,.04-.18,.24-.37,1.41-1.69,1.66-1.88h0Z"/><path class="cls-1" d="M133.09,29.14c.15-.36,.83-1.21,1.4-1.79,.08,.05,.04,.12,0,.17-.08,.13-.17,.25-.26,.37-.29,.36-.59,.72-.89,1.08-.06,.07-.1,.17-.26,.17h0Z"/><path class="cls-1" d="M134.48,26.13c-.02,.35-.3,.75-.8,1.26q-.12,.13-.37,.19c.06-.23,.24-.33,.36-.49,.13-.17,.28-.33,.42-.5,.13-.15,.25-.31,.38-.46h0Z"/><path class="cls-1" d="M131.87,29.05s0-.03,0-.04c-.02-.02-.04-.02-.06,0,0,0,0,.03,0,.03,.02,0,.04,0,.07,0h0Zm.29,0c0,.19-.12,.32-.3,.32-.19,0-.36-.15-.36-.32,0-.18,.16-.32,.36-.32,.18,0,.3,.13,.3,.32h0Z"/><path class="cls-1" d="M132.3,19.42c.15,0,.28,.13,.28,.29,0,.16-.13,.3-.28,.29-.15,0-.28-.14-.29-.29,0-.15,.13-.28,.29-.28h0Z"/><path class="cls-1" d="M132.82,28.43c0,.14-.12,.26-.26,.26-.14,0-.26-.12-.25-.26,0-.14,.14-.25,.28-.24,.13,0,.23,.12,.23,.24h0Z"/><path class="cls-1" d="M132.02,20.76c0,.14-.12,.25-.24,.23-.12-.02-.22-.15-.21-.27,.01-.11,.11-.2,.22-.2,.13,0,.23,.11,.22,.24h0Z"/><path class="cls-1" d="M126.77,29.56c.11-.23,.5-.62,.76-.76-.07,.31-.42,.66-.76,.76h0Z"/><path class="cls-1" d="M126.15,19.91c.15,0,.25,.12,.24,.27,0,.12-.1,.21-.21,.21-.16,0-.28-.15-.26-.3,.01-.11,.11-.19,.23-.18h0Z"/><path class="cls-1" d="M126.32,28.29c.17-.33,.43-.57,.69-.84,.03,.19,.03,.19-.25,.5-.12,.14-.22,.31-.44,.34h0Z"/><path class="cls-1" d="M127.16,20.84c0,.12-.1,.24-.22,.24-.11,0-.21-.08-.22-.2-.01-.13,.09-.24,.22-.24,.12,0,.22,.08,.22,.19h0Z"/><path class="cls-1" d="M132.15,27.35c0,.13-.12,.23-.24,.23-.11,0-.2-.1-.2-.22,0-.15,.13-.27,.26-.25,.11,.01,.19,.12,.18,.24h0Z"/><path class="cls-1" d="M134.09,26.08c.06,.21-.09,.32-.19,.45-.07,.09-.14,.2-.33,.15,.13-.25,.32-.43,.52-.61h0Z"/><path class="cls-1" d="M132.74,20.72c-.1,0-.19-.07-.19-.16,0-.11,.06-.17,.17-.19,.09-.02,.18,.06,.19,.16,0,.1-.07,.18-.16,.19h0Z"/><path class="cls-1" d="M126.39,27.68c.07-.2,.19-.35,.41-.51-.05,.3-.19,.44-.41,.51h0Z"/><path class="cls-1" d="M133.51,26.13c.01-.26,.14-.37,.36-.49-.04,.25-.15,.37-.36,.49h0Z"/><path class="cls-1" d="M126.81,28.67c.01-.25,.14-.36,.28-.47,.08,.04,.09,.09,.06,.14-.08,.12-.15,.24-.34,.33h0Z"/><path class="cls-1" d="M126.44,27.07c.07-.25,.2-.33,.37-.49,0,.29-.13,.37-.37,.49h0Z"/><path class="cls-1" d="M126.85,26.02c-.04,.17-.13,.29-.31,.39-.01-.25,.13-.34,.31-.39h0Z"/></g><g><path class="cls-1" d="M44.74,180.77c.06,.43,.07,.83,.04,1.24-.02,.24-.03,.49-.01,.73,.09,1.13,0,2.27,.17,3.4,.08,.58,.11,1.18,.15,1.76,.02,.24,.12,.39,.36,.46,.28,.08,.55,.16,.84,.18,.75,.06,1.46,.25,2.15,.55,1.45,.61,2.91,1.21,4.36,1.83,.62,.27,1.18,.21,1.69-.23,.1-.09,.21-.18,.32-.25,.55-.32,.83-.83,.97-1.42,.04-.18,.08-.35,.16-.52,.21-.42,.21-.84,.08-1.28-.05-.16-.09-.32-.12-.49-.14-1.02-.28-2.04-.16-3.08,.04-.29,.04-.57,.06-.86,.04-.45-.02-.88-.19-1.29-.22-.52-.52-.99-.93-1.38-.54-.51-1.14-.95-1.76-1.36-.18-.12-.36-.15-.56-.13-.53,.05-1.05,.14-1.56,.31-1.18,.4-2.38,.69-3.58,1.02-.41,.11-.83,.15-1.25,.24-.43,.09-.83,.26-1.23,.58h0Zm.85-1.02c0-.66-.27-1.16-.69-1.58-.27-.27-.57-.5-.92-.66-.58-.26-1.15-.54-1.77-.71-.48-.13-.97-.26-1.45-.38-1.21-.31-2.44-.44-3.69-.5-1.05-.05-2.09,.11-3.12,.23-.23,.03-.45,.06-.67,.12-.74,.22-1.47,.47-2.19,.75-1.1,.43-2.06,1.08-2.96,1.84-.43,.36-.71,.81-.88,1.35-.23,.74-.24,1.49-.15,2.25,.13,1.06,.07,2.11-.16,3.16-.15,.67-.18,1.35-.03,2.03,.14,.65,.47,1.14,1.06,1.46,.45,.25,.86,.57,1.25,.9,.47,.4,.98,.77,1.5,1.1,.32,.21,.67,.36,1.05,.4,.29,.03,.56,.11,.82,.24,.33,.16,.69,.22,1.06,.23,.74,.03,1.45-.09,2.12-.4,.39-.18,.8-.28,1.22-.36,.61-.12,1.22-.25,1.82-.4,.49-.12,.71-.41,.73-.91,.01-.24,0-.49-.07-.72-.05-.21-.07-.42-.07-.63,.02-.59,.03-1.18,.06-1.77,.05-.77,.07-1.54-.06-2.31-.09-.54-.19-1.08-.55-1.52-.24-.29-.47-.59-.78-.82-.18-.14-.33-.31-.48-.48-.53-.62-1.05-1.25-1.57-1.88-.16-.2-.31-.41-.47-.62-.06-.09-.12-.18-.09-.29,.04-.1,.12-.14,.21-.16,.27-.06,.53-.1,.81-.1,.45,0,.91,0,1.36-.03,1.19-.09,2.38-.28,3.58-.25,.05,0,.09,0,.14,0,.81-.14,1.63-.11,2.45-.15,.75-.04,1.3,.47,1.35,1.23,0,.06,0,.12-.07,.15-.12,0-.13-.1-.17-.18-.06-.14-.12-.28-.2-.41-.22-.35-.52-.47-.93-.38-.25,.05-.51,.11-.76,.12-.53,.03-1.06,.07-1.59,.11-1.01,.08-2.03,.12-3.04,.17-.73,.03-1.45,.05-2.18,.07-.13,0-.27-.02-.38,.07-.02,.08,.02,.13,.07,.17,.69,.64,1.3,1.36,1.89,2.08,.14,.16,.29,.31,.45,.44,.62,.52,1.07,1.15,1.27,1.94,.07,.28,.12,.56,.17,.84,.02,.12,.02,.24,.16,.36,.17,.02,.38,.05,.59,.07,.21,.02,.42,0,.64,.03,.2,.02,.41-.06,.62,.08-.31,.23-.48,.3-.81,.29-.29,0-.58,.01-.86-.04-.08-.02-.19-.03-.22,.11,.03,.03,.06,.08,.09,.08,1.35,.11,2.69-.01,4.03-.17,.09-.01,.17-.05,.24-.14,.06-.15,.02-.32,.02-.48,0-.17,0-.33,0-.5,0-.16,.03-.32-.03-.49q-1.02,1.02-1.45,1.05c.28-.23,.53-.42,.76-.63,.24-.23,.46-.48,.73-.76-.03-.3-.03-.67-.08-1.1-.14,.15-.23,.25-.32,.35-.42,.44-.87,.85-1.36,1.2-.26,.18-.54,.34-.85,.43-.07,.02-.14,.04-.21-.05,.06-.12,.18-.15,.29-.2,.4-.19,.76-.44,1.1-.72,.46-.38,.86-.81,1.28-1.23,.08-.08,.14-.16,.16-.27,.05-.31,.14-.64,.06-.95-.1-.41,.08-.64,.4-.81,.22-.12,.45-.24,.69-.37h0Zm.49-.16c.14,.08,.29,.02,.43,0,.19-.03,.39-.07,.58-.12,1.19-.34,2.4-.62,3.58-1.02,.58-.2,1.18-.27,1.78-.35,.23-.03,.45,.05,.65,.17,.79,.49,1.54,1.03,2.17,1.72,.62,.68,1.03,1.47,1.06,2.4,.02,.44,0,.88-.06,1.31-.12,.81-.04,1.6,.07,2.4,.05,.37,.1,.75,.21,1.11,.15,.48,.1,.96-.12,1.42-.09,.18-.14,.37-.19,.56-.18,.68-.53,1.25-1.14,1.63-.28,.18-.55,.38-.83,.55-.24,.14-.5,.22-.76,.27-.31,.06-.59,0-.88-.15-.98-.48-1.95-.97-3-1.28-.38-.11-.73-.29-1.1-.42-.71-.25-1.4-.58-2.16-.66-.3-.03-.61,0-.9-.13-.13-.05-.26-.09-.38-.15-.27-.14-.44-.34-.48-.67-.05-.35-.07-.69-.09-1.04-.02-.42-.06-.84-.09-1.29-.74,.1-1.43,.32-2.16,.34-.72,.02-1.45,.11-2.14,.08-.13,.1-.11,.22-.12,.32-.03,.53-.05,1.06-.08,1.59-.02,.35-.01,.69,.08,1.04,.09,.36,.07,.72,0,1.08-.11,.62-.52,.98-1.1,1.15-.32,.1-.65,.12-.98,.18-.79,.16-1.55,.4-2.29,.72-.28,.12-.56,.21-.87,.22-.36,.01-.72,.08-1.09,.07-.42-.02-.82-.1-1.19-.28-.29-.14-.59-.24-.91-.29-.63-.1-1.18-.38-1.67-.78-.32-.26-.64-.51-.95-.77-.3-.25-.62-.49-.97-.68-.93-.49-1.44-1.24-1.6-2.28-.1-.7-.1-1.39,.06-2.08,.25-1.1,.25-2.2,.11-3.3-.12-.92,.05-1.78,.39-2.62,.17-.43,.47-.78,.82-1.08,.94-.8,1.95-1.47,3.11-1.94,.79-.32,1.61-.52,2.41-.79,.18-.06,.38-.08,.58-.11,1.25-.18,2.5-.32,3.76-.22,1.12,.09,2.23,.22,3.32,.5,.66,.17,1.32,.33,1.97,.56,.63,.23,1.21,.56,1.76,.93,.69,.46,1.17,1.09,1.32,1.94,.01,.06,.03,.12,.04,.18,0,.01,.02,.02,.04,.04h0Z"/><path class="cls-1" d="M38.19,183.9c.17,.13,.15,.25,.04,.36-.11,.11-.25,.17-.4,.21-.33,.1-.66,.05-.99,.04-.47-.02-.93,.01-1.36,.22-.24,.12-.48,.18-.74,.2-.33,.02-.66,.05-1,.06-.59,.03-1.14-.12-1.63-.46-.32-.22-.65-.37-1.03-.45-.36-.08-.69-.22-1.02-.38-.5-.25-1-.51-1.5-.76-.13-.07-.26-.15-.34-.27,.06-.11,.14-.07,.21-.05,.47,.13,.93,.26,1.37,.48,.54,.28,1.11,.49,1.71,.59,.24,.04,.47,.14,.66,.28,.52,.39,1.1,.53,1.75,.49,.63-.04,1.27-.02,1.9-.1,.46-.06,.92-.14,1.37-.25,.33-.08,.67-.15,.99-.22h0Z"/><path class="cls-1" d="M34.03,190.3c1.23-.37,2.45-.2,3.66,.12,.05,.12-.04,.17-.12,.2-.2,.06-.41,.1-.62,.07-.76-.13-1.53-.16-2.3-.12-.18,0-.36,0-.52-.11-.05-.03-.09-.08-.09-.16h0Z"/><path class="cls-1" d="M41.87,183.56c.15-.24,.38-.32,.56-.46,.17-.14,.36-.27,.53-.42,.19-.15,.37-.31,.55-.47,.17-.14,.33-.29,.54-.49,.01,.27-.13,.37-.24,.48-.71,.73-1.49,1.28-1.95,1.36h0Z"/><path class="cls-1" d="M38.9,188.09c.01,.44-.32,1.04-.79,1.46-.23,.21-.48,.4-.88,.35,.17-.22,.4-.23,.56-.36,.15-.12,.3-.25,.42-.41,.13-.17,.26-.34,.37-.51,.1-.16,.19-.33,.31-.53h0Z"/><path class="cls-1" d="M30.81,185.52c.26-.09,.49,0,.7,.08,.12,.05,.14,.19,.11,.31-.03,.13-.12,.21-.24,.24-.15,.04-.33-.03-.43-.18-.08-.12-.16-.25-.14-.46h0Z"/><path class="cls-1" d="M44.2,182.95c-.17,.44-.9,1.15-1.38,1.38,.04-.19,.05-.19,.34-.45,.17-.15,.33-.31,.5-.46,.15-.14,.28-.31,.54-.47h0Z"/><path class="cls-1" d="M37.14,189.38c.24-.22,.41-.38,.58-.54,.16-.15,.26-.36,.52-.51-.04,.37-.28,.54-.46,.74-.25,.27-.28,.28-.65,.31h0Z"/><path class="cls-1" d="M43.37,181.48c-.31,.46-.75,.79-1.21,.91,.06-.19,.23-.24,.35-.33,.14-.11,.29-.22,.43-.33,.12-.09,.21-.23,.42-.25h0Z"/><path class="cls-1" d="M37.46,188.35c-.04,.34-.2,.51-.39,.66-.09,.07-.19,.16-.34,.02,.27-.16,.43-.43,.73-.68h0Z"/><path class="cls-1" d="M41.84,181.72c.37-.3,.61-.42,.99-.5-.3,.27-.57,.45-.99,.5h0Z"/><path class="cls-1" d="M32.58,186.23c-.06,.18-.17,.28-.38,.22-.11-.15-.07-.27,.06-.34,.13-.07,.26-.06,.32,.12h0Z"/><path class="cls-1" d="M36.78,188.58c-.2,.25-.43,.36-.73,.41,.13-.23,.34-.35,.73-.41h0Z"/><path class="cls-1" d="M40.92,181.26c.1-.2,.22-.27,.44-.32-.11,.21-.23,.28-.44,.32h0Z"/><path class="cls-1" d="M52.99,190.36c.26,.15,.47,.17,.64,0,.13-.11,.2-.28,.13-.48-.26,.16-.49,.3-.77,.48h0Zm-.81-.28c.13,.09,.27,.12,.41,.15,.4-.11,.74-.29,1.05-.54,.17-.14,.22-.3,.11-.54-.14,.12-.26,.24-.38,.34-.35,.28-.7,.58-1.19,.61,0-.06-.03-.12,.02-.18,.55-.17,1-.52,1.39-.94,.19-.21,.19-.34,.01-.65-.59,.58-1.25,1.07-1.95,1.55,.18,.15,.34,.21,.53,.21h0Zm-1.48-.36c.23-.08,.43,0,.69,.03,.79-.48,1.53-1.06,2.23-1.76-.11-.48-.07-.96-.01-1.44,.03-.24,.06-.48,.14-.71,.17-.53,.04-1.01-.3-1.4-.51-.57-1.13-1.01-1.92-1.13-.1-.02-.21-.03-.32-.03-.29-.02-.57-.09-.84-.17-1.16-.36-2.3-.76-3.39-1.31-.43-.22-.88-.4-1.32-.6-.23-.11-.46-.17-.68,0-.07-.24,0-.37,.19-.4,.14-.03,.27,.02,.4,.06,.6,.22,1.2,.42,1.78,.68,.79,.35,1.6,.64,2.43,.87,.57,.16,1.13,.34,1.72,.4,.63,.07,1.17,.36,1.64,.82,.39,.38,.73,.77,.91,1.28,.11,.32,.15,.64,.1,.98-.1,.75-.15,1.5,.03,2.26,.14,.61,.16,1.23,.06,1.85-.04,.21-.09,.41-.19,.6-.11,.23-.29,.34-.55,.3-.2-.03-.39-.06-.56-.17-.52-.32-1.11-.47-1.68-.67-.13-.05-.24-.12-.37-.16-.07-.02-.14-.05-.17-.19h0Z"/><path class="cls-1" d="M48.46,186.94c-.1,.03-.15,.08-.1,.19,.07,.05,.13,.06,.2-.01,0-.08-.01-.15-.1-.17h0Zm.73,.34c.01,.28-.22,.48-.48,.42-.16-.04-.32-.09-.47-.15-.25-.1-.35-.32-.27-.59,.04-.12,.11-.21,.2-.3,.29-.31,.55-.28,.76,.08,.1,.18,.24,.35,.27,.54h0Z"/><path class="cls-1" d="M45.55,183.64c.1-.03,.12-.13,.16-.19,.05-.08,.02-.13-.08-.14-.08,.1-.09,.21-.08,.33h0Zm.7-.24c0,.08-.02,.15-.07,.21-.1,.11-.19,.23-.3,.34-.2,.2-.55,.13-.6-.15-.05-.23-.11-.46-.18-.69-.06-.22,.14-.42,.37-.38,.35,.06,.55,.33,.75,.59,.02,.02,.02,.06,.02,.08h0Z"/><path class="cls-1" d="M45.77,184.47c0,.33-.2,.47-.43,.58-.21-.21-.22-.23-.11-.42,.14-.24,.22-.27,.53-.16h0Z"/><path class="cls-1" d="M49.97,188.26c-.23-.05-.38-.17-.44-.35,.03-.14,.1-.2,.19-.21,.11-.02,.21,0,.29,.08,.07,.06,.12,.13,.13,.22,.01,.12-.04,.2-.18,.27h0Z"/><path class="cls-1" d="M48.85,185.62c.17,.22,.18,.3,.06,.43-.06,.06-.13,.08-.2,.05-.08-.03-.11-.1-.12-.18-.01-.11,.02-.14,.26-.3h0Z"/><path class="cls-1" d="M46.11,184.38c.18-.08,.27-.02,.33,.13-.02,.14-.11,.19-.23,.15-.12-.04-.15-.13-.1-.28h0Z"/></g><g><path class="cls-1" d="M66.37,47.2c-.12-.05-.25-.05-.37,.01,.05,.12,.12,.17,.21,.19,.09-.04,.16-.08,.16-.2h0Zm.3,.49c.11-.15,.3-.28,.38-.52-.35-.09-.44,.18-.58,.36-.01,.02,0,.06,0,.08,.04,.06,.09,.09,.2,.08h0Zm1.7-.48c-.13-.09-.2,.02-.27,.09-.42,.39-.62,.66-.66,.88,.24-.12,.72-.61,.93-.97h0Zm-1.25,.8c.12-.13,.24-.25,.35-.38,.12-.14,.27-.24,.34-.42-.17-.1-.32-.1-.45,.03-.18,.19-.37,.38-.48,.59,.03,.13,.09,.16,.23,.18h0Zm2.12-.77c-.35-.12-.55-.03-.73,.19-.23,.28-.47,.54-.7,.81-.03,.03-.03,.08-.05,.12,.08,.12,.18,.18,.35,.16,.34-.4,.69-.84,1.12-1.27h0Zm4.46,7.3c.48,.07,.93,.12,1.39,.11,.63,0,1.25-.11,1.85-.31,.83-.28,1.51-.74,1.73-1.68,.18-.79,.2-1.54-.31-2.24-.27-.37-.47-.79-.83-1.07-.6-.48-1.25-.9-2-1.1-.99-.28-1.98-.6-3.01-.75-.7-.1-1.39-.2-2.09-.28-.29-.03-.59-.09-.89-.03-.41,.41-.76,.87-1.13,1.33-.03,.03-.04,.08-.06,.12-.03,.06,0-.01,.01,.04,0,.01,.02,.02,.03,.03,.12,.05,.16-.06,.22-.12,.28-.29,.56-.59,.84-.88,.05-.05,.1-.13,.22-.04-.09,.26-.32,.4-.48,.6-.17,.2-.37,.37-.5,.6,.08,.14,.19,.18,.32,.18,.16-.06,.23-.21,.34-.31,.34-.34,.69-.69,1.03-1.03,.05-.05,.11-.11,.22-.02-.08,.17-.22,.29-.35,.42-.3,.32-.59,.65-.89,.97-.06,.06-.08,.14,.02,.2,.13,0,.18-.1,.26-.18,.26-.25,.51-.51,.76-.77,.05-.05,.11-.13,.22-.03-.2,.45-.68,.7-.91,1.13,.13,.12,.2,.04,.26-.02,.23-.22,.45-.44,.68-.65,.05-.05,.12-.11,.21,0-.17,.36-.57,.56-.77,.92,.08,.06,.14,.12,.2,.16,.08,.05,.14,.12,.28,.09,.22-.23,.43-.5,.71-.71,.05-.04,.11-.12,.21,0-.22,.32-.58,.55-.77,.94,.69,.59,1.41,1.13,1.91,1.88,.5,.75,.83,1.57,1.06,2.49h0Zm5.02-4.65c-.06-.56-.24-1.07-.44-1.58-.59-1.47-1.54-2.66-2.86-3.53-1.53-1.01-3.22-1.68-5-2.11-.63-.15-1.27-.22-1.9-.3-1.51-.19-3.01-.34-4.54-.2-1.21,.11-2.39,.3-3.57,.55-.97,.21-1.9,.52-2.77,1.01-.35,.2-.71,.41-1.08,.57-.91,.41-1.62,1.06-2.29,1.77-.29,.31-.58,.62-.78,1.04,.13,.15,.08,.34,.06,.52-.03,.41,.01,.81,.11,1.21,.12,.48,.35,.9,.55,1.35,.31,.68,.75,1.27,1.3,1.76,1.33,1.19,2.9,1.9,4.61,2.35,1,.26,2.01,.47,3.04,.6,.81,.1,1.62,.17,2.44,.17,.53,0,1.07-.02,1.6-.06,.62-.05,1.25-.12,1.87-.18,.5-.05,.99-.15,1.48-.26,.14-.03,.28-.07,.37,.1,0,.21-.17,.25-.32,.29-.38,.09-.76,.18-1.15,.24-.51,.08-1.03,.12-1.54,.2-.3,.05-.59,.08-.89,.07-.46-.02-.91,0-1.36,.03-.19,.01-.38,.01-.56,0-1.46-.07-2.9-.28-4.33-.59-1.82-.4-3.48-1.11-4.97-2.25-1.22-.93-1.99-2.15-2.41-3.61-.15-.53-.19-1.06-.09-1.61-.38,.52-.63,1.09-.77,1.7-.25,1.09-.19,2.18-.04,3.27,.05,.34,.1,.67,.23,1,.24,.64,.6,1.2,.97,1.77,.48,.75,1.09,1.38,1.76,1.95,1.49,1.27,3.23,2.04,5.12,2.45,1.6,.35,3.22,.47,4.86,.44,.38,0,.75-.04,1.13-.04,.35,0,.69-.02,1.03-.05,.7-.08,1.4-.17,2.1-.25,.78-.09,1.54-.3,2.28-.56,.56-.19,.98-.56,1.18-1.13,.14-.4,.25-.82,.23-1.24-.05-.96-.11-1.91-.43-2.83-.26-.73-.6-1.43-1.1-2.01-.63-.74-1.39-1.37-2.24-1.85-.94-.54-1.89-1.06-2.83-1.59-.58-.33-1.07-.77-1.49-1.28-.09-.11-.19-.22-.14-.38,.12-.2,.31-.18,.5-.18,.25,0,.5,.02,.75,0,.97-.08,1.94-.02,2.91,0,.47,0,.94,.02,1.41,.07,1.67,.18,3.32,.5,4.92,1.02,1.22,.39,2.3,.99,3,2.13,.01,.02,.05,.03,.09,.05h0Zm-4.8,5.43c.02,.34,.03,.65,.06,.96,.06,.6,0,1.19-.19,1.76-.28,.85-.85,1.41-1.68,1.71-.93,.33-1.89,.6-2.87,.7-.96,.1-1.93,.25-2.9,.22-.28,0-.56,.02-.85,.02-1.29,.03-2.57-.06-3.83-.3-.38-.07-.77-.14-1.15-.21-1.77-.34-3.37-1.04-4.8-2.14-.57-.44-1.12-.91-1.6-1.45-.85-.96-1.56-2-1.95-3.23-.08-.24-.13-.48-.17-.73-.12-.92-.21-1.83-.12-2.76,.07-.68,.22-1.33,.52-1.94,.47-.96,1.06-1.85,1.86-2.58,.35-.32,.67-.66,1.07-.92,.29-.19,.59-.35,.9-.49,.46-.2,.89-.46,1.32-.71,.99-.57,2.06-.9,3.17-1.14,.8-.17,1.59-.35,2.41-.41,.55-.04,1.09-.1,1.64-.12,.34-.01,.69,.04,1.03,.05,1.57,.03,3.13,.19,4.66,.52,1.66,.36,3.22,1.01,4.71,1.85,1.29,.73,2.29,1.74,3.06,2.99,.66,1.08,.98,2.26,1.09,3.51,.05,.58,.04,1.16,0,1.74-.04,.46-.15,.9-.35,1.31-.28,.58-.73,1.02-1.33,1.28-1.01,.43-2.07,.61-3.17,.53-.17-.01-.34-.04-.53,0h0Z"/><path class="cls-1" d="M66.36,59.24c.25-.25,.6-.31,.89-.47,.32-.17,.63-.35,.91-.57,.27-.21,.55-.41,.82-.63,.28-.23,.54-.47,.8-.72,.24-.24,.46-.5,.69-.75,.1,.09,.06,.16,.02,.22-.13,.23-.3,.44-.48,.63-.69,.73-1.46,1.36-2.33,1.88-.32,.19-.67,.33-1.03,.44-.09,.03-.18,.06-.29-.03h0Z"/><path class="cls-1" d="M71.92,55.97c.07,.27-.05,.39-.13,.51-.64,.94-1.41,1.75-2.37,2.37-.21,.14-.44,.27-.79,.3,.31-.35,.66-.49,.96-.72,.3-.23,.59-.47,.85-.74,.26-.27,.51-.55,.77-.82,.24-.27,.43-.58,.72-.91h0Z"/><path class="cls-1" d="M72.62,55.73c.12,.05,.13,.11,.13,.17-.01,.14-.02,.28-.06,.42-.19,.7-.49,1.35-.94,1.93-.22,.27-.47,.5-.79,.65-.14,.06-.28,.14-.44,.07-.01-.13,.09-.16,.17-.19,.49-.22,.84-.6,1.12-1.04,.39-.61,.68-1.27,.82-2h0Z"/><path class="cls-1" d="M65.52,58.75c1.05-.49,1.95-1.16,2.76-1.91,.13,.08,.1,.16,.05,.22-.08,.1-.17,.19-.26,.27-.52,.5-1.11,.91-1.73,1.28-.18,.1-.36,.18-.56,.24-.07,.02-.15,.04-.26-.1h0Z"/><path class="cls-1" d="M66.91,57.2c-.11,.26-.37,.35-.58,.48-.9,.57-1.29,.74-1.71,.77,.2-.27,.5-.33,.73-.48,.24-.14,.49-.27,.74-.4,.25-.14,.5-.3,.75-.44l.07,.08h0Z"/><path class="cls-1" d="M52.97,51.29c-.3-.38-.33-.61-.23-1.3,.04-.24,.02-.52,.3-.71,.02,.08,.05,.12,.04,.16-.17,.57-.11,1.16-.11,1.84h0Z"/><path class="cls-1" d="M65.62,57.39c.06,.18-.07,.22-.15,.27-.37,.2-.73,.45-1.27,.47,.24-.26,.51-.28,.73-.4,.22-.12,.44-.28,.69-.34h0Z"/><path class="cls-1" d="M53.29,50.04l.06,1.03c-.23-.06-.26-.21-.27-.36-.04-.3,.02-.49,.22-.66h0Z"/><path class="cls-1" d="M63.48,57.91s0-.08,.02-.08c.37-.16,.73-.32,1.1-.48,.03-.01,.09,.01,.13,.02-.29,.32-.83,.56-1.26,.54h0Z"/><path class="cls-1" d="M53.5,50.6c.24,.15,.12,.39,.31,.49,.17,.08,.2,.26,.28,.47-.27-.03-.39-.23-.53-.35-.15-.14-.11-.36-.06-.6h0Z"/><path class="cls-1" d="M74.91,54.12c.44-.02,.7-.32,.66-.79-.03-.33-.29-.55-.64-.52-.34,.03-.71,.36-.71,.63,0,.37,.33,.69,.69,.67h0Zm-1.05-.64c-.03-.59,.46-1.08,1.09-1.12,.57-.03,1.06,.38,1.09,.93,.04,.69-.43,1.25-1.1,1.26-.63,0-1.07-.49-1.08-1.07h0Z"/><path class="cls-1" d="M75.79,49.94q-.45,0-.72,.3c.02,.12,.04,.24,.06,.36,.04,.23,.18,.39,.39,.48,.23,.09,.38-.03,.53-.2,.09-.35,.02-.67-.27-.94h0Zm.78,.54c.02,.39-.05,.7-.37,.91-.57,.36-1.29,.03-1.44-.67-.02-.09-.03-.19-.03-.28-.04-.56,.41-1.02,.98-.99,.18,0,.34,.08,.46,.21,.23,.25,.38,.53,.41,.83h0Z"/><path class="cls-1" d="M72.95,49.03c0-.13-.11-.24-.24-.24-.18,0-.36,.18-.36,.35,0,.15,.13,.27,.26,.26,.17-.01,.35-.21,.34-.38h0Zm-.25-.68c.39-.03,.69,.28,.71,.7,.01,.32-.36,.73-.71,.75-.39,.03-.69-.24-.71-.63-.02-.46,.27-.8,.7-.82h0Z"/><path class="cls-1" d="M74.19,51.62s-.04-.03-.06-.04c0,0-.03,.02-.03,.03,0,.02,.02,.04,.04,.06,.02-.02,.04-.03,.05-.05h0Zm-.44,0c-.02-.23,.14-.42,.37-.45,.23-.03,.43,.16,.45,.43,.02,.24-.17,.48-.4,.49-.22,.01-.4-.19-.43-.46h0Z"/><path class="cls-1" d="M77.66,52.41c.02,.21-.15,.4-.35,.41-.16,0-.29-.1-.31-.28-.03-.23,.1-.41,.31-.43,.17-.02,.34,.12,.35,.3h0Z"/></g><g><path class="cls-1" d="M100.72,226.52c-.48-.41-.57-.86-.25-1.39,.1-.16,.21-.3,.21-.5-.06-.15-.17-.24-.33-.33-.54,.18-1,.57-1.66,.67,.34,.25,.64,.39,.96,.47,.1,.12,.2,.23,.32,.38-.19,.1-.34,0-.51,0-.16-.14-.3-.3-.5-.41-.48-.25-.92-.31-1.45-.09-.78,.32-1.59,.58-2.41,.79-.24,.06-.48,.17-.71,.26-.34,.13-.59,.36-.85,.62-.62,.62-1.14,1.34-1.82,1.9-.06,.05-.12,.12-.19,.17-.94,.57-1.59,1.45-2.39,2.18-.74,.69-1.46,1.4-2.26,2.03-.16,.13-.32,.26-.46,.4-.31,.32-.34,.76-.05,1.09,.21,.25,.41,.5,.57,.77,.09,.15,.22,.26,.37,.34,.34,.18,.58,.45,.79,.77,.29,.47,.77,.75,1.18,1.1,.17,.14,.43,.09,.6-.07,.02-.02,.05-.05,.07-.07,.34-.49,.81-.85,1.29-1.21,.83-.62,1.51-1.41,2.24-2.12,.36-.35,.71-.73,1.11-1.04,.09-.07,.18-.15,.26-.24,.35-.41,.75-.78,1.17-1.12,.61-.51,1.14-1.1,1.7-1.67,.12-.12,.22-.26,.32-.39,.22-.3,.45-.6,.73-.84,.58-.52,1.09-1.11,1.63-1.66,.18-.18,.32-.39,.51-.62-.1-.08-.15-.12-.2-.16h0Zm2.12-4.41c-.07-.29-.21-.55-.37-.81-.18-.29-.31-.59-.35-.94-.04-.4-.26-.73-.5-1.04-.28-.35-.51-.71-.59-1.16-.03-.13-.09-.25-.17-.35-.16-.09-.31-.05-.45-.01-.13,.04-.26,.08-.38,.13-.6,.23-1.2,.46-1.85,.5-.32,.02-.62,.16-.92,.28-1.31,.56-2.64,1.05-4.02,1.38-.44,.11-.88,.26-1.3,.41-1.05,.38-2.12,.67-3.21,.92-.44,.1-.88,.23-1.31,.43-.27,.6-.47,1.19-.3,1.86,.06,.25,.09,.5,.14,.75,.04,.18,.06,.38,.15,.53,.48,.87,.79,1.83,1.37,2.65,.03,.04,.06,.09,.09,.12,.23,.29,.39,.34,.75,.22,.6-.19,1.17-.45,1.73-.73,.97-.48,1.94-.96,2.91-1.43,.23-.11,.47-.2,.71-.26,.79-.2,1.55-.48,2.32-.74,.32-.11,.64-.23,.97-.3,1.23-.24,2.32-.8,3.4-1.42h0c-.28,0-.52,.13-.77,.23-.33,.12-.66,.26-.99,.4-.73,.29-1.5,.38-2.27,.5-.17,.02-.34,.04-.5,.08-1.01,.27-2.04,.48-2.98,.96-.22,.11-.47,.19-.71,.27-.61,.2-1.21,.42-1.79,.7-.55,.27-1.14,.42-1.74,.52-.57,.1-1.02-.09-1.34-.6-.46-.75-.84-1.54-1.06-2.4-.14-.56-.06-1.11,.1-1.65,.04-.14,.11-.29,.3-.28,.06,.05,.08,.11,.05,.18-.35,.82-.16,1.61,.19,2.35,.25,.53,.53,1.06,.88,1.54,.04,.05,.07,.12,.12,.16,.23,.24,.51,.34,.83,.22,.65-.24,1.34-.37,1.96-.69,.16-.08,.34-.14,.52-.2,.76-.27,1.54-.51,2.27-.86,.24-.12,.51-.17,.77-.24,.23-.06,.46-.1,.69-.17,.81-.25,1.65-.37,2.49-.44,.36-.03,.7-.13,1.03-.25,.56-.2,1.11-.4,1.67-.6,.23-.09,.46-.19,.65-.27,.14,.06,.13,.15,.14,.23h0q.47-.24,.7-.7h0Zm-2.42,5.68l-.1,.1h0l.1-.11,.11-.1h0l-.1,.11h0Zm-14.2,5.58s-.08,.05-.12,.08c-.47,.27-.59,.63-.35,1.1,.04,.09,.11,.16,.17,.24,.09,.41,.29,.75,.59,1.04,.27,.26,.52,.53,.72,.85,.04,.06,.07,.12,.12,.16,.62,.49,1.15,1.1,1.89,1.43,.19,.08,.38,.15,.62,.12,.56-.45,1.03-1.03,1.53-1.57,.05-.02,.09-.05,.1-.1,.23-.06,.38-.22,.5-.4,.05-.02,.09-.05,.1-.1,.06-.01,.09-.04,.1-.1,.2-.03,.31-.19,.44-.32,.71-.69,1.42-1.39,2.12-2.09,.03-.03,.05-.08,.08-.13,.02,0,.04,0,.05-.01,.69-.54,1.33-1.13,1.87-1.82,.06-.01,.09-.04,.1-.1,.05-.02,.09-.05,.1-.1,.05-.02,.09-.05,.1-.1,.03-.03,.07-.07,.1-.1,.05-.01,.09-.05,.1-.1,.06-.01,.09-.04,.1-.1,.06,0,.09-.04,.1-.1,.06-.01,.09-.05,.1-.1,.06-.01,.09-.05,.1-.1,.05-.01,.09-.05,.1-.1,.05-.01,.09-.05,.1-.1,.03-.03,.07-.07,.1-.1,.54-.48,1.04-1,1.42-1.62,.06,0,.09-.05,.1-.1,.03-.03,.07-.07,.1-.1l.11-.1,.02-.02-.02,.02s-.07,.07-.1,.11c-.03,.03-.07,.07-.1,.1-.05,.01-.09,.04-.1,.1-.26,.12-.43,.36-.62,.56-.31,.32-.58,.67-.79,1.07-.06,0-.09,.04-.1,.1-.06,0-.09,.04-.1,.1-.06,0-.09,.04-.1,.1-.06,0-.09,.04-.1,.1-.06,0-.09,.04-.1,.1-.06,0-.09,.05-.1,.1-.06,.01-.09,.05-.1,.1-.04,.03-.07,.07-.1,.1-.03,.03-.07,.07-.1,.1l-.1,.1s-.07,.07-.1,.1c-.05,.01-.09,.04-.1,.1-.05,.02-.1,.02-.14,.05-.63,.56-1.28,1.09-1.79,1.77-.12,.02-.21,.1-.3,.18-.79,.78-1.59,1.54-2.34,2.36-.03,.03-.07,.07-.1,.1-.05,.01-.09,.05-.1,.1-.22,.07-.38,.22-.51,.4l-.1,.1c-.35,.14-.63,.38-.87,.67-.13,.16-.25,.32-.39,.46-.33,.33-.74,.37-1.09,.07-.5-.42-1.05-.79-1.38-1.39-.1-.18-.27-.3-.45-.39-.29-.16-.5-.39-.66-.67-.17-.29-.4-.53-.64-.77-.11-.47-.06-.91,.22-1.31,.05-.02,.08-.06,.08-.12,.05-.02,.09-.05,.1-.1h0s-.06,.07-.1,.11h0Zm.4-.31s.07-.07,.11-.11c.03-.03,.06-.07,.09-.1l.11-.11c.31-.08,.51-.34,.71-.55,.53-.54,1.16-.99,1.66-1.56,.18-.2,.37-.39,.56-.58,.37-.39,.76-.77,1.22-1.06,.37-.24,.71-.53,.99-.86,.31-.36,.62-.71,.95-1.04h0c-.16,0-.28,.06-.39,.18-.66,.67-1.28,1.39-2.09,1.89-.25,.15-.43,.37-.62,.59-.53,.64-1.11,1.22-1.74,1.76-.45,.38-.87,.8-1.24,1.26-.04,.04-.07,.07-.1,.11-.03,.03-.06,.07-.09,.1-.04,.04-.07,.07-.11,.11h0Zm4.79-5.3v.02c-.62,.15-1.21,.37-1.78,.63-.41,.18-.76,.11-1.07-.18-.1-.09-.18-.2-.26-.31-.63-.85-.98-1.85-1.46-2.78-.08-.15-.1-.32-.14-.49-.06-.26-.09-.53-.15-.8-.17-.73-.01-1.41,.26-2.08,.11-.27,.3-.45,.58-.53,.1-.03,.19-.06,.29-.09,1.65-.43,3.28-.92,4.89-1.49,.16-.06,.32-.1,.49-.14,1.38-.33,2.72-.8,4.03-1.35,.31-.13,.63-.26,.97-.29,.68-.06,1.32-.27,1.95-.51,.23-.08,.46-.1,.7-.11,.34-.02,.54,.15,.66,.45,.04,.11,.07,.23,.09,.34,.06,.31,.19,.56,.42,.79,.39,.39,.68,.85,.77,1.4,.05,.31,.15,.58,.3,.85,.1,.18,.16,.38,.26,.55,.26,.4,.11,.73-.15,1.06-.12,.15-.27,.25-.43,.35-.42,.25-.83,.51-1.28,.72-.17,.08-.35,.14-.46,.3,.01,.03,.02,.07,.04,.1,.33,.46,.33,.66,.03,1.14-.06,.1-.12,.2-.16,.31-.08,.26,.02,.46,.29,.56,.09,.03,.2,.04,.3,.06,.34,.11,.49,.43,.28,.71-.35,.47-.62,1.01-1.06,1.42-.12,.12-.23,.25-.33,.38-.71,.93-1.49,1.8-2.3,2.63-.96,.98-1.93,1.95-2.95,2.86-1.18,1.06-2.23,2.26-3.49,3.24-.14,.11-.26,.27-.39,.4-.28,.3-.58,.57-.89,.83-.31,.26-.64,.3-.99,.17-.38-.14-.76-.3-1.07-.57-.35-.3-.73-.56-1.04-.88-.53-.56-1.02-1.17-1.49-1.78-.19-.25-.29-.57-.43-.86-.31-.65-.18-1.22,.38-1.66,.48-.38,.92-.79,1.33-1.25,.24-.28,.51-.55,.79-.79,.64-.55,1.24-1.14,1.78-1.8,.23-.27,.47-.53,.8-.7,.41-.21,.76-.51,1.08-.83v-.02h.01Z"/><path class="cls-1" d="M106.82,219.49c-.1,.38-.17,.76-.32,1.12-.16,.4-.24,.81-.28,1.23-.03,.3-.07,.61-.17,.89-.43,1.18-.68,2.4-.97,3.62-.26,1.08-.6,2.14-.94,3.2-.12,.37-.24,.74-.29,1.13-.06,.44-.2,.85-.35,1.27-.09,.25-.2,.5-.21,.77,.15,.05,.2-.06,.25-.12,.5-.6,1.01-1.18,1.48-1.8,.9-1.19,1.89-2.29,2.86-3.42,1.03-1.19,2.07-2.36,3.15-3.5,.22-.23,.44-.47,.69-.67,.49-.39,.91-.86,1.36-1.28,.57-.53,.59-1.13,.12-1.87-.24-.38-.58-.65-1.03-.77-.16-.04-.33-.1-.47-.19-.71-.47-1.54-.6-2.31-.88-.16-.06-.33-.06-.5-.08-.37-.04-.74-.04-1.08-.24-.13-.07-.29-.08-.53,.03-.15,.51-.33,1.03-.47,1.57h0Zm-3.97,13.39c.08-.38,.17-.76,.26-1.14,.08-.36,.18-.72,.23-1.09,.06-.45,.16-.9,.29-1.33,.26-.86,.52-1.71,.74-2.58,.29-1.09,.53-2.2,.83-3.29,.17-.64,.38-1.26,.42-1.92,.03-.53,.2-1.02,.39-1.51,.18-.45,.36-.91,.42-1.4,.04-.27,.14-.52,.24-.77,.23-.57,.69-.8,1.31-.56,.28,.11,.55,.16,.84,.14,.5-.03,.97,.1,1.41,.33,.21,.11,.41,.24,.65,.27,.24,.02,.45,.12,.67,.23,.25,.13,.5,.29,.77,.39,.56,.21,.97,.59,1.3,1.08,.59,.85,.55,1.78-.14,2.55-.44,.49-.88,.98-1.4,1.39-.22,.18-.43,.39-.62,.6-1.01,1.11-2.03,2.22-3.04,3.34-.94,1.04-1.87,2.09-2.76,3.17-.64,.78-1.34,1.52-2.08,2.21-.16,.15-.3,.32-.58,.35-.19-.24-.2-.24-.16-.45h0Z"/><path class="cls-1" d="M99.87,220.42c-.08,.17-.23,.22-.26,.49,0,.12,.13,.29,.29,.43,.33,.08,.43-.15,.54-.37,.33,.11,.47,.48,.79,.56,.09-.1,.04-.16,0-.2-.73-.75-1.52-1.43-2.43-1.97-.28-.16-.57-.3-.89-.34-.09-.01-.17-.02-.27,.08,.37,.23,.8,.3,1.16,.54,.36,.24,.73,.49,1.08,.79h0Z"/><path class="cls-1" d="M99.07,218.92c.24,.1,.48,.2,.71,.31,.24,.12,.47,.26,.67,.44,.2,.18,.38,.36,.57,.54,.08-.04,.1-.09,.07-.13-.43-.67-1.04-1.08-1.8-1.26-.07-.02-.17-.03-.22,.11h0Z"/><path class="cls-1" d="M91.19,222.33v.03l.04-.02h-.04Zm.04,.41c-.22,0-.4-.18-.41-.42,0-.23,.15-.39,.36-.39,.23,0,.42,.18,.42,.41,0,.21-.17,.39-.37,.4h0Z"/><path class="cls-1" d="M97.72,219.94c.6,.35,1.08,.82,1.64,1.2,.02,.01,.06,0,.09-.01-.09-.29-.34-.54-1.04-1-.2-.13-.39-.33-.68-.19h0Z"/><path class="cls-1" d="M96.64,219.97c0-.22-.17-.41-.36-.42-.21,0-.37,.17-.35,.4,.01,.23,.18,.4,.38,.39,.2-.02,.34-.17,.33-.37h0Z"/><path class="cls-1" d="M92.25,224.61c0-.22-.17-.4-.36-.39-.17,0-.32,.15-.32,.32,0,.2,.17,.39,.37,.39,.17,0,.31-.14,.31-.32h0Z"/><path class="cls-1" d="M99.04,221.43c-.3-.42-.77-.7-1.23-.79,.07,.15,.07,.15,.58,.46,.21,.12,.4,.29,.65,.34h0Z"/><path class="cls-1" d="M94.26,224.03c.15-.01,.27-.15,.26-.3-.02-.16-.16-.27-.31-.25-.14,.02-.23,.13-.23,.28,0,.16,.13,.29,.28,.28h0Z"/><path class="cls-1" d="M97.48,221.22c.34,.27,.66,.4,1.03,.58-.01-.24-.17-.29-.28-.36-.2-.13-.4-.28-.74-.23h0Z"/><path class="cls-1" d="M99.24,222.15c-.14,0-.25,.1-.25,.25,0,.15,.11,.26,.25,.25,.14,0,.21-.09,.23-.22,.02-.14-.09-.27-.22-.27h0Z"/><path class="cls-1" d="M90.01,222.26c.01-.14-.09-.27-.23-.27-.11,0-.19,.07-.21,.18-.03,.13,.09,.26,.23,.27,.1,0,.2-.07,.2-.18h0Z"/><path class="cls-1" d="M98.43,226.84s-.04,.05-.05,.07c.01,0,.03,.02,.04,.02,.04,0,.05-.02,.05-.07l-.04-.03h0Zm-.48-.08c.09-.09,.19-.15,.22-.28-.38-.32-.93-.32-1.37-.66,.54-.03,1.49,.34,2.04,.77,0,.11,.03,.22,.02,.34-.04,.34-.43,.54-.67,.31-.41-.39-.93-.53-1.42-.74-.09-.04-.21-.03-.27-.23,.56,0,.97,.33,1.45,.49h0Z"/><path class="cls-1" d="M97.52,225.49c.36,.22,.75,.27,1.07,.47,.32,.2,.66,.38,1.01,.53-.12-.36-.46-.48-.74-.65-.65-.39-.91-.45-1.34-.35h0Z"/><path class="cls-1" d="M89.49,236.32c.01-.19-.13-.33-.34-.35-.24-.02-.39,.1-.41,.33-.02,.23,.12,.41,.33,.42,.22,.02,.41-.17,.42-.4h0Z"/><path class="cls-1" d="M95.35,229.73c.01-.19-.15-.36-.33-.37-.16,0-.29,.11-.3,.28-.02,.2,.14,.37,.33,.37,.16,0,.3-.13,.31-.27h0Z"/><path class="cls-1" d="M96.7,227.76c.28-.16,.34-.26,.26-.45-.07-.17-.25-.24-.41-.17-.17,.07-.21,.24-.11,.42,.05,.09,.12,.16,.26,.2h0Z"/><path class="cls-1" d="M93.23,233.74c0-.14-.12-.26-.25-.26-.11,0-.21,.12-.21,.24,0,.15,.11,.26,.25,.25,.12,0,.22-.11,.22-.23h0Z"/><path class="cls-1" d="M89.07,232.48c-.01-.14-.15-.26-.27-.23-.11,.02-.19,.15-.16,.27,.02,.13,.1,.21,.24,.21,.11,0,.21-.13,.2-.25h0Z"/><path class="cls-1" d="M89.16,235.32c0-.12-.12-.22-.24-.2-.11,.02-.18,.09-.18,.21,0,.12,.12,.22,.24,.2,.11-.02,.18-.09,.18-.21h0Z"/><path class="cls-1" d="M97.08,226.96c-.27-.2-.48-.24-.7-.28q.14,.21,.7,.28h0Z"/><path class="cls-1" d="M107.24,219.02c.15,.17,.33,.22,.54,.17,.72-.15,1.4-.05,2.05,.31,.4,.22,.79,.46,1.24,.56,.08,.02,.16,.07,.22,.12,.5,.47,1.19,.63,1.71,1.07,.02,.01,.06,0,.1,0,.09-.11,.02-.19-.05-.27-.16-.2-.38-.34-.6-.46-.13-.07-.3-.11-.41-.2-.62-.55-1.44-.71-2.13-1.13-.69-.42-1.45-.52-2.24-.33-.11,.03-.39,.12-.44,.17h0Z"/><path class="cls-1" d="M109.28,220.12c1.01,.43,1.54,.69,2.79,2.26,.08-.02,.1-.08,.09-.15-.04-.17-.14-.31-.25-.44-.45-.55-.96-1.04-1.55-1.44-.25-.17-.53-.3-.84-.34-.08,0-.17-.02-.24,.11h0Z"/><path class="cls-1" d="M111.49,222.65c.02-.38-.22-.54-.38-.73-.61-.74-1.02-1.04-1.54-1.13,.1,.24,.33,.29,.48,.43,.16,.15,.34,.28,.49,.43,.16,.15,.3,.32,.45,.48,.15,.16,.26,.34,.49,.52h0Z"/><path class="cls-1" d="M110.92,222.8c-.18-.4-.54-.64-.87-.9-.05-.04-.05-.03-.31,0,.38,.34,.73,.65,1.08,.97l.09-.07h0Z"/><path class="cls-1" d="M109.6,222.55c.29,.33,.59,.53,.93,.75,.02-.26-.14-.34-.26-.44-.17-.13-.33-.33-.67-.32h0Z"/></g><g><path class="cls-1" d="M253.08,110.82c-.16-.07-.33-.14-.49-.22-1.43-.62-2.93-1.09-4.27-1.91-.03-.02-.08-.02-.12-.03-.39,.04-.78,.1-1.17,.13-1,.09-2,.27-3.01,.26-.42,0-.81,.11-1.12,.45-.23,.26-.57,.35-.91,.37-.36,.02-.71,0-1.04-.16-.16-.08-.32-.14-.51-.12-.49,.06-.99,.08-1.47,.18-1.96,.4-3.94,.67-5.94,.68-.26,0-.52,.03-.74,.18-.29,.2-.62,.26-.96,.23-.6-.06-1.18,.05-1.77,.14-1.08,.17-2.11,.53-3.2,.64-.11,.01-.24,.04-.32,.19-.02,.16-.03,.36-.05,.56-.02,.22-.05,.43,0,.64,.68,.78,.72,1.04,.28,1.97-.13,.29-.14,.57-.04,.86,.21,.63,.26,1.28,.21,1.93-.02,.27-.04,.55,.05,.82,.24,.13,.46,.25,.69,.37,.28,.15,.53,.34,.74,.58,.73,.86,.25,2.35-.72,2.6-.15,.04-.32,.05-.44,.26,0,.38,.02,.81,.1,1.24,.53,.19,1.05,.3,1.58,.34,1.46,.12,2.93,.07,4.39,.12,.12,0,.24-.01,.35-.02,1.96-.14,3.91-.15,5.87,0,.83,.07,1.65,.2,2.49,.17,1.92-.08,3.84,0,5.75,.04,1.72,.04,3.44,.14,5.16,.21,.16,0,.32,.01,.47,0,.63-.03,.9-.27,.98-.89,.07-.55,.12-1.1,.1-1.66-.04-1.56-.06-3.12,0-4.69,.02-.57,0-1.15,0-1.72,0-1.32-.08-2.65,.1-3.97,.01-.08,0-.15-.01-.24-.29-.29-.61-.5-1.02-.54h.01Zm-26.4,8.76c-.13-.05-.25-.12-.38-.16-.44-.14-.62-.47-.64-.9-.01-.33,0-.67,.02-1.01,.02-.48-.03-.95-.18-1.4-.19-.55-.16-1.08,.13-1.6,.22-.39,.2-.45-.15-.82-.18-.19-.27-.39-.25-.64,.04-.49,.08-.98,.14-1.47,.03-.26,.22-.41,.44-.52,.22-.11,.45-.16,.68-.19,.67-.08,1.32-.26,1.97-.41,.89-.21,1.79-.35,2.7-.27,.32,.03,.63,0,.91-.19,.29-.19,.63-.21,.97-.23,1.94-.09,3.86-.32,5.76-.72,.56-.12,1.14-.14,1.71-.19,.22-.02,.43,.02,.63,.14,.21,.12,.44,.15,.69,.15,.25,0,.48-.06,.64-.26,.3-.37,.71-.48,1.15-.55,.1-.02,.2-.03,.29-.03,1.03,.02,2.05-.18,3.07-.27,.29-.03,.59-.07,.88-.14,.29-.07,.54-.03,.79,.12,.86,.54,1.8,.9,2.74,1.27,.72,.28,1.44,.56,2.15,.86,.96,.4,1.33,.59,1.25,1.92-.09,1.34-.02,2.69,0,4.03,0,.39,0,.79,0,1.19-.06,1.56-.05,3.12-.01,4.69,.02,.66-.05,1.3-.15,1.95-.11,.66-.48,1.12-1.12,1.33-.27,.09-.55,.09-.82,.08-1.05-.04-2.1-.06-3.14-.13-1.54-.1-3.08-.1-4.62-.14-1.15-.03-2.29,0-3.44,0-.69,0-1.38-.07-2.07-.14-1.2-.12-2.41-.16-3.61-.14-.87,0-1.74,.06-2.61,.08-1.66,.03-3.32,.02-4.98-.12-.5-.04-.97-.18-1.43-.36-.4-.15-.63-.42-.68-.82-.06-.43-.07-.87-.1-1.3-.02-.31,.15-.53,.42-.66,.1-.05,.22-.1,.33-.12,.47-.07,.68-.37,.75-.8,.07-.43-.16-.72-.5-.93-.1-.06-.21-.11-.31-.17h0Z"/><path class="cls-1" d="M243.91,111.23c-.4,.27-.73,.59-1.05,.9-.28,.27-.56,.55-.78,.89-.03,.05-.03,.11-.04,.15,.07,.14,.17,.17,.37,.13,.57-.66,1.27-1.26,1.97-1.86,.02-.02,.01-.07,.02-.12-.05-.02-.1-.05-.16-.06-.1-.02-.2-.02-.33-.03h0Zm9.16-.42c.07,.04,.14,.07,.19,.13,.04,.04,.05,.1,.08,.18-.28,.27-.62,.3-.98,.27-.24-.02-.47-.07-.7-.1-.32-.04-.63-.03-.94,.07-.45,.14-.9,0-1.36,.01-.14,0-.27-.02-.39-.03-.13,.15-.04,.29-.02,.41,.05,.38-.04,.7-.37,.94-.11,.08-.21,.18-.32,.26-.79,.58-2.03,.52-2.76-.14-.29-.26-.46-.59-.45-1,0-.15,.1-.31-.06-.48-.32,.14-.53,.44-.79,.65-.29,.24-.56,.5-.83,.76-.26,.24-.52,.48-.71,.78,.08,.22,.25,.32,.43,.42,.54-.61,1.11-1.17,1.7-1.71,.13,.12,.07,.21,0,.28-.25,.28-.51,.55-.77,.82-.26,.27-.53,.53-.75,.84-.02,.19,.1,.34,.15,.5,.24,.71,.1,1.37-.25,1.99-.1,.19-.23,.38-.5,.31-.14-.14-.08-.27-.01-.39,.16-.31,.19-.64,.2-.98,.01-.96-.67-1.71-1.62-1.78-.44-.04-.86,.08-1.27,.25-.23,.1-.33,.28-.32,.52,.02,.7,.53,1.67,1.64,1.57,.2-.02,.39-.06,.59-.08,.09,0,.2-.06,.26,.05-1.17,.8-2.36,.16-2.77-1.48-.55,.45-.7,1.05-.42,1.65,0,.02,.02,.04,.03,.05,.39,.88,.99,1.31,2.14,1.2,.17-.02,.35-.09,.52,.02,.09,.1,.11,.22,.01,.32-.07,.07-.15,.13-.24,.16-.86,.31-2.05,.14-2.67-.74-.19-.28-.36-.57-.51-.87-.24-.49-.18-.99,.02-1.49,.5-1.26,1.47-1.8,2.77-1.86,.18,0,.35,0,.57-.01,.51-.63,1.05-1.24,1.73-1.78-.11-.04-.15-.07-.18-.06-1.02,.24-2.05,.11-3.07-.01-.38-.05-.74-.05-1.1,.04-.11,.64-.22,.78-.81,.98-.28,.09-.55,.21-.86,.21-.62,0-.9-.2-1.11-.78-.03-.07-.02-.16-.16-.25-.84,.22-1.74,.01-2.64,.02-.57,0-1.14,.09-1.71,.14-.75,.07-1.5,0-2.25,.01-.1,0-.2-.02-.24-.14,.02-.15,.15-.17,.26-.18,.26-.02,.51-.04,.77-.03,.91,.02,1.82-.03,2.72-.16,.39-.06,.79-.07,1.18-.04,.51,.04,1.03,.03,1.54-.06,.31-.06,.63-.05,.88,.06,.19,.18,.07,.39,.16,.54,.21,.36,.77,.34,1.51-.06,.11-.2-.15-.36-.06-.61,.06-.16,.24-.17,.42-.18,.73-.06,1.46-.12,2.19-.05,.81,.08,1.62,.09,2.42-.11,.27-.07,.55-.05,.83,0,.39,.07,.78,.12,1.18,.13,.42,.01,.53,.14,.45,.56-.08,.42,.02,.77,.35,1,.74,.53,1.59,.48,2.29-.12,.17-.14,.17-.34,.13-.55-.04-.19-.21-.35-.16-.6,.18-.23,.46-.29,.77-.27,.3,.02,.59,.05,.89,.06,.18,0,.37,.04,.53-.01,.57-.19,1.14-.06,1.7,.02,.32,.04,.63,.07,.94,0h-.01Z"/><path class="cls-1" d="M251.01,116.18c.29-.57,.19-1.19-.27-1.41-.71-.34-1.29-.19-1.58,.39-.25,.5-.06,1.2,.45,1.44,.66,.31,1.09,.16,1.4-.41h0Zm.69,.33c-.64,1.14-1.65,1.19-2.52,.7-.85-.47-1.08-1.62-.54-2.44,.13-.2,.28-.38,.43-.57,.23-.29,.58-.32,.91-.36,.6-.07,1.53,.28,1.83,1.05,.14,.37,.15,.73,.06,1.11-.05,.19-.13,.37-.17,.5h0Z"/><path class="cls-1" d="M231.03,116.06c-.24,.54-.18,1,.17,1.29,.27,.22,.65,.24,.94,.04,.33-.22,.52-.69,.41-1.03-.12-.38-.5-.59-1.05-.56-.37,.5-.33,.74,.16,1.05,.09,.05,.24,.04,.24,.2-.62-.01-.85-.28-.86-.99h0Zm-.62-.27c.39-.72,.94-.95,1.74-.7,.8,.25,1.27,.93,1.16,1.7-.08,.56-.38,1-.86,1.28-.79,.47-1.83,.07-2.14-.8-.17-.48-.13-1.04,.11-1.49h0Z"/><path class="cls-1" d="M245.55,120.65c.28-.55,.09-.94-.44-1.02-.19-.03-.39,0-.58,.01-.09,.01-.19,.06-.26,.12-.25,.22-.26,.81-.02,1.09,.25,.29,.7,.36,1.01,.12,.14-.11,.24-.25,.3-.32h0Zm.6,.3c-.32,.51-.76,.87-1.43,.83-.71-.04-1.25-.65-1.24-1.4,0-.16,.04-.31,.07-.47,.12-.63,.39-.89,1.02-.95,.21-.02,.44-.02,.65,.01,1,.14,1.45,1.06,.94,1.97h0Z"/><path class="cls-1" d="M238.62,121.93c-.24-.12-.2-.28-.22-.4-.05-.31-.2-.55-.4-.78-.13-.14-.28-.21-.47-.22-.56-.02-1.08,.25-.68,1,.05,.08,.09,.17,.17,.31-.44-.08-.41-.47-.58-.69-.24,.34-.24,.64,0,1,.44,.67,1.02,.51,1.58,.25,.21,.15,.19,.29,.07,.43-.23,.25-.53,.33-.86,.32-.84-.02-1.7-.94-1.65-1.79,.04-.65,.46-1.03,.99-1.3,.54-.27,1.1-.32,1.64,.02,.31,.2,.48,.52,.53,.89,.05,.32,.11,.66-.13,.97h0Z"/><path class="cls-1" d="M251.18,123.07c.38,.21,.89,.09,1.08-.28,.23-.44,.14-.99-.19-1.17-.35-.19-.97,.01-1.19,.39-.23,.38-.1,.83,.3,1.06h0Zm-.32,.58c-.63-.39-.84-1.16-.45-1.81,.16-.26,.29-.59,.64-.66,.43-.09,.87-.15,1.28,.04,.42,.19,.56,.59,.59,1.02,.03,.34-.06,.67-.2,.98-.29,.61-1.23,.83-1.86,.44h0Z"/><path class="cls-1" d="M227.81,112.94c.45-.05,.48-.1,.32-.49q-.34,.11-.32,.49h0Zm.94,.2c-.19,.36-.57,.52-.95,.43-.39-.1-.59-.4-.57-.85,.02-.52,.24-.81,.68-.91,.5-.11,.91,.18,.96,.69,.02,.18-.03,.48-.12,.63h0Z"/><path class="cls-1" d="M245.66,122.95c2.4-.48,4.37-1.79,6.37-3.04,.12,.1,.03,.18-.03,.24-.25,.26-.54,.47-.84,.65-1.25,.75-2.49,1.54-3.87,2.03-.41,.15-.84,.22-1.26,.32-.14,.03-.27,0-.36-.2h0Z"/><path class="cls-1" d="M247.22,117.41q-.33,.13-.26,.39c.23,0,.29-.13,.26-.39h0Zm.56,.52c-.22,.44-.71,.64-1.08,.45-.35-.18-.56-.82-.38-1.13,.22-.37,.82-.55,1.2-.35,.34,.18,.46,.65,.26,1.04h0Z"/><path class="cls-1" d="M241.95,119.95c.1-.18,.06-.33-.09-.42-.12-.07-.23-.05-.31,.06-.11,.16-.05,.38,.11,.45,.13,.06,.22,0,.28-.09h0Zm-.77-.62c.21-.41,.54-.51,.93-.3,.47,.25,.62,.74,.36,1.21-.21,.37-.69,.5-1.08,.29-.39-.21-.47-.7-.21-1.2h0Z"/><path class="cls-1" d="M230.96,123.14c.16,.16,.31,.14,.45,.06,.13-.08,.18-.2,.19-.35,0-.13-.04-.23-.16-.29-.12-.05-.23-.02-.32,.07-.13,.13-.2,.29-.16,.51h0Zm1.05,.13c-.2,.39-.78,.58-1.18,.39-.36-.18-.47-.64-.26-1.09,.22-.45,.75-.66,1.14-.45,.36,.2,.51,.75,.3,1.15h0Z"/><path class="cls-1" d="M228.07,117.65c.31,.2,.38,.22,.53,.13,.18-.1,.25-.35,.14-.5-.09-.13-.31-.15-.47-.02-.11,.09-.19,.2-.2,.38h0Zm-.02,.54c-.39-.19-.54-.64-.34-1,.19-.35,.79-.54,1.14-.36,.35,.17,.47,.63,.27,1.02-.19,.36-.7,.52-1.07,.34h0Z"/><path class="cls-1" d="M232.35,121.91c1.07-.81,2.02-1.53,2.98-2.25,.02-.02,.07,0,.11,.01-.13,.39-.3,.54-1.58,1.51-.94,.7-.95,.71-1.51,.73h0Z"/><path class="cls-1" d="M246.59,121.95c.46-.22,.8-.41,1.16-.54,.83-.3,1.66-.61,2.39-1.13,.06-.05,.14-.08,.22-.05,.05,.12-.04,.17-.11,.23-.54,.49-1.21,.73-1.86,1.01-.38,.16-.78,.28-1.15,.46-.15,.08-.32,.15-.65,.03h0Z"/><path class="cls-1" d="M235.51,120.47c-.22,.45-1.04,1.2-1.77,1.63-.25,.15-.51,.31-.89,.21,.18-.28,.48-.29,.68-.44,.22-.17,.45-.32,.67-.48,.21-.15,.4-.32,.61-.47,.21-.15,.38-.39,.7-.45h0Z"/><path class="cls-1" d="M247.23,120.9c.43-.18,.85-.35,1.26-.51,.41-.17,.76-.46,1.19-.58,.06,.08,.05,.14,0,.17-.67,.5-1.44,.79-2.22,1.05-.07,.02-.16,.03-.24-.14h0Z"/><path class="cls-1" d="M230.71,112.05c-.36,.27-.7,.56-1.07,.82-.36,.24-.48,.7-.87,.99,.15-.81,1.02-1.64,1.94-1.81h0Z"/><path class="cls-1" d="M231.69,112.35c-.73,.55-1.48,.94-2.04,1.56-.19-.12-.12-.23-.04-.31,.25-.23,.49-.45,.76-.65,.3-.22,.63-.4,.94-.6,.08-.05,.17-.09,.37,0h0Z"/><path class="cls-1" d="M234.2,119.85c-.27,.51-.72,.77-1.1,1.09-.17,.14-.35,.32-.66,.29,.09-.3,.35-.38,.53-.54,.17-.16,.36-.31,.55-.45,.19-.14,.33-.39,.68-.39h0Z"/><path class="cls-1" d="M250.14,122.93c-.66,.49-1.57,.76-2.14,.67,.18-.21,.42-.21,.63-.27,.24-.07,.49-.14,.73-.22,.22-.07,.42-.21,.78-.18h0Z"/><path class="cls-1" d="M232.5,112.34c.02,.07,.04,.13,.03,.14-.45,.39-.91,.78-1.36,1.17-.12-.09-.11-.18-.06-.24,.39-.44,.82-.83,1.39-1.07h0Z"/><path class="cls-1" d="M232.06,120.62c.43-.47,.93-.85,1.26-.98-.12,.44-.7,.92-1.26,.98h0Z"/><path class="cls-1" d="M249.13,119.44c-.23,.25-.74,.55-1.22,.73-.09,.03-.19,.06-.27-.04,.32-.31,1.1-.68,1.48-.69h0Z"/><path class="cls-1" d="M232.33,113.35c.02-.06,.02-.14,.06-.16,.38-.29,.77-.58,1.24-.93-.23,.53-.76,.94-1.3,1.09h0Z"/><path class="cls-1" d="M231.73,120.23c.17-.4,.49-.57,.8-.73,.13,.09,.1,.18,.02,.25-.23,.19-.43,.44-.81,.49h0Z"/><path class="cls-1" d="M247.37,119.45c.21-.27,.52-.34,.81-.44,.11,.11,.06,.17-.01,.21-.24,.12-.48,.24-.73,.35-.02-.04-.05-.08-.07-.12h0Z"/><path class="cls-1" d="M244.7,113.48c-.09,.38-.3,.53-.52,.72,.02-.35,.05-.4,.52-.72h0Z"/><path class="cls-1" d="M234.41,122.21c.15-.27,.37-.43,.71-.6-.12,.43-.39,.55-.71,.6h0Z"/></g></g></g></svg>